<svg width="41" height="24" viewBox="0 0 41 24" fill="none" xmlns="http://www.w3.org/2000/svg">
<path fill-rule="evenodd" clip-rule="evenodd" d="M7.22617 14.5515H4.89595L2.41699 6.8915H4.56129L6.04867 12.1717L7.54843 6.8915H9.69274L7.22617 14.5515ZM10.6967 21.3934C15.3076 21.3934 19.2243 18.4806 20.7365 14.4027C20.3895 14.5019 20.0176 14.5515 19.621 14.5515H16.4975V6.8915H19.621C20.03 6.8915 20.4018 6.94108 20.7613 7.05264C19.2739 2.93756 15.3324 0 10.6967 0C4.7844 0 0 4.78439 0 10.6967C0 16.5966 4.7844 21.3934 10.6967 21.3934ZM21.381 11.2173C21.3067 11.5767 21.1579 11.8866 20.9224 12.1345C20.5754 12.4816 20.1416 12.6551 19.621 12.6551H18.5178V8.77551H19.621C20.1539 8.77551 20.5878 8.94904 20.9224 9.30849C21.1579 9.55638 21.3191 9.85386 21.381 10.2257C21.3934 10.3744 21.3934 10.5356 21.3934 10.6843C21.3934 10.8702 21.3934 11.0438 21.381 11.2173ZM12.432 11.5891V12.7171H15.3943V14.5515H10.4736V6.8915H15.3448V8.72593H12.432V9.79189H15.0721V11.6015H12.432V11.5891Z" fill="#2C4776"/>
<path fill-rule="evenodd" clip-rule="evenodd" d="M19.6334 6.89149H22.6701H27.5412V8.72592H24.6285V9.79187H27.2685V11.6015H24.6285V12.7294H27.5908V14.5515H23.4633H19.906V14.5391C20.8357 14.4771 21.6165 14.1177 22.2611 13.4483C22.98 12.717 23.3394 11.7998 23.3394 10.7091C23.3394 9.63074 22.98 8.72592 22.2611 7.98223C21.5545 7.26333 20.6869 6.89149 19.6334 6.89149ZM18.964 12.6551H19.621C20.1415 12.6551 20.5754 12.4815 20.9224 12.1345C21.2571 11.775 21.4306 11.304 21.4306 10.7215C21.4306 10.1265 21.2571 9.66792 20.9224 9.32087C20.5878 8.96142 20.1539 8.78789 19.621 8.78789H18.7905C18.6914 8.89944 18.5922 9.02339 18.5178 9.14734V12.1345C18.6418 12.3204 18.7905 12.4939 18.964 12.6551ZM31.9538 11.7626L33.937 14.5515H31.8794L30.925 13.2004L29.9706 14.5515H27.9255L29.9086 11.7626L27.9998 9.08537H30.045L30.925 10.3248L31.805 9.08537H33.8626L31.9538 11.7626Z" fill="#2C4776"/>
<path fill-rule="evenodd" clip-rule="evenodd" d="M25.2322 17.203C25.803 17.203 26.2757 17.4119 26.677 17.839C27.0783 18.2567 27.2745 18.7787 27.2745 19.3862C27.2745 20.0032 27.0783 20.5253 26.677 20.943C26.2846 21.3606 25.803 21.5695 25.2322 21.5695C24.8576 21.5695 24.5276 21.4745 24.2244 21.2847C23.9301 21.0948 23.6982 20.8386 23.5377 20.4968V23.1452H23.1453V17.279H23.5377V18.2472C23.6982 17.9149 23.9301 17.6492 24.2244 17.4593C24.5187 17.2979 24.8576 17.203 25.2322 17.203ZM24.0193 20.6582C24.3493 21.0094 24.7417 21.1803 25.2054 21.1803C25.6692 21.1803 26.0616 21.0094 26.3916 20.6582C26.7216 20.307 26.8821 19.8893 26.8821 19.3957C26.8821 18.9021 26.7216 18.475 26.3916 18.1333C26.0616 17.7821 25.6692 17.6112 25.2054 17.6112C24.7417 17.6112 24.3403 17.7821 24.0193 18.1333C23.6982 18.475 23.5377 18.8926 23.5377 19.3957C23.5377 19.8893 23.6982 20.3165 24.0193 20.6582ZM28.6123 17.2885V18.1143C28.8531 17.5258 29.2901 17.2315 29.9322 17.2315V17.6302C29.5398 17.6302 29.2277 17.7631 28.9869 18.0289C28.7461 18.2946 28.6212 18.6648 28.6212 19.1489V21.484H28.2288V17.2885H28.6123ZM32.26 17.203C32.8397 17.203 33.3034 17.4213 33.6602 17.858C34.0258 18.2946 34.2042 18.8072 34.2042 19.4052C34.2042 19.4147 34.2042 19.4527 34.2042 19.5096C34.2042 19.5666 34.2042 19.5951 34.2042 19.6141H30.6368C30.6814 20.0792 30.8598 20.4684 31.163 20.7531C31.4662 21.0379 31.8497 21.1803 32.3046 21.1803C32.6167 21.1803 32.8843 21.1138 33.1251 20.9714C33.3569 20.8386 33.5442 20.6487 33.6691 20.4114L34.0169 20.6297C33.8564 20.924 33.6245 21.1518 33.3213 21.3227C33.018 21.4935 32.6791 21.5789 32.3046 21.5789C31.6981 21.5789 31.1987 21.3796 30.8152 20.9714C30.4228 20.5538 30.2355 20.0317 30.2355 19.3957C30.2355 18.7692 30.4228 18.2472 30.8063 17.839C31.1808 17.4119 31.6713 17.203 32.26 17.203ZM32.26 17.6017C31.823 17.6017 31.4484 17.7536 31.1452 18.0478C30.8419 18.3421 30.6725 18.7313 30.6368 19.1964H33.8029C33.7583 18.7028 33.5888 18.3136 33.2945 18.0289C33.0002 17.7441 32.6613 17.6017 32.26 17.6017ZM35.2387 18.3896C35.2387 18.7408 35.5241 18.9971 36.086 19.1489C36.2465 19.1869 36.3714 19.2154 36.4427 19.2344C36.523 19.2533 36.63 19.2913 36.7816 19.3388C36.9333 19.3862 37.0403 19.4337 37.1205 19.4907C37.2008 19.5476 37.2811 19.6141 37.3703 19.6995C37.4594 19.7849 37.5308 19.8798 37.5665 19.9937C37.6021 20.1076 37.6289 20.2405 37.6289 20.3829C37.6289 20.7341 37.4951 21.0189 37.2365 21.2467C36.9778 21.465 36.6389 21.5789 36.2198 21.5789C35.8452 21.5789 35.5331 21.4935 35.2655 21.3227C35.0069 21.1518 34.8196 20.924 34.7215 20.6392L35.0604 20.4304C35.1317 20.6677 35.2744 20.848 35.4706 20.9714C35.6757 21.1043 35.9165 21.1613 36.2109 21.1613C36.5141 21.1613 36.7638 21.0948 36.9511 20.9525C37.1384 20.8101 37.2276 20.6202 37.2276 20.3734C37.2276 19.9937 36.9422 19.7375 36.3803 19.6141C35.8541 19.4812 35.5063 19.3578 35.3279 19.2439C34.9979 19.0445 34.8374 18.7503 34.8374 18.3801C34.8374 18.0478 34.9623 17.7631 35.212 17.5353C35.4706 17.3074 35.7917 17.1935 36.1841 17.1935C36.4963 17.1935 36.7638 17.2695 37.0046 17.4213C37.2365 17.5732 37.4149 17.7726 37.5219 18.0289L37.1919 18.2282C37.1116 18.0289 36.9868 17.8675 36.7995 17.7631C36.6211 17.6492 36.416 17.5922 36.1841 17.5922C35.9076 17.5922 35.6847 17.6681 35.5063 17.8105C35.3279 17.9624 35.2387 18.1522 35.2387 18.3896ZM38.6099 18.3896C38.6099 18.7408 38.8953 18.9971 39.4572 19.1489C39.6177 19.1869 39.7426 19.2154 39.8139 19.2344C39.8942 19.2533 40.0012 19.2913 40.1528 19.3388C40.3044 19.3862 40.4115 19.4337 40.4917 19.4907C40.572 19.5476 40.6523 19.6141 40.7415 19.6995C40.8306 19.7849 40.902 19.8798 40.9377 19.9937C40.9733 20.1076 41.0001 20.2405 41.0001 20.3829C41.0001 20.7341 40.8663 21.0189 40.6077 21.2467C40.349 21.465 40.0101 21.5789 39.591 21.5789C39.2164 21.5789 38.9042 21.4935 38.6367 21.3227C38.3781 21.1518 38.1908 20.924 38.0927 20.6392L38.4316 20.4304C38.5029 20.6677 38.6456 20.848 38.8418 20.9714C39.0469 21.1043 39.2877 21.1613 39.582 21.1613C39.8853 21.1613 40.135 21.0948 40.3223 20.9525C40.5096 20.8101 40.5988 20.6202 40.5988 20.3734C40.5988 19.9937 40.3134 19.7375 39.7515 19.6141C39.2253 19.4812 38.8775 19.3578 38.6991 19.2439C38.3691 19.0445 38.2086 18.7503 38.2086 18.3801C38.2086 18.0478 38.3335 17.7631 38.5832 17.5353C38.8418 17.3074 39.1629 17.1935 39.5553 17.1935C39.8674 17.1935 40.135 17.2695 40.3758 17.4213C40.6077 17.5732 40.786 17.7726 40.8931 18.0289L40.5631 18.2282C40.4828 18.0289 40.358 17.8675 40.1707 17.7631C39.9923 17.6492 39.7872 17.5922 39.5553 17.5922C39.2788 17.5922 39.0559 17.6681 38.8775 17.8105C38.6991 17.9624 38.6099 18.1522 38.6099 18.3896Z" fill="black"/>
<path fill-rule="evenodd" clip-rule="evenodd" d="M7.22618 14.5515H4.89595L2.41699 6.89149H4.5613L6.04867 12.1717L7.54844 6.89149H9.69274L7.22618 14.5515ZM12.432 11.5891V12.717H15.3944V14.5515H10.4736V6.89149H15.3448V8.72592H12.432V9.79187H15.0721V11.6015H12.432V11.5891ZM16.4975 6.89149H19.621C20.6745 6.89149 21.5546 7.26333 22.2735 7.99463C22.9924 8.72592 23.3518 9.64313 23.3518 10.7215C23.3518 11.8122 22.9924 12.717 22.2735 13.4607C21.567 14.192 20.6869 14.5515 19.621 14.5515H16.4975V6.89149ZM18.5178 12.6551H19.621C20.1416 12.6551 20.5754 12.4815 20.9224 12.1345C21.2571 11.775 21.4306 11.304 21.4306 10.7215C21.4306 10.1265 21.2571 9.66792 20.9224 9.32087C20.5878 8.96142 20.154 8.78789 19.621 8.78789H18.5178V12.6551Z" fill="white"/>
</svg>
