<svg width="41" height="24" viewBox="0 0 41 24" fill="none" xmlns="http://www.w3.org/2000/svg">
<path fill-rule="evenodd" clip-rule="evenodd" d="M7.22617 14.5515H4.89595L2.41699 6.8915H4.56129L6.04867 12.1717L7.54843 6.8915H9.69274L7.22617 14.5515ZM10.6967 21.3934C15.3076 21.3934 19.2243 18.4806 20.7365 14.4027C20.3895 14.5019 20.0176 14.5515 19.621 14.5515H16.4975V6.8915H19.621C20.03 6.8915 20.4018 6.94108 20.7613 7.05264C19.2739 2.93756 15.3324 0 10.6967 0C4.7844 0 0 4.78439 0 10.6967C0 16.5966 4.7844 21.3934 10.6967 21.3934ZM21.381 11.2173C21.3067 11.5767 21.1579 11.8866 20.9224 12.1345C20.5754 12.4816 20.1416 12.6551 19.621 12.6551H18.5178V8.77551H19.621C20.1539 8.77551 20.5878 8.94904 20.9224 9.30849C21.1579 9.55638 21.3191 9.85386 21.381 10.2257C21.3934 10.3744 21.3934 10.5356 21.3934 10.6843C21.3934 10.8702 21.3934 11.0438 21.381 11.2173ZM12.432 11.5891V12.7171H15.3943V14.5515H10.4736V6.8915H15.3448V8.72593H12.432V9.79189H15.0721V11.6015H12.432V11.5891Z" fill="#10A9FF"/>
<path fill-rule="evenodd" clip-rule="evenodd" d="M19.6336 6.89149H22.6703H27.5415V8.72592H24.6287V9.79187H27.2688V11.6015H24.6287V12.7294H27.5911V14.5515H23.4636H19.9063V14.5391C20.8359 14.4771 21.6168 14.1177 22.2613 13.4483C22.9802 12.717 23.3396 11.7998 23.3396 10.7091C23.3396 9.63074 22.9802 8.72592 22.2613 7.98223C21.5548 7.26333 20.6872 6.89149 19.6336 6.89149ZM18.9643 12.6551H19.6212C20.1418 12.6551 20.5756 12.4815 20.9227 12.1345C21.2573 11.775 21.4308 11.304 21.4308 10.7215C21.4308 10.1265 21.2573 9.66792 20.9227 9.32087C20.588 8.96142 20.1542 8.78789 19.6212 8.78789H18.7908C18.6916 8.89944 18.5924 9.02339 18.5181 9.14734V12.1345C18.642 12.3204 18.7908 12.4939 18.9643 12.6551ZM31.954 11.7626L33.9372 14.5515H31.8797L30.9253 13.2004L29.9709 14.5515H27.9257L29.9089 11.7626L28.0001 9.08537H30.0452L30.9253 10.3248L31.8053 9.08537H33.8628L31.954 11.7626Z" fill="#10A9FF"/>
<path fill-rule="evenodd" clip-rule="evenodd" d="M25.2319 17.203C25.8027 17.203 26.2754 17.4119 26.6767 17.839C27.0781 18.2567 27.2743 18.7787 27.2743 19.3862C27.2743 20.0032 27.0781 20.5253 26.6767 20.943C26.2843 21.3606 25.8027 21.5695 25.2319 21.5695C24.8574 21.5695 24.5274 21.4745 24.2242 21.2847C23.9298 21.0948 23.698 20.8386 23.5374 20.4968V23.1452H23.145V17.279H23.5374V18.2472C23.698 17.9149 23.9298 17.6492 24.2242 17.4593C24.5185 17.2979 24.8574 17.203 25.2319 17.203ZM24.019 20.6582C24.349 21.0094 24.7414 21.1803 25.2052 21.1803C25.669 21.1803 26.0614 21.0094 26.3914 20.6582C26.7213 20.307 26.8819 19.8893 26.8819 19.3957C26.8819 18.9021 26.7213 18.475 26.3914 18.1333C26.0614 17.7821 25.669 17.6112 25.2052 17.6112C24.7414 17.6112 24.3401 17.7821 24.019 18.1333C23.698 18.475 23.5374 18.8926 23.5374 19.3957C23.5374 19.8893 23.698 20.3165 24.019 20.6582ZM28.6121 17.2885V18.1143C28.8529 17.5258 29.2899 17.2315 29.932 17.2315V17.6302C29.5396 17.6302 29.2274 17.7631 28.9866 18.0289C28.7458 18.2946 28.621 18.6648 28.621 19.1489V21.484H28.2286V17.2885H28.6121ZM32.2597 17.203C32.8394 17.203 33.3032 17.4213 33.6599 17.858C34.0256 18.2946 34.204 18.8072 34.204 19.4052C34.204 19.4147 34.204 19.4527 34.204 19.5096C34.204 19.5666 34.204 19.5951 34.204 19.6141H30.6366C30.6811 20.0792 30.8595 20.4684 31.1627 20.7531C31.466 21.0379 31.8495 21.1803 32.3043 21.1803C32.6165 21.1803 32.884 21.1138 33.1248 20.9714C33.3567 20.8386 33.544 20.6487 33.6688 20.4114L34.0167 20.6297C33.8561 20.924 33.6243 21.1518 33.321 21.3227C33.0178 21.4935 32.6789 21.5789 32.3043 21.5789C31.6979 21.5789 31.1984 21.3796 30.8149 20.9714C30.4225 20.5538 30.2352 20.0317 30.2352 19.3957C30.2352 18.7692 30.4225 18.2472 30.806 17.839C31.1806 17.4119 31.6711 17.203 32.2597 17.203ZM32.2597 17.6017C31.8227 17.6017 31.4481 17.7536 31.1449 18.0478C30.8417 18.3421 30.6722 18.7313 30.6366 19.1964H33.8026C33.758 18.7028 33.5886 18.3136 33.2943 18.0289C33 17.7441 32.6611 17.6017 32.2597 17.6017ZM35.2385 18.3896C35.2385 18.7408 35.5239 18.9971 36.0858 19.1489C36.2463 19.1869 36.3712 19.2154 36.4425 19.2344C36.5228 19.2533 36.6298 19.2913 36.7814 19.3388C36.933 19.3862 37.04 19.4337 37.1203 19.4907C37.2006 19.5476 37.2808 19.6141 37.37 19.6995C37.4592 19.7849 37.5306 19.8798 37.5662 19.9937C37.6019 20.1076 37.6287 20.2405 37.6287 20.3829C37.6287 20.7341 37.4949 21.0189 37.2362 21.2467C36.9776 21.465 36.6387 21.5789 36.2195 21.5789C35.845 21.5789 35.5328 21.4935 35.2653 21.3227C35.0066 21.1518 34.8193 20.924 34.7212 20.6392L35.0601 20.4304C35.1315 20.6677 35.2742 20.848 35.4704 20.9714C35.6755 21.1043 35.9163 21.1613 36.2106 21.1613C36.5138 21.1613 36.7636 21.0948 36.9508 20.9525C37.1381 20.8101 37.2273 20.6202 37.2273 20.3734C37.2273 19.9937 36.9419 19.7375 36.3801 19.6141C35.8539 19.4812 35.5061 19.3578 35.3277 19.2439C34.9977 19.0445 34.8372 18.7503 34.8372 18.3801C34.8372 18.0478 34.962 17.7631 35.2117 17.5353C35.4704 17.3074 35.7914 17.1935 36.1839 17.1935C36.496 17.1935 36.7636 17.2695 37.0044 17.4213C37.2362 17.5732 37.4146 17.7726 37.5216 18.0289L37.1916 18.2282C37.1114 18.0289 36.9865 17.8675 36.7992 17.7631C36.6209 17.6492 36.4157 17.5922 36.1839 17.5922C35.9074 17.5922 35.6844 17.6681 35.5061 17.8105C35.3277 17.9624 35.2385 18.1522 35.2385 18.3896ZM38.6097 18.3896C38.6097 18.7408 38.8951 18.9971 39.4569 19.1489C39.6175 19.1869 39.7423 19.2154 39.8137 19.2344C39.894 19.2533 40.001 19.2913 40.1526 19.3388C40.3042 19.3862 40.4112 19.4337 40.4915 19.4907C40.5718 19.5476 40.652 19.6141 40.7412 19.6995C40.8304 19.7849 40.9017 19.8798 40.9374 19.9937C40.9731 20.1076 40.9998 20.2405 40.9998 20.3829C40.9998 20.7341 40.8661 21.0189 40.6074 21.2467C40.3488 21.465 40.0099 21.5789 39.5907 21.5789C39.2161 21.5789 38.904 21.4935 38.6364 21.3227C38.3778 21.1518 38.1905 20.924 38.0924 20.6392L38.4313 20.4304C38.5027 20.6677 38.6454 20.848 38.8416 20.9714C39.0467 21.1043 39.2875 21.1613 39.5818 21.1613C39.885 21.1613 40.1348 21.0948 40.322 20.9525C40.5093 20.8101 40.5985 20.6202 40.5985 20.3734C40.5985 19.9937 40.3131 19.7375 39.7513 19.6141C39.2251 19.4812 38.8772 19.3578 38.6989 19.2439C38.3689 19.0445 38.2084 18.7503 38.2084 18.3801C38.2084 18.0478 38.3332 17.7631 38.5829 17.5353C38.8416 17.3074 39.1626 17.1935 39.555 17.1935C39.8672 17.1935 40.1348 17.2695 40.3756 17.4213C40.6074 17.5732 40.7858 17.7726 40.8928 18.0289L40.5628 18.2282C40.4826 18.0289 40.3577 17.8675 40.1704 17.7631C39.9921 17.6492 39.7869 17.5922 39.555 17.5922C39.2786 17.5922 39.0556 17.6681 38.8772 17.8105C38.6989 17.9624 38.6097 18.1522 38.6097 18.3896Z" fill="#B6B6B6"/>
<path fill-rule="evenodd" clip-rule="evenodd" d="M7.22618 14.5515H4.89595L2.41699 6.89149H4.5613L6.04867 12.1717L7.54844 6.89149H9.69274L7.22618 14.5515ZM12.432 11.5891V12.717H15.3944V14.5515H10.4736V6.89149H15.3448V8.72592H12.432V9.79187H15.0721V11.6015H12.432V11.5891ZM16.4975 6.89149H19.621C20.6745 6.89149 21.5546 7.26333 22.2735 7.99463C22.9924 8.72592 23.3518 9.64313 23.3518 10.7215C23.3518 11.8122 22.9924 12.717 22.2735 13.4607C21.567 14.192 20.6869 14.5515 19.621 14.5515H16.4975V6.89149ZM18.5178 12.6551H19.621C20.1416 12.6551 20.5754 12.4815 20.9224 12.1345C21.2571 11.775 21.4306 11.304 21.4306 10.7215C21.4306 10.1265 21.2571 9.66792 20.9224 9.32087C20.5878 8.96142 20.154 8.78789 19.621 8.78789H18.5178V12.6551Z" fill="white"/>
</svg>
