<svg width="2311" height="1258" viewBox="0 0 2311 1258" fill="none" xmlns="http://www.w3.org/2000/svg">
<mask id="mask0_58_151" style="mask-type:alpha" maskUnits="userSpaceOnUse" x="0" y="0" width="2311" height="1258">
<path d="M1981.94 1252.6C1988.96 1247.2 1988.96 1246.66 1982.48 1227.22C1979.25 1217.3 1974.71 1207.86 1968.99 1199.14C1963.59 1191.58 1963.05 1188.88 1967.37 1180.24C1970.07 1174.84 1974.39 1169.98 1976.54 1169.44L1987.34 1168.9C1996.52 1168.36 2000.84 1154.32 1995.44 1144.06C1994.19 1142.08 1993.62 1139.74 1993.81 1137.4C1994.01 1135.06 1994.96 1132.85 1996.52 1131.1C2001.38 1125.7 2000.84 1124.62 1988.42 1097.62C1984.64 1089.52 1984.1 1085.74 1987.88 1081.42C1991.66 1077.1 1991.12 1074.94 1986.26 1070.62C1982.8 1066.77 1980.87 1061.77 1980.86 1056.58C1980.86 1051.72 1979.24 1047.4 1977.62 1047.4C1974.39 1047.4 1963.05 1063.6 1964.13 1067.38C1964.13 1069 1960.35 1072.24 1954.95 1074.94C1949.44 1078.05 1945.22 1083.03 1943.07 1088.98C1941.99 1094.38 1939.29 1098.16 1937.67 1098.16C1934.35 1099.14 1931.36 1101 1929.03 1103.56C1920.4 1111.66 1908.52 1106.8 1900.42 1092.76C1895.56 1083.58 1890.7 1079.8 1883.68 1079.26L1858.85 1077.1C1850.75 1076.02 1843.19 1077.1 1842.65 1078.72C1839.41 1083.58 1825.37 1079.8 1814.04 1071.7C1806.33 1065.22 1797.56 1060.1 1788.12 1056.58C1780.56 1054.42 1780.56 1053.88 1789.2 1051.18L1798.38 1049.02L1788.12 1038.22C1783.91 1034.09 1780.6 1029.12 1778.4 1023.64C1778.41 1023.1 1778.3 1022.56 1778.07 1022.06C1777.85 1021.56 1777.52 1021.12 1777.11 1020.76C1776.7 1020.4 1776.22 1020.13 1775.7 1019.98C1775.17 1019.82 1774.62 1019.78 1774.09 1019.86C1768.57 1017.74 1763.59 1014.42 1759.51 1010.14C1749.79 1000.96 1747.09 1000.42 1720.1 1002.04C1677.98 1005.28 1673.13 1005.82 1673.13 1010.14C1673.13 1012.3 1667.19 1018.24 1659.63 1023.1C1643.97 1032.82 1642.35 1039.3 1654.23 1046.32C1662.33 1051.72 1664.49 1070.08 1656.93 1077.64C1654.23 1079.8 1652.07 1093.84 1651.53 1108.42C1651.53 1131.64 1650.45 1135.96 1640.73 1146.22L1629.93 1157.56L1612.66 1151.62C1598.62 1146.22 1594.3 1146.22 1588.9 1150C1583.5 1153.78 1580.26 1154.32 1571.63 1150C1561.91 1144.6 1559.21 1145.14 1546.79 1152.7C1539.76 1156.44 1534.1 1162.29 1530.59 1169.44C1528.97 1175.92 1525.19 1179.16 1516.02 1180.78C1508.53 1182.28 1501.62 1185.83 1496.04 1191.04C1492.26 1195.36 1487.4 1197.52 1485.24 1196.44C1476.55 1194.58 1467.64 1194.04 1458.79 1194.82C1440.43 1195.36 1435.03 1194.28 1428.55 1187.26C1426.75 1184.75 1424.27 1182.8 1421.4 1181.65C1418.53 1180.51 1415.39 1180.2 1412.36 1180.78C1410.06 1181.51 1407.57 1181.37 1405.38 1180.37C1403.18 1179.37 1401.44 1177.59 1400.48 1175.38C1395.62 1166.2 1368.09 1164.58 1351.89 1173.76C1346.17 1176.72 1339.94 1178.55 1333.53 1179.16C1325.43 1179.16 1303.84 1157.56 1303.84 1150C1303.84 1144.6 1284.4 1132.72 1274.69 1132.72C1264.97 1132.72 1239.59 1118.14 1236.89 1110.58C1234.73 1105.18 1234.19 1105.18 1233.65 1112.74C1232.39 1120.52 1229.03 1127.8 1223.94 1133.8C1213.68 1145.68 1210.98 1163.5 1218.54 1170.52C1221.24 1173.76 1219.62 1177.54 1212.6 1184.56C1204.5 1193.2 1200.18 1194.28 1189.92 1192.66C1183.82 1191.56 1177.97 1189.37 1172.65 1186.18C1171.51 1185.3 1170.17 1184.73 1168.74 1184.54C1167.32 1184.35 1165.87 1184.55 1164.55 1185.1C1160.23 1187.26 1150.51 1177 1146.73 1166.74C1145.11 1161.34 1141.33 1159.72 1131.61 1160.8C1124.6 1161.34 1117.04 1159.72 1115.42 1157.56C1112.18 1153.78 1106.24 1154.86 1089.5 1160.8C1079.15 1164.95 1068.23 1167.5 1057.11 1168.36C1049.55 1168.36 1046.31 1169.44 1048.47 1173.76C1050.63 1179.16 1044.69 1182.4 1024.18 1185.64C1018.49 1186.35 1012.88 1187.62 1007.44 1189.42C1005.82 1190.5 1000.42 1187.26 995.561 1181.86C989.595 1175.89 981.803 1172.09 973.425 1171.06C961.548 1169.98 959.388 1167.82 956.149 1157.02C953.989 1150 950.21 1144.6 946.971 1144.6C943.731 1144.6 941.572 1139.74 941.572 1132.72C941.572 1123 939.412 1119.76 928.074 1114.36C918.356 1110.04 913.497 1108.96 910.258 1112.2C903.779 1118.68 891.362 1113.28 885.423 1101.4C879.484 1089.52 868.146 1086.28 868.146 1096C868.15 1096.76 867.995 1097.51 867.69 1098.2C867.386 1098.89 866.939 1099.51 866.379 1100.02C865.819 1100.53 865.158 1100.92 864.44 1101.16C863.721 1101.39 862.961 1101.48 862.208 1101.4C857.349 1101.4 856.269 1096 856.269 1077.1C856.064 1061.98 854.07 1046.94 850.33 1032.28C846.551 1020.94 844.931 1010.68 846.011 1009.6C847.091 1008.52 843.311 1003.66 838.452 997.722C826.575 985.302 826.575 983.142 837.912 979.362C845.471 977.202 844.391 976.122 830.894 973.962C820.096 971.262 814.697 971.802 810.378 976.122C804.979 981.522 790.402 980.982 776.905 975.582C771.506 972.882 771.506 971.802 775.285 969.102C779.064 966.402 778.524 964.782 772.586 959.922C768.917 957.19 764.668 955.342 760.168 954.522C757.469 954.522 756.389 951.282 757.469 948.042C759.088 943.723 757.468 942.643 749.91 942.643C740.192 942.643 735.873 935.623 742.352 929.143C744.798 924.09 746.089 918.556 746.131 912.943C746.671 902.143 745.591 899.443 739.112 899.443C733.382 898.644 728.072 895.988 723.995 891.883C718.056 885.943 714.277 885.403 705.099 887.563C692.142 891.343 657.049 885.403 617.097 872.443C607.606 869.114 597.854 866.586 587.942 864.883C583.235 864.053 578.898 861.79 575.525 858.403C571.746 855.163 566.887 853.003 564.727 854.623C559.328 858.403 556.629 877.843 561.488 883.783C565.267 889.183 565.267 889.183 559.328 884.863C549.07 876.763 535.033 880.543 536.113 890.803C537.193 901.063 526.395 903.223 517.756 894.583C513.437 890.803 512.897 892.963 515.057 905.383C519.376 939.403 519.376 940.482 512.897 941.562C509.118 942.642 502.1 938.862 497.78 933.463C493.461 928.063 486.983 924.283 484.283 925.363C478.344 928.063 471.866 919.963 470.246 907.543C470 905.021 468.989 902.635 467.348 900.705C465.708 898.774 463.516 897.392 461.068 896.743C455.843 895.221 451.28 891.988 448.11 887.563C447.053 885.69 445.46 884.175 443.536 883.213C441.613 882.251 439.445 881.885 437.313 882.163C432.355 883.443 427.153 883.443 422.196 882.163C415.177 880.543 412.478 877.303 412.478 869.203C412.478 855.703 407.079 850.843 401.68 860.563C398.44 865.963 397.9 862.723 398.98 848.683C400.06 833.563 398.98 829.243 392.501 826.003C388.722 823.844 385.483 820.603 386.023 817.364C387.103 806.564 384.943 802.784 376.845 803.864C370.366 804.944 367.666 802.784 366.587 796.304C365.507 788.744 363.887 788.204 350.39 789.824C341.212 791.444 334.733 790.364 334.733 788.204C334.733 786.044 327.714 784.964 318.536 785.504C305.039 785.504 301.8 787.664 300.72 794.144C300.358 796.329 299.485 798.398 298.172 800.181C296.858 801.964 295.141 803.411 293.161 804.404C287.223 807.104 282.364 797.924 285.063 789.824C288.842 780.104 282.364 776.324 265.627 778.484C253.209 780.104 249.43 782.264 247.271 789.284C245.111 797.924 229.454 805.484 229.454 797.384C229.454 795.224 226.755 797.384 223.515 802.244C218.656 808.724 218.116 811.964 221.896 816.284C225.675 820.604 224.595 822.223 219.196 825.463C212.717 829.243 212.717 829.783 221.356 837.883C227.295 843.283 229.454 848.683 227.834 854.623C226.677 858.859 225.954 863.201 225.675 867.583C225.675 869.015 225.106 870.389 224.094 871.401C223.081 872.414 221.708 872.983 220.276 872.983C212.717 872.983 212.178 886.483 218.656 890.803C229.454 897.283 203.539 898.363 188.422 891.883C173.845 885.943 170.606 885.943 161.428 890.263C157.441 892.775 153.061 894.601 148.47 895.663C136.053 893.503 132.274 896.743 132.813 907.543C133.331 913.381 132.01 919.234 129.034 924.283C124.715 929.683 125.255 931.303 131.734 934.543C135.513 936.703 140.372 937.243 141.452 936.163C142.531 935.083 144.151 935.623 144.151 938.323C144.151 941.023 137.672 942.643 128.494 942.643C112.298 942.643 113.377 941.023 106.899 978.822C104.739 989.622 102.579 993.402 96.1008 993.402C79.904 993.402 73.9652 985.842 73.9652 968.022C73.9652 958.842 71.8056 949.662 69.6461 948.582C68.2159 946.777 67.1872 944.687 66.6286 942.452C66.07 940.217 65.9944 937.889 66.4067 935.623C68.0264 908.623 66.4067 902.143 55.069 895.663C45.8908 890.263 43.7313 885.943 41.5717 870.283C40.4919 860.023 37.7924 850.843 35.093 850.303C29.6941 848.143 19.4361 828.703 19.4361 818.444C19.0881 815.968 18.2382 813.589 16.9385 811.453C15.6388 809.318 13.9166 807.47 11.8776 806.024C5.93881 801.164 4.31914 793.604 2.15957 753.104L0 705.584L9.17816 715.304C17.8164 724.484 19.976 725.024 26.9946 720.704C29.1933 718.655 32.0873 717.515 35.093 717.515C38.0987 717.515 40.9926 718.655 43.1914 720.704C49.6701 725.024 50.7498 725.024 50.7498 716.384C50.5641 714.253 50.8025 712.105 51.4512 710.066C52.0998 708.027 53.1459 706.137 54.5291 704.504C56.6887 702.884 58.3083 703.424 58.3083 705.044C58.3083 708.284 76.6647 718.004 82.6035 718.004C88.5423 718.004 85.3029 706.664 78.8242 702.884C72.3455 699.104 72.8854 698.565 78.2843 696.945C85.8428 693.705 105.279 700.724 105.279 706.664C105.279 712.604 121.476 706.664 125.795 700.184C126.714 698.673 127.974 697.397 129.473 696.46C130.973 695.522 132.672 694.948 134.433 694.784C137.672 694.784 139.832 693.165 139.832 691.005C139.832 688.845 143.611 686.685 147.93 685.605C157.648 682.905 158.728 662.925 150.09 646.725C146.823 640.606 145.504 633.635 146.311 626.745C148.47 619.185 146.311 617.025 137.133 614.865C127.954 612.705 125.795 611.085 126.335 600.825C127.25 593.534 130.465 586.725 135.513 581.385C145.771 572.206 145.771 570.586 137.672 559.786C132.274 551.146 132.274 550.606 141.452 546.826C144.443 545.569 147.113 543.654 149.263 541.223C151.412 538.793 152.987 535.909 153.869 532.786C156.029 523.606 154.409 519.826 141.992 509.026L127.415 495.526L138.212 484.186C151.17 469.606 154.409 469.606 156.569 480.406C158.188 485.806 161.968 487.966 170.606 487.966C178.704 487.966 181.944 486.886 180.324 483.646C176.545 478.246 186.263 449.087 195.441 438.827C199.637 434.173 204.795 430.487 210.558 428.027C218.116 425.327 220.816 409.127 214.337 404.807C212.178 403.727 211.638 399.407 212.717 395.627C213.492 393.82 213.7 391.82 213.315 389.892C212.929 387.963 211.968 386.197 210.558 384.827C204.079 381.047 205.159 371.327 212.178 371.327C215.417 371.327 220.276 367.007 222.975 361.607C225.675 356.207 229.454 351.887 232.154 351.887C234.853 351.887 237.552 350.267 237.552 348.107C237.552 345.947 241.332 342.707 246.191 340.007C253.209 336.227 253.749 336.227 251.59 341.627C248.89 350.267 255.369 349.727 261.848 341.627C268.772 334.897 276.809 329.416 285.603 325.428C305.579 316.248 315.297 317.868 323.395 332.447C329.874 345.407 334.733 341.087 332.034 324.888C330.414 314.088 330.954 308.688 334.193 308.688C337.433 308.688 337.972 307.068 336.353 304.908C334.733 302.748 336.353 301.128 341.212 302.748C362.55 308.53 384.455 311.97 406.539 313.008C422.735 313.008 437.313 304.368 433.533 296.808C429.754 289.248 435.693 278.448 444.331 276.828C449.19 276.288 452.429 273.588 451.89 270.888C451.35 268.188 454.589 266.028 458.908 266.028C463.227 266.028 466.467 263.328 466.467 259.548C466.467 252.528 482.663 242.808 492.382 242.808C495.081 242.808 500.48 237.408 504.259 232.008C513.977 217.428 521.536 212.028 532.873 211.488C546.371 211.488 550.69 207.708 553.929 193.669C556.089 182.869 558.788 181.249 570.126 179.089C574.405 178.055 578.862 178.004 583.163 178.939C587.464 179.875 591.497 181.772 594.961 184.489C600.36 188.809 606.299 190.969 607.378 189.889C608.458 188.809 611.698 190.969 614.397 194.209C617.097 197.449 618.176 201.229 616.017 202.849C610.618 206.628 606.299 223.368 610.618 223.368C612.777 223.368 616.017 227.148 618.716 232.008C624.115 242.808 623.575 323.808 617.636 330.827C612.112 335.393 605.666 338.709 598.74 340.547C586.863 344.327 582.543 343.787 574.445 338.927C560.408 329.208 547.451 290.328 547.451 255.228C547.451 244.428 540.972 247.668 535.033 261.708C530.737 269.669 528.509 278.582 528.554 287.628C528.53 290.339 527.62 292.967 525.963 295.112C524.306 297.257 521.993 298.801 519.376 299.508C504.799 304.368 493.461 317.328 493.461 330.288C493.658 336.242 491.956 342.104 488.602 347.027C485.363 350.267 485.363 351.887 488.602 351.887C491.842 351.887 494.001 355.667 494.001 359.447C494.212 361.409 495.049 363.25 496.388 364.699C497.727 366.148 499.497 367.126 501.435 367.49C503.374 367.853 505.378 367.583 507.151 366.718C508.924 365.853 510.371 364.439 511.278 362.687C513.478 358.146 514.587 353.153 514.517 348.107C514.517 342.167 517.217 337.847 521.536 337.307C526.935 336.227 528.014 338.927 527.474 349.187C526.935 375.647 544.751 388.607 552.31 367.007C556.629 355.127 556.629 355.127 578.224 357.827C591.182 359.447 601.98 363.227 605.219 367.007C608.458 370.787 607.918 374.027 605.759 374.567C599.82 377.267 605.759 383.207 614.397 383.207C619.181 382.894 623.715 380.957 627.249 377.717C630.783 374.476 633.106 370.127 633.833 365.387C634.537 363.116 635.877 361.095 637.696 359.563C639.514 358.032 641.734 357.054 644.091 356.747C650.5 354.96 656.173 351.177 660.288 345.947C665.147 340.007 670.006 337.307 673.785 338.927C681.344 341.627 681.344 344.327 676.485 357.827C673.245 365.927 671.086 367.547 667.307 364.307C658.668 356.747 645.711 363.227 644.091 376.187C641.932 391.307 650.57 399.947 664.067 396.707C688.362 390.767 720.216 393.467 729.934 402.107C734.793 407.507 739.112 408.587 740.732 406.427C742.165 405.074 743.868 404.038 745.728 403.387C747.589 402.736 749.565 402.483 751.53 402.647C759.088 402.647 759.088 402.647 752.609 410.207C747.211 416.687 746.671 418.847 750.99 424.247C752.678 426.052 754.829 427.36 757.209 428.026C759.59 428.693 762.107 428.693 764.487 428.027C767.179 427.46 769.976 427.666 772.555 428.621C775.135 429.577 777.391 431.243 779.064 433.427C781.546 435.61 784.474 437.225 787.645 438.158C790.816 439.091 794.152 439.319 797.42 438.827C808.218 438.827 809.298 438.827 807.139 447.467C804.979 456.107 806.599 456.107 814.157 455.566C826.575 453.947 832.513 450.167 832.513 440.987C832.513 426.947 843.311 428.567 857.349 443.687C871.386 458.806 877.864 471.226 873.545 475.006C872.466 476.086 875.165 480.406 878.944 484.726C883.864 490.087 887.388 496.579 889.202 503.626C890.282 510.106 893.521 515.506 896.221 515.506C904.319 515.506 910.798 504.706 907.558 496.066C906.828 493.716 906.643 491.23 907.018 488.797C907.392 486.364 908.315 484.049 909.718 482.026C912.957 478.246 913.497 476.626 909.718 476.626C903.239 476.626 904.859 465.286 913.497 454.487C917.891 449.056 920.694 442.514 921.596 435.587C921.596 428.567 923.755 425.867 929.154 425.867C932.933 425.867 945.351 418.307 955.069 408.587C964.787 398.867 973.965 391.307 974.505 391.307L985.303 395.087C998.8 400.487 998.26 412.907 984.223 430.187C975.585 439.907 973.425 446.387 974.505 453.947C975.169 456.794 975.123 459.761 974.369 462.586C973.616 465.411 972.179 468.008 970.186 470.146C967.413 472.613 965.36 475.785 964.247 479.326C962.261 486.254 959.546 492.951 956.149 499.306C951.681 507.168 949.793 516.234 950.75 525.226C952.909 532.246 951.83 536.026 946.971 537.106C946.154 537.353 945.395 537.758 944.736 538.299C944.077 538.841 943.531 539.506 943.13 540.259C942.728 541.011 942.48 541.836 942.398 542.685C942.315 543.534 942.402 544.39 942.651 545.206C943.731 548.446 941.032 552.226 935.093 554.386C929.154 556.546 925.375 559.786 925.375 561.946C925.375 564.106 919.976 568.426 912.957 571.666C901.08 577.066 900 577.066 895.141 571.666C892.442 567.346 890.282 566.266 890.282 567.886C890.282 569.506 887.582 568.966 884.883 566.266C882.184 563.566 878.404 563.026 878.404 565.186C878.404 575.445 884.343 582.466 896.761 587.325C909.178 592.185 911.338 592.185 926.995 585.165C950.21 574.906 965.867 559.786 966.947 547.366C968.026 534.946 972.346 530.626 983.143 533.326C993.941 536.026 998.8 552.226 991.782 559.246C986.383 564.646 986.383 580.845 991.782 580.845C996.437 582.62 1000.54 585.602 1003.66 589.485L1011.76 597.585L1009.06 588.405C1007.25 583.173 1004.08 578.515 999.88 574.906C994.481 570.586 994.481 569.506 1000.42 563.026C1004.47 558.542 1006.94 552.85 1007.44 546.826C1007.44 536.566 992.861 519.286 984.223 518.746C980.427 518.489 976.736 517.382 973.425 515.506C966.947 511.726 973.425 493.906 984.223 481.486C987.063 478.73 989.188 475.321 990.411 471.557C991.634 467.793 991.919 463.786 991.242 459.886C989.622 446.387 995.021 437.747 1003.66 437.747C1008.53 436.602 1013 434.179 1016.62 430.727C1024.72 424.247 1024.71 424.247 1018.78 431.807C1014.91 437.828 1012.51 444.67 1011.76 451.787C1010.68 462.586 1012.3 465.286 1020.4 469.066C1025.79 471.766 1030.65 475.006 1030.65 477.166C1030.65 479.326 1033.35 480.406 1036.05 480.406C1043.61 480.406 1039.83 468.526 1030.11 461.506C1021.48 455.566 1020.4 445.307 1028.49 445.307C1031.73 445.307 1034.43 446.927 1034.43 449.087C1034.43 451.247 1037.13 452.867 1040.91 452.867C1044.69 452.867 1046.31 450.707 1045.23 445.847C1044.15 440.987 1045.23 438.287 1050.63 438.827C1054.41 438.827 1056.57 440.447 1056.03 442.067C1055.49 443.687 1056.03 445.307 1059.81 445.307C1063.59 445.307 1066.83 449.627 1068.45 455.027C1069.07 457.913 1070.45 460.583 1072.44 462.764C1074.43 464.945 1076.97 466.561 1079.78 467.446C1091.12 470.146 1092.2 475.006 1081.4 477.706C1076 478.786 1073.85 483.106 1073.85 490.126C1073.85 497.146 1075.46 499.306 1078.16 497.686C1080.86 496.066 1080.32 498.766 1077.08 504.166C1074.63 508.042 1073.32 512.536 1073.31 517.126C1075.04 523.322 1076.3 529.64 1077.08 536.026C1077.62 539.806 1089.5 539.266 1089.5 534.946C1089.3 533.685 1088.8 532.49 1088.05 531.458C1087.3 530.426 1086.32 529.586 1085.18 529.006C1083.02 527.386 1083.02 523.606 1085.18 516.586C1087.53 509.62 1088.81 502.336 1088.96 494.986C1089.09 488.283 1090.56 481.673 1093.28 475.546C1095.98 470.146 1095.98 466.366 1093.28 463.666C1090.68 460.864 1089.14 457.229 1088.96 453.407C1088.52 449.58 1086.58 446.086 1083.56 443.687C1078.7 440.447 1078.16 435.587 1079.78 425.327L1081.94 410.747L1108.94 411.287C1127.83 411.827 1135.93 413.447 1135.93 416.687C1135.93 419.927 1138.09 421.007 1143.49 418.307C1148.89 415.607 1150.51 410.747 1149.43 398.867C1149.43 388.067 1150.51 382.667 1154.83 381.047C1159.15 379.427 1159.15 377.807 1157.53 375.647C1154.83 370.787 1179.66 359.447 1194.24 359.447C1201.26 359.447 1207.2 357.287 1208.82 354.047C1210.98 347.567 1221.78 345.947 1221.78 351.887C1221.78 354.047 1225.02 355.667 1228.79 355.667C1237.43 355.667 1256.87 347.027 1256.87 343.247C1256.87 341.627 1260.65 340.007 1265.51 340.007C1273.61 340.007 1274.69 338.387 1273.07 329.208C1270.91 314.628 1289.8 294.648 1298.44 302.208C1302.76 305.448 1302.76 307.068 1298.44 309.768C1294.12 312.468 1294.66 313.548 1299.52 316.788C1302.78 318.853 1306.48 320.146 1310.32 320.568C1312.48 320.568 1314.64 324.348 1314.64 328.668C1314.64 337.847 1322.2 338.927 1325.43 330.288C1328.67 321.648 1345.95 323.808 1360.53 334.607C1371.33 342.707 1372.95 345.407 1368.63 348.647C1364.31 351.887 1364.85 352.967 1370.25 357.287C1379.96 364.847 1378.88 370.247 1363.77 385.907C1356.21 394.007 1349.73 402.107 1349.73 404.267C1349.73 406.427 1342.17 416.687 1332.45 426.947C1322.74 437.207 1315.18 447.467 1315.18 450.167C1315.18 452.867 1317.34 451.787 1320.58 448.007C1322.2 446.127 1324.19 444.587 1326.41 443.475C1328.63 442.363 1331.05 441.701 1333.53 441.527C1335.96 441.512 1338.32 440.717 1340.27 439.259C1342.21 437.8 1343.64 435.756 1344.33 433.427C1345.95 428.027 1349.73 425.867 1352.43 427.487C1354.4 427.817 1356.43 427.643 1358.31 426.983C1360.2 426.322 1361.89 425.195 1363.23 423.707C1370.79 416.147 1383.74 416.147 1386.44 423.707C1386.85 425.12 1387.6 426.408 1388.64 427.447C1389.68 428.487 1390.97 429.244 1392.38 429.647C1394.54 429.647 1395.62 428.027 1394.54 426.407C1391.3 421.007 1409.66 410.207 1421.54 410.207C1427.39 410.125 1433.1 412.029 1437.73 415.607C1445.29 423.167 1463.65 423.167 1478.22 415.607C1487.94 410.207 1489.02 408.587 1485.78 402.107C1479.84 391.307 1484.16 386.447 1496.58 389.147C1499.35 390.17 1502.37 390.357 1505.25 389.685C1508.12 389.013 1510.74 387.512 1512.78 385.367C1517.1 379.967 1518.72 379.967 1528.97 386.987C1535.99 392.387 1539.77 397.787 1538.69 401.027C1538.4 401.632 1538.28 402.303 1538.33 402.972C1538.39 403.641 1538.62 404.283 1539 404.833C1539.39 405.383 1539.91 405.82 1540.52 406.1C1541.13 406.381 1541.8 406.493 1542.47 406.427C1548.95 406.427 1550.03 412.367 1544.09 416.147C1538.15 419.927 1544.09 426.947 1550.03 424.247C1553.81 422.627 1555.43 424.247 1555.43 429.647C1555.87 432.467 1557.13 435.095 1559.05 437.207C1560.96 439.319 1563.46 440.821 1566.23 441.527C1581.88 448.007 1593.22 446.927 1591.6 440.447C1590.4 434.557 1589.5 428.609 1588.9 422.627C1587.28 411.827 1588.36 410.207 1593.76 412.907C1602.4 418.307 1614.28 413.987 1614.28 405.887C1614.28 396.707 1621.3 394.547 1632.63 399.407C1643.97 404.267 1654.77 396.167 1645.05 390.227C1640.19 386.987 1640.73 385.907 1647.75 384.287C1654.77 382.667 1655.85 380.507 1652.07 371.327C1650.15 366.73 1647.4 362.521 1643.97 358.907C1641.81 357.287 1641.81 352.967 1643.43 349.187C1644.86 346.308 1645.77 343.202 1646.13 340.007C1646.13 338.927 1653.15 334.067 1662.33 329.208C1675.82 322.188 1678.52 321.648 1679.6 326.508C1681.22 333.527 1687.7 334.607 1688.24 327.588C1688.24 324.888 1689.86 327.048 1691.48 332.447C1695.8 347.567 1701.74 343.787 1702.82 325.428C1703.9 311.928 1706.06 308.148 1713.62 304.908C1728.19 299.508 1731.43 300.588 1728.73 308.688C1726.57 315.708 1727.65 315.708 1742.77 312.468C1749.97 310.445 1757.49 309.894 1764.91 310.848C1771.39 313.548 1789.2 298.968 1789.2 291.408C1791.25 284.938 1794.76 279.025 1799.46 274.128C1807.56 264.408 1811.88 262.248 1826.45 262.248C1837.25 262.248 1843.73 264.408 1845.35 268.188C1850.21 280.608 1880.44 271.428 1878.82 257.388C1878.23 251.94 1879.3 246.439 1881.91 241.616C1884.51 236.793 1888.52 232.877 1893.4 230.388C1899.74 227.188 1904.72 221.824 1907.44 215.268C1910.68 207.169 1913.92 204.469 1918.24 205.009C1919.84 205.69 1921.61 205.9 1923.33 205.613C1925.05 205.326 1926.66 204.555 1927.95 203.389C1929.19 202.132 1930.77 201.259 1932.5 200.876C1934.22 200.493 1936.02 200.615 1937.67 201.229C1939.73 201.603 1941.84 201.453 1943.83 200.792C1945.81 200.132 1947.59 198.982 1949.01 197.449C1955.49 189.889 1946.85 180.709 1932.81 180.709C1917.7 180.709 1916.08 171.529 1929.03 157.489C1934.97 151.009 1939.29 145.609 1938.21 145.609C1937.13 145.609 1939.83 140.209 1943.61 133.189C1954.41 114.289 1969.53 102.409 2005.16 84.5895C2011.66 81.2514 2017.81 77.2716 2023.52 72.7096C2027.29 69.4696 2031.61 67.8496 2033.77 69.4696C2035.93 71.0896 2038.63 68.9296 2039.71 65.6897C2039.95 64.81 2040.37 63.9909 2040.95 63.2858C2041.53 62.5807 2042.25 62.0054 2043.07 61.5977C2043.88 61.19 2044.77 60.9589 2045.68 60.9196C2046.59 60.8803 2047.5 61.0337 2048.35 61.3697C2053.21 63.5297 2053.75 62.4497 2052.13 57.5897C2049.97 52.1898 2052.13 51.6498 2073.19 53.2697C2091.54 54.8897 2096.4 54.3497 2096.4 50.0298C2096.4 46.7898 2092.62 44.6298 2086.68 44.6298C2075.88 44.6298 2074.8 42.4698 2083.44 33.8299C2084.89 32.4646 2085.99 30.7708 2086.65 28.8912C2087.31 27.0116 2087.5 25.0013 2087.22 23.03C2086.14 19.79 2088.84 16.55 2093.7 14.9301C2100.57 12.5321 2107.1 9.2656 2113.14 5.21014C2124.48 -2.88979 2123.94 -2.88979 2125.55 14.9301C2125.99 17.906 2127.53 20.6076 2129.87 22.49C2132.03 24.11 2131.49 26.81 2127.71 28.9699C2123.94 31.1299 2123.4 33.8299 2124.48 34.3699C2126.09 37.0699 2140.67 39.7699 2150.39 40.8498C2153.09 40.8498 2154.17 43.0098 2152.55 45.7098C2150.93 48.4098 2152.01 49.4898 2156.33 47.3298C2160.65 45.1698 2162.81 47.3298 2162.81 50.5698C2162.81 53.8097 2161.19 56.5097 2159.03 56.5097C2156.87 56.5097 2155.25 57.5897 2155.79 59.2097C2156.33 60.8297 2151.47 67.8496 2144.99 74.3296C2135.81 84.0495 2132.03 85.6695 2126.63 82.4295C2121.24 79.1895 2119.08 79.7295 2114.22 85.6695C2111 90.4894 2109.14 96.0837 2108.82 101.869C2108.82 108.889 2106.12 111.049 2098.56 111.049C2096.39 111.162 2094.22 110.838 2092.18 110.096C2090.14 109.354 2088.27 108.209 2086.68 106.729C2083.44 101.329 2078.58 102.409 2075.88 109.429C2073.19 116.449 2084.52 126.709 2093.7 124.009C2098.56 122.389 2102.34 126.709 2108.28 138.049C2116.92 155.329 2114.76 165.049 2100.72 173.149C2095.32 175.309 2093.7 179.089 2095.32 183.409C2097.48 188.809 2098.56 188.809 2102.34 183.409C2104.01 181.441 2106.07 179.846 2108.4 178.73C2110.72 177.613 2113.26 177 2115.84 176.929C2120.16 176.929 2123.94 174.769 2123.94 172.609C2123.94 167.749 2140.13 172.069 2143.91 178.009C2145.53 180.169 2147.69 180.169 2149.31 177.469C2152.55 172.069 2179.54 172.609 2183.32 178.549C2187.1 184.489 2171.99 200.149 2164.43 200.149C2157.95 200.149 2157.41 206.629 2163.89 208.788C2166.59 209.868 2169.29 220.668 2169.29 238.488C2169.65 252.319 2171.46 266.073 2174.68 279.528C2176.85 286.267 2178.65 293.116 2180.08 300.048L2185.48 321.648C2189.26 335.147 2189.26 336.227 2180.08 336.227C2168.75 336.227 2159.57 352.427 2158.49 374.567C2157.95 388.067 2156.87 389.687 2152.01 385.367C2147.15 381.047 2146.61 382.667 2148.23 397.247C2149.85 409.127 2149.31 413.447 2145.53 413.447C2137.43 413.447 2135.27 430.187 2142.83 440.447L2159.03 467.446C2168.75 485.266 2182.24 493.906 2182.24 482.026C2182.24 481.199 2182.41 480.379 2182.74 479.621C2183.07 478.863 2183.56 478.182 2184.17 477.623C2184.78 477.064 2185.5 476.638 2186.28 476.374C2187.07 476.109 2187.9 476.011 2188.72 476.086C2193.04 476.086 2194.12 478.246 2193.04 483.106C2191.96 487.966 2193.04 491.746 2201.14 493.906C2205.53 495.155 2210.08 495.702 2214.64 495.526C2218.31 495.325 2221.98 495.876 2225.43 497.146C2234.07 499.846 2235.69 510.646 2227.05 510.646C2226.2 510.777 2225.38 511.077 2224.64 511.531C2223.9 511.984 2223.26 512.581 2222.76 513.286C2222.26 513.99 2221.9 514.789 2221.71 515.634C2221.52 516.479 2221.5 517.354 2221.66 518.206C2221.66 528.466 2236.23 545.746 2244.87 545.746C2246.82 545.566 2248.78 545.979 2250.49 546.93C2252.2 547.882 2253.58 549.327 2254.45 551.078C2255.33 552.828 2255.66 554.802 2255.39 556.741C2255.13 558.68 2254.28 560.494 2252.97 561.946C2249.7 567.682 2248.19 574.257 2248.65 580.845C2248.06 584.941 2248.61 589.118 2250.23 592.925C2251.85 596.732 2254.47 600.025 2257.83 602.445C2266.47 608.925 2267.01 610.005 2262.15 624.045C2257.83 635.925 2257.83 639.165 2261.61 639.165C2268.09 639.165 2283.2 674.805 2283.2 689.925C2283.2 705.044 2273.49 705.044 2259.45 689.925C2251.35 682.273 2242.28 675.736 2232.45 670.485C2200.06 653.205 2139.59 598.125 2139.59 584.625C2139.59 574.366 2131.49 557.626 2126.63 557.626C2124.48 557.626 2124.48 555.466 2127.17 552.766C2134.19 545.746 2133.11 505.246 2126.09 498.766C2122.98 495.767 2121.06 491.736 2120.7 487.426C2120.74 485.587 2120.38 483.761 2119.63 482.08C2118.88 480.399 2117.77 478.905 2116.38 477.706C2113.14 476.086 2113.14 473.386 2116.38 470.146C2119.62 466.906 2118.54 459.886 2113.68 446.927C2108.28 431.807 2107.74 427.487 2112.06 421.007C2117.46 411.827 2115.3 407.507 2095.86 389.687C2092.7 387.194 2090.07 384.094 2088.12 380.571C2086.18 377.047 2084.95 373.17 2084.52 369.167C2084.52 357.287 2079.12 356.207 2071.03 365.927C2062.93 375.647 2064.55 381.587 2073.73 391.307C2078.43 397.129 2081.09 404.341 2081.28 411.827C2081.29 420.154 2082.01 428.464 2083.44 436.667C2085.06 446.387 2084.52 448.547 2079.12 447.467C2074.28 445.771 2070.11 442.55 2067.25 438.287C2060.23 428.567 2053.75 427.487 2053.75 435.587C2053.61 437.067 2052.93 438.442 2051.83 439.442C2050.73 440.442 2049.3 440.993 2047.81 440.987C2045.78 441.305 2043.9 442.261 2042.44 443.717C2040.99 445.172 2040.03 447.053 2039.71 449.087C2038.63 453.406 2035.93 456.646 2034.31 456.646C2028.91 456.646 2025.67 480.406 2030.53 485.806C2032.69 489.046 2035.93 502.006 2037.01 513.886C2038.06 525.557 2040.79 537.016 2045.11 547.906C2050.51 558.706 2050.51 558.706 2058.07 551.686C2062.39 547.906 2065.63 546.826 2065.63 549.526C2063.7 554.692 2060.33 559.192 2055.91 562.486C2051.24 565.991 2047.83 570.917 2046.19 576.526C2046.19 579.766 2043.49 580.846 2038.63 579.766C2033.77 578.685 2029.99 578.685 2028.91 580.845C2027.83 583.005 2022.98 583.545 2018.66 582.465C2013.26 580.846 2011.1 582.465 2011.1 586.785C2011.1 590.025 2009.48 592.725 2007.86 592.185C1996.52 590.565 1991.12 594.345 1988.96 604.605C1986.8 616.485 1981.4 622.425 1966.83 629.985C1964.75 630.989 1962.96 632.509 1961.64 634.4C1960.32 636.29 1959.5 638.489 1959.27 640.785C1959.27 645.645 1958.19 646.185 1954.95 644.025C1951.71 641.865 1945.77 644.025 1936.05 653.205C1914.46 673.185 1908.52 683.985 1911.22 699.104C1912.84 706.124 1912.3 713.144 1911.22 715.304C1910.14 717.464 1907.44 726.104 1907.44 736.904C1907.44 747.704 1904.74 758.504 1902.04 761.744C1899.34 764.984 1898.26 777.944 1898.8 791.984C1899.34 806.024 1897.18 821.143 1894.48 825.463C1891.83 831.042 1890.36 837.109 1890.16 843.283C1890.35 845.415 1890.11 847.562 1889.46 849.601C1888.81 851.64 1887.77 853.531 1886.38 855.163C1885.04 856.495 1884.01 858.103 1883.36 859.875C1882.71 861.647 1882.45 863.541 1882.6 865.423C1882.6 870.823 1885.3 872.983 1893.94 872.983C1898.93 873.531 1903.94 872.182 1907.98 869.203C1909.06 867.043 1914.46 869.743 1919.32 875.683C1926.87 884.323 1929.03 885.403 1929.03 879.463C1929.03 871.363 1937.13 870.283 1937.13 878.923C1937.13 880.427 1937.73 881.869 1938.79 882.932C1939.86 883.996 1941.3 884.593 1942.8 884.593C1944.3 884.593 1945.75 883.996 1946.81 882.932C1947.87 881.869 1948.47 880.427 1948.47 878.923C1948.39 878.122 1948.48 877.312 1948.75 876.553C1949.02 875.794 1949.45 875.104 1950.02 874.534C1950.59 873.965 1951.28 873.53 1952.04 873.262C1952.8 872.993 1953.61 872.898 1954.41 872.983C1960.89 872.983 1962.51 862.723 1956.03 858.943C1948.47 854.623 1961.43 844.903 1972.23 847.063C1995.44 851.923 2007.32 855.703 2007.32 857.863C2010.82 864.337 2015.38 870.178 2020.82 875.143C2029.99 883.783 2034.31 891.343 2032.69 895.123C2029.45 902.683 2038.09 929.143 2045.65 938.323C2052.32 946.902 2058.1 956.128 2062.93 965.862C2073.73 986.382 2073.73 986.922 2071.57 1057.12C2069.95 1131.64 2068.87 1144.6 2064.01 1152.16C2062.09 1156.59 2061.71 1161.53 2062.93 1166.2C2066.17 1178.08 2052.13 1209.4 2038.63 1221.82C2029.99 1229.38 2025.67 1230.46 2011.64 1228.3L1995.44 1226.14L1992.74 1242.34C1991.12 1254.76 1988.96 1258 1982.48 1258C1974.93 1258 1974.92 1258 1981.4 1252.6H1981.94ZM2169.29 1059.28C2163.89 1052.8 2159.57 1044.7 2161.19 1041.46C2162.81 1038.22 2161.19 1036.06 2159.57 1036.06C2155.79 1036.06 2143.91 1014.46 2143.91 1006.9C2143.91 1004.2 2138.51 998.262 2130.95 993.942C2123.02 988.735 2116.67 981.45 2112.6 972.882C2107.52 962.373 2101.37 952.42 2094.24 943.182C2087.16 933.717 2081.02 923.59 2075.88 912.943C2072.29 904.303 2067.79 899.983 2062.39 899.983C2054.29 899.983 2038.63 887.563 2038.63 881.083C2037.74 877.878 2035.85 875.041 2033.23 872.983C2029.91 870.306 2027.77 866.425 2027.29 862.183C2026.54 857.134 2024.28 852.429 2020.82 848.683C2015.42 843.283 2015.42 840.583 2018.66 837.883C2025.67 834.103 2020.28 814.124 2011.64 811.964C2007.32 810.884 2005.16 807.644 2006.24 804.404C2009.48 796.304 2015.42 797.924 2019.74 809.264C2021.8 814.562 2025.88 818.831 2031.07 821.144C2035.39 822.224 2038.63 826.003 2038.63 828.703C2038.88 830.593 2039.68 832.368 2040.92 833.808C2042.17 835.249 2043.82 836.29 2045.65 836.803C2057.53 841.123 2062.39 846.523 2058.61 851.383C2054.29 856.783 2064.01 869.203 2078.58 875.683C2084.52 878.383 2089.38 882.163 2089.38 884.863C2089.51 885.913 2090.03 886.878 2090.82 887.574C2091.62 888.271 2092.64 888.651 2093.7 888.643C2096.4 888.643 2108.82 897.823 2122.32 909.703C2133.83 920.13 2146.51 929.191 2160.11 936.703L2173.61 942.103L2154.71 942.643C2132.03 943.183 2129.87 947.502 2138.51 972.882C2147.15 998.262 2159.03 1017.16 2167.13 1017.16C2172.19 1017.73 2177.03 1019.59 2181.16 1022.56C2183.08 1024.21 2185.32 1025.44 2187.73 1026.19C2190.15 1026.93 2192.69 1027.17 2195.2 1026.88C2203.84 1024.18 2213.56 1044.16 2206 1048.48C2204.73 1049.32 2203.27 1049.82 2201.75 1049.91C2200.24 1050.01 2198.72 1049.7 2197.36 1049.02C2195.74 1047.94 2196.28 1045.24 2199.52 1043.62C2203.3 1041.46 2203.3 1040.38 2199.52 1040.38C2191.42 1040.38 2180.08 1054.42 2183.32 1060.36C2193.04 1075.48 2183.32 1074.94 2169.83 1059.28H2169.29ZM2152.01 1046.32C2152.01 1042 2152.55 1039.84 2154.17 1040.92C2154.83 1042.07 2155.18 1043.37 2155.18 1044.7C2155.18 1046.03 2154.83 1047.33 2154.17 1048.48C2153.09 1051.72 2152.01 1051.18 2152.01 1046.32ZM2260.53 1029.58C2260.53 1018.78 2262.69 1013.38 2267.01 1011.22C2272.41 1009.06 2272.41 1011.22 2270.79 1023.64C2266.47 1045.24 2260.53 1049.02 2260.53 1029.58ZM2275.1 1002.58C2269.71 997.182 2271.87 963.162 2278.34 961.002C2279.96 960.203 2281.31 958.972 2282.27 957.447C2283.22 955.921 2283.73 954.161 2283.74 952.362C2283.74 949.122 2285.9 946.962 2288.06 946.962C2293.46 946.962 2292.92 951.282 2285.9 967.482C2283.07 973.546 2281.95 980.268 2282.66 986.922C2284.82 993.942 2278.88 1006.9 2275.1 1003.12V1002.58ZM2296.16 924.823C2296.16 917.803 2297.24 910.783 2299.4 909.703C2304.26 907.003 2304.26 918.343 2299.4 929.143C2296.7 936.163 2296.16 935.083 2296.16 924.823ZM2308.04 865.423C2308.04 860.023 2309.12 857.323 2310.2 860.023C2311.27 863.175 2311.27 866.591 2310.2 869.743C2308.58 872.983 2308.04 870.823 2308.04 865.423ZM1920.4 845.443C1918.78 843.283 1919.86 841.663 1922.02 841.663C1922.98 841.778 1923.87 842.213 1924.56 842.898C1925.25 843.584 1925.68 844.48 1925.79 845.443C1925.79 847.603 1925.25 849.763 1924.18 849.763C1923.1 849.763 1921.48 848.143 1920.4 845.983V845.443ZM2293.46 794.684C2290.22 789.284 2292.92 787.124 2298.86 790.904C2302.64 793.064 2302.64 795.224 2299.94 796.304C2298.89 796.861 2297.69 797.058 2296.52 796.862C2295.35 796.667 2294.27 796.091 2293.46 795.224V794.684ZM2288.06 767.684C2288.17 766.968 2288.47 766.298 2288.94 765.751C2289.42 765.204 2290.04 764.805 2290.73 764.6C2291.42 764.394 2292.16 764.392 2292.85 764.594C2293.55 764.795 2294.17 765.191 2294.65 765.735C2295.12 766.279 2295.43 766.948 2295.54 767.663C2295.65 768.378 2295.55 769.109 2295.25 769.768C2294.96 770.428 2294.48 770.989 2293.87 771.386C2293.27 771.782 2292.56 771.996 2291.84 772.004C2290.84 772.004 2289.88 771.606 2289.17 770.897C2288.46 770.188 2288.06 769.226 2288.06 768.224V767.684ZM2283.74 746.084C2283.49 743.932 2283.49 741.757 2283.74 739.604C2283.61 735.785 2282.5 732.064 2280.5 728.804C2279.35 727.211 2278.78 725.273 2278.88 723.309C2278.97 721.346 2279.74 719.474 2281.04 718.004C2286.44 712.604 2293.46 712.064 2289.68 717.464C2289.09 718.908 2288.93 720.491 2289.22 722.023C2289.51 723.556 2290.23 724.973 2291.3 726.104C2294 729.344 2293.46 733.664 2289.68 740.684C2286.44 746.084 2284.28 748.784 2283.74 746.624V746.084ZM2031.07 591.105C2031.07 590.565 2032.69 588.405 2034.85 587.325C2037.01 586.245 2038.63 586.785 2038.63 588.945C2038.63 589.948 2038.23 590.909 2037.53 591.618C2036.82 592.327 2035.86 592.725 2034.85 592.725C2032.69 592.725 2031.07 592.725 2031.07 591.105ZM832.513 413.987C832.513 407.507 834.133 402.647 836.293 402.647C838.452 402.647 840.072 408.047 840.072 413.987C840.072 419.927 838.452 425.867 836.293 425.867C834.133 425.867 832.513 420.467 832.513 413.987ZM1371.87 398.867C1370.25 397.247 1371.87 394.547 1375.1 393.467C1378.34 392.387 1381.04 392.387 1381.04 394.547C1381.04 399.947 1374.57 403.187 1371.87 398.867ZM988.002 383.207C984.223 380.507 984.223 379.427 988.002 377.267C993.401 374.027 997.181 376.727 995.021 382.667C993.941 384.827 991.242 385.367 988.542 383.207H988.002ZM815.237 371.327C807.139 361.607 805.519 357.287 809.298 353.507C814.697 346.487 810.378 328.128 802.819 328.128C797.96 328.128 797.421 326.508 800.66 321.108C801.606 319.012 803.264 317.319 805.34 316.33C807.415 315.341 809.774 315.121 811.998 315.708C816.857 316.788 823.875 313.548 830.354 307.608C842.771 295.728 847.091 295.188 857.349 303.288C864.907 308.688 864.907 309.228 848.17 323.808C833.053 337.847 830.894 341.087 828.734 361.607L826.575 384.287L815.237 371.327ZM718.056 368.627C713.737 363.767 715.357 359.987 723.455 355.667C729.934 352.427 732.094 352.427 734.253 357.827C736.953 366.467 724.535 375.107 718.056 368.627ZM1625.07 320.028C1620.76 307.608 1631.55 301.128 1647.21 307.608C1656.39 310.848 1654.77 314.628 1643.43 320.028C1630.47 325.428 1627.23 325.428 1625.07 320.028ZM867.067 301.128C864.367 295.728 864.367 293.568 867.067 293.568C869.766 293.568 870.846 291.408 870.306 288.708C869.766 286.008 871.926 284.388 875.705 284.928C879.484 285.468 882.723 284.928 882.723 282.768C882.723 280.608 888.122 276.828 894.601 274.128C901.08 271.428 905.939 268.188 905.939 266.568C905.939 264.948 910.798 263.868 916.197 263.328C921.805 262.837 927.286 261.376 932.393 259.008C934.869 257.954 937.531 257.41 940.222 257.41C942.912 257.41 945.575 257.954 948.05 259.008C952.117 260.845 956.693 261.227 961.008 260.088C962.72 259.606 964.531 259.602 966.244 260.078C967.958 260.554 969.508 261.492 970.726 262.788C973.965 266.028 983.143 266.568 997.72 264.948C1013.92 263.328 1019.32 264.408 1020.94 268.728C1021.56 269.988 1021.88 271.374 1021.88 272.778C1021.88 274.182 1021.56 275.568 1020.94 276.828C1017.16 280.608 980.444 284.928 975.585 282.228C973.425 280.608 962.627 281.148 951.29 282.768L919.976 287.088C915.097 287.345 910.402 289.035 906.479 291.948C902.889 294.644 898.549 296.154 894.061 296.268C888.709 296.907 883.746 299.389 880.024 303.288C874.625 310.848 871.926 310.848 867.067 301.128ZM1611.04 307.608C1611.04 306.528 1612.66 304.908 1614.82 303.288C1616.98 301.668 1618.6 303.288 1618.6 305.448C1618.6 306.45 1618.2 307.412 1617.49 308.121C1616.78 308.829 1615.82 309.228 1614.82 309.228C1612.66 309.228 1611.04 308.148 1611.04 307.608ZM106.359 300.588C103.673 296.938 101.494 292.942 99.88 288.708C98.8161 286.494 97.1198 284.646 95.0056 283.396C92.8914 282.147 90.4543 281.552 88.0024 281.688C85.7839 281.948 83.5355 281.747 81.3985 281.096C79.2615 280.446 77.2822 279.36 75.5849 277.908C73.9652 275.208 76.6647 274.668 83.1434 276.288C91.2417 278.448 93.4013 277.368 93.4013 270.888C93.4013 268.31 94.4252 265.838 96.2477 264.015C98.0702 262.192 100.542 261.168 103.119 261.168C105.697 261.168 108.169 262.192 109.991 264.015C111.814 265.838 112.837 268.31 112.837 270.888C112.837 272.508 115.537 274.128 118.236 274.128C123.635 274.128 124.715 277.368 123.635 288.708C122.555 303.828 113.377 310.308 106.359 300.588ZM1577.02 295.728C1567.31 291.408 1559.21 273.048 1562.99 264.408C1565.15 257.388 1569.47 256.848 1580.26 262.788C1589.44 268.188 1594.84 264.408 1588.36 257.388C1580.8 250.368 1582.96 248.748 1600.78 248.208C1618.6 247.668 1629.39 253.608 1624.54 262.248C1620.76 268.728 1607.8 267.108 1602.94 259.548C1600.24 254.688 1599.16 254.148 1600.24 258.468C1602.34 262.995 1605.97 266.631 1610.5 268.728L1618.6 273.048L1607.8 280.068C1603.75 283.387 1598.92 285.618 1593.76 286.548C1592.14 286.008 1591.6 288.168 1592.68 291.408C1595.38 298.428 1587.28 300.588 1576.48 295.728H1577.02ZM1263.89 271.968C1267.74 265.774 1270.65 259.04 1272.53 251.988C1272.37 251.381 1272.34 250.747 1272.45 250.13C1272.56 249.512 1272.8 248.926 1273.16 248.412C1273.52 247.899 1273.99 247.469 1274.53 247.154C1275.08 246.839 1275.68 246.646 1276.3 246.588C1276.85 246.583 1277.39 246.695 1277.89 246.918C1278.39 247.141 1278.83 247.468 1279.19 247.879C1279.55 248.289 1279.81 248.772 1279.97 249.295C1280.12 249.818 1280.16 250.368 1280.08 250.908C1280.08 251.453 1280.19 251.993 1280.41 252.491C1280.64 252.989 1280.96 253.433 1281.37 253.792C1281.78 254.151 1282.27 254.417 1282.79 254.572C1283.31 254.726 1283.86 254.766 1284.4 254.688C1290.88 254.688 1300.6 266.028 1298.44 271.428C1295.27 275.536 1290.62 278.247 1285.48 278.988C1278.6 280.628 1271.76 282.428 1264.97 284.388L1256.33 286.548L1263.89 271.968ZM1232.57 256.308C1219.08 249.288 1218 234.708 1230.41 225.528C1241.21 217.968 1246.61 217.968 1243.37 225.528C1241.75 230.388 1243.37 230.928 1248.77 229.308C1257.41 226.608 1262.27 233.088 1258.49 242.268C1256.73 246.539 1255.99 251.161 1256.33 255.768C1257.41 263.868 1247.15 264.408 1232.57 256.308ZM1632.63 243.888C1630.47 240.108 1638.03 233.088 1646.13 232.548C1651.24 231.583 1656.29 230.321 1661.25 228.768C1670.97 226.068 1670.97 226.068 1665.03 235.248C1659.09 244.428 1636.41 250.368 1632.63 243.888ZM1209.36 228.768C1204.5 223.908 1206.66 219.588 1212.6 222.288C1215.84 223.368 1218 226.068 1218 227.688C1218 232.008 1212.6 232.548 1209.36 228.768ZM1216.92 213.648C1213.68 205.549 1220.7 192.049 1227.71 192.049C1229.22 191.973 1230.68 191.477 1231.92 190.619C1233.16 189.76 1234.13 188.572 1234.73 187.189C1236.89 180.709 1240.13 184.489 1243.37 196.369C1246.61 208.249 1242.29 214.188 1229.33 217.968C1222.32 219.588 1218.54 218.508 1216.92 213.648ZM1903.12 194.749C1903.12 193.669 1905.82 192.049 1909.06 190.969C1912.3 189.889 1914.46 190.969 1914.46 192.589C1914.46 194.209 1912.3 196.369 1909.06 196.369C1905.82 196.369 1903.66 195.829 1903.66 194.749H1903.12ZM1033.35 141.289C1032.64 140.132 1032.31 138.779 1032.4 137.422C1032.5 136.065 1033.02 134.773 1033.89 133.729C1038.75 129.409 1049.01 135.889 1045.77 141.289C1045.37 142.626 1044.55 143.799 1043.43 144.633C1042.32 145.467 1040.96 145.918 1039.56 145.918C1038.17 145.918 1036.81 145.467 1035.69 144.633C1034.57 143.799 1033.75 142.626 1033.35 141.289ZM1054.95 141.829C1054.95 139.669 1058.73 138.049 1063.05 138.049C1067.37 138.049 1070.07 139.669 1068.45 141.829C1067.44 143.001 1066.2 143.944 1064.81 144.596C1063.41 145.248 1061.89 145.594 1060.35 145.609C1057.65 145.609 1054.95 143.989 1054.95 141.829ZM1022.02 114.829C1020.4 112.669 1022.02 112.129 1025.79 113.209C1032.27 115.909 1033.35 118.609 1027.95 118.609C1026.74 118.467 1025.58 118.053 1024.55 117.398C1023.52 116.744 1022.66 115.866 1022.02 114.829ZM975.045 99.1694C963.167 96.4694 965.327 94.8494 983.683 93.7694C989.082 93.7694 994.481 95.9294 995.561 98.6294C997.18 103.489 992.861 104.029 975.045 98.6294V99.1694ZM968.026 85.1295C966.544 83.6854 965.592 81.7825 965.327 79.7295C965.327 75.9496 980.444 79.7295 983.143 84.0495C985.843 88.3695 972.346 88.9095 968.026 85.1295ZM1923.64 70.0096C1916.62 55.9697 1917.7 49.4898 1926.33 44.6298C1934.97 39.7699 1935.51 40.8499 1934.43 60.8297C1933.35 78.1096 1929.03 82.4295 1923.64 70.0096Z" fill="#F3F6F8"/>
</mask>
<g mask="url(#mask0_58_151)">
<rect x="-72" y="-19" width="708" height="1098" fill="#F3F6F8"/>
</g>
</svg>
