<svg width="77" height="81" viewBox="0 0 77 81" fill="none" xmlns="http://www.w3.org/2000/svg">
<path d="M62.4953 62.8622C66.4058 66.2107 73.4353 71.2335 76.4612 73.3263C79.4872 75.4192 68.7801 81 68.7801 81C64.5903 76.1167 56.2106 72.4892 56.2106 69.1407C56.2106 64.955 41.5466 53.0957 21.9943 57.9789C7.44886 61.6117 8.32832 56.7586 1.74377 51.0029C-3.84269 46.1196 5.23481 39.5622 11.5193 37.0507C19.8985 33.7021 16.4073 34.2603 17.8045 21.7034C19.2016 9.14643 7.05642 6.31029 9.42465 2.17035C12.2181 -2.71293 24.0889 2.17035 24.0889 2.17035C24.0889 2.17035 46.4343 11.2392 56.2106 20.3081C65.9869 29.377 57.6072 31.4699 56.2106 40.5388C54.814 49.6077 57.6072 58.6766 62.4953 62.8622Z" fill="#F3F6F8"/>
</svg>
