<svg width="1562" height="851" viewBox="0 0 1562 851" fill="none" xmlns="http://www.w3.org/2000/svg">
<mask id="mask0_205_17" style="mask-type:alpha" maskUnits="userSpaceOnUse" x="0" y="0" width="1562" height="851">
<path d="M1339.59 847.347C1344.34 843.694 1344.34 843.329 1339.96 830.178C1337.77 823.47 1334.7 817.082 1330.83 811.183C1327.18 806.069 1326.82 804.243 1329.74 798.398C1331.56 794.745 1334.48 791.458 1335.94 791.092L1343.24 790.727C1349.44 790.362 1352.36 780.864 1348.71 773.924C1347.87 772.581 1347.48 771 1347.61 769.418C1347.74 767.836 1348.39 766.34 1349.44 765.157C1352.73 761.504 1352.36 760.773 1343.97 742.509C1341.42 737.029 1341.05 734.472 1343.61 731.55C1346.16 728.627 1345.79 727.166 1342.51 724.244C1340.17 721.636 1338.87 718.254 1338.86 714.746C1338.86 711.459 1337.77 708.536 1336.67 708.536C1334.48 708.536 1326.82 719.495 1327.55 722.052C1327.55 723.148 1324.99 725.34 1321.35 727.166C1317.62 729.269 1314.77 732.639 1313.32 736.664C1312.59 740.317 1310.76 742.874 1309.67 742.874C1307.43 743.533 1305.41 744.797 1303.83 746.527C1297.99 752.006 1289.96 748.718 1284.49 739.221C1281.21 733.011 1277.92 730.454 1273.18 730.089L1256.39 728.627C1250.92 727.897 1245.81 728.627 1245.44 729.723C1243.25 733.011 1233.77 730.454 1226.1 724.975C1220.89 720.587 1214.97 717.127 1208.59 714.746C1203.48 713.285 1203.48 712.92 1209.32 711.093L1215.52 709.632L1208.59 702.327C1205.74 699.529 1203.5 696.171 1202.02 692.464C1202.02 692.095 1201.95 691.729 1201.8 691.393C1201.65 691.056 1201.42 690.756 1201.15 690.513C1200.87 690.27 1200.54 690.09 1200.19 689.985C1199.84 689.881 1199.47 689.854 1199.1 689.907C1195.37 688.472 1192.01 686.226 1189.25 683.331C1182.68 677.121 1180.85 676.756 1162.61 677.852C1134.15 680.044 1130.86 680.409 1130.86 683.331C1130.86 684.793 1126.85 688.811 1121.74 692.098C1111.16 698.674 1110.06 703.057 1118.09 707.806C1123.56 711.459 1125.02 723.879 1119.91 728.993C1118.09 730.454 1116.63 739.951 1116.27 749.814C1116.27 765.522 1115.54 768.444 1108.97 775.385L1101.67 783.056L1089.99 779.038C1080.5 775.385 1077.58 775.385 1073.94 777.942C1070.29 780.499 1068.1 780.864 1062.26 777.942C1055.69 774.289 1053.87 774.654 1045.47 779.768C1040.72 782.295 1036.89 786.258 1034.53 791.092C1033.43 795.476 1030.88 797.667 1024.67 798.763C1019.61 799.775 1014.94 802.179 1011.17 805.704C1008.62 808.626 1005.33 810.087 1003.87 809.357C998 808.101 991.973 807.732 985.992 808.261C973.585 808.626 969.936 807.896 965.557 803.147C964.34 801.447 962.663 800.13 960.723 799.354C958.783 798.577 956.662 798.372 954.609 798.763C953.057 799.26 951.376 799.161 949.892 798.486C948.408 797.811 947.228 796.608 946.581 795.11C943.297 788.9 924.687 787.805 913.739 794.015C909.876 796.017 905.664 797.257 901.332 797.667C895.859 797.667 881.262 783.056 881.262 777.942C881.262 774.289 868.125 766.252 861.557 766.252C854.988 766.252 837.838 756.39 836.013 751.275C834.553 747.623 834.188 747.623 833.824 752.737C832.972 757.996 830.701 762.922 827.255 766.983C820.322 775.019 818.497 787.074 823.606 791.823C825.431 794.015 824.336 796.572 819.592 801.32C814.118 807.165 811.199 807.896 804.266 806.8C800.141 806.057 796.184 804.572 792.589 802.416C791.823 801.82 790.912 801.438 789.95 801.309C788.989 801.181 788.01 801.311 787.115 801.686C784.196 803.147 777.627 796.206 775.073 789.266C773.978 785.613 771.424 784.517 764.855 785.248C760.111 785.613 755.003 784.517 753.908 783.056C751.718 780.499 747.704 781.229 736.392 785.248C729.395 788.052 722.012 789.776 714.497 790.362C709.389 790.362 707.199 791.092 708.659 794.015C710.118 797.667 706.104 799.859 692.238 802.051C688.393 802.532 684.604 803.389 680.926 804.608C679.831 805.339 676.182 803.147 672.897 799.494C668.865 795.455 663.598 792.883 657.936 792.188C649.908 791.458 648.448 789.996 646.259 782.691C644.799 777.942 642.245 774.289 640.055 774.289C637.866 774.289 636.406 771.001 636.406 766.252C636.406 759.677 634.947 757.485 627.283 753.833C620.715 750.91 617.431 750.18 615.241 752.371C610.862 756.755 602.469 753.102 598.455 745.066C594.441 737.029 586.778 734.837 586.778 741.413C586.781 741.925 586.676 742.432 586.47 742.9C586.264 743.369 585.962 743.789 585.584 744.134C585.205 744.478 584.759 744.739 584.273 744.9C583.787 745.06 583.273 745.117 582.764 745.066C579.48 745.066 578.75 741.413 578.75 728.627C578.612 718.398 577.264 708.221 574.736 698.308C572.182 690.637 571.087 683.697 571.817 682.966C572.547 682.235 569.992 678.948 566.708 674.93C558.68 666.528 558.68 665.067 566.343 662.51C571.452 661.049 570.722 660.318 561.599 658.857C554.301 657.03 550.652 657.396 547.733 660.318C544.084 663.971 534.231 663.606 525.108 659.953C521.459 658.126 521.459 657.396 524.013 655.569C526.568 653.743 526.203 652.647 522.189 649.359C519.71 647.511 516.837 646.261 513.796 645.706C511.971 645.706 511.242 643.515 511.971 641.323C513.066 638.401 511.971 637.67 506.863 637.67C500.294 637.67 497.375 632.921 501.754 628.538C503.408 625.12 504.28 621.376 504.308 617.579C504.673 610.273 503.943 608.447 499.564 608.447C495.691 607.906 492.102 606.11 489.347 603.333C485.333 599.314 482.778 598.949 476.575 600.41C467.817 602.967 444.098 598.949 417.094 590.182C410.68 587.93 404.088 586.22 397.389 585.068C394.207 584.507 391.276 582.976 388.996 580.685C386.442 578.493 383.157 577.032 381.698 578.128C378.049 580.685 376.224 593.835 379.508 597.853C382.063 601.506 382.063 601.506 378.049 598.584C371.115 593.104 361.628 595.661 362.357 602.602C363.087 609.543 355.789 611.004 349.95 605.159C347.031 602.602 346.666 604.063 348.126 612.465C351.045 635.478 351.045 636.209 346.666 636.939C344.112 637.67 339.368 635.113 336.449 631.46C333.529 627.807 329.15 625.25 327.326 625.981C323.312 627.807 318.933 622.328 317.838 613.926C317.672 612.22 316.989 610.606 315.88 609.3C314.771 607.994 313.29 607.059 311.635 606.62C308.103 605.591 305.019 603.404 302.877 600.41C302.162 599.143 301.086 598.118 299.785 597.467C298.485 596.817 297.02 596.569 295.579 596.757C292.228 597.623 288.712 597.623 285.361 596.757C280.617 595.661 278.793 593.47 278.793 587.99C278.793 578.858 275.144 575.57 271.494 582.146C269.305 585.799 268.94 583.607 269.67 574.109C270.4 563.881 269.67 560.959 265.291 558.767C262.737 557.306 260.547 555.114 260.912 552.922C261.642 545.617 260.182 543.06 254.708 543.79C250.33 544.521 248.505 543.06 247.775 538.676C247.045 533.562 245.951 533.197 236.828 534.293C230.624 535.388 226.245 534.658 226.245 533.197C226.245 531.736 221.501 531.005 215.298 531.37C206.175 531.37 203.986 532.831 203.256 537.215C203.012 538.693 202.421 540.093 201.534 541.299C200.646 542.505 199.485 543.484 198.147 544.155C194.133 545.982 190.849 539.772 192.673 534.293C195.228 527.717 190.849 525.16 179.537 526.621C171.144 527.717 168.589 529.178 167.13 533.927C165.67 539.772 155.088 544.886 155.088 539.407C155.088 537.945 153.263 539.407 151.074 542.694C147.789 547.078 147.424 549.269 149.979 552.192C152.533 555.114 151.803 556.21 148.154 558.402C143.775 560.959 143.775 561.324 149.614 566.803C153.628 570.456 155.088 574.109 153.993 578.128C153.211 580.993 152.722 583.93 152.533 586.894C152.533 587.863 152.149 588.792 151.464 589.477C150.78 590.163 149.852 590.547 148.884 590.547C143.775 590.547 143.41 599.68 147.789 602.602C155.088 606.985 137.572 607.716 127.354 603.333C117.502 599.314 115.312 599.314 109.109 602.237C106.414 603.936 103.454 605.171 100.351 605.89C91.9578 604.428 89.4034 606.62 89.7683 613.926C90.1182 617.875 89.225 621.835 87.2139 625.25C84.2946 628.903 84.6595 629.999 89.0385 632.191C91.5929 633.652 94.8771 634.017 95.6069 633.286C96.3367 632.556 97.4315 632.921 97.4315 634.748C97.4315 636.574 93.0525 637.67 86.849 637.67C75.9017 637.67 76.6315 636.574 72.2525 662.144C70.7929 669.45 69.3332 672.007 64.9543 672.007C54.0069 672.007 49.9929 666.893 49.9929 654.839C49.9929 648.629 48.5333 642.419 47.0736 641.688C46.107 640.467 45.4117 639.053 45.0341 637.541C44.6566 636.029 44.6054 634.454 44.8842 632.921C45.9789 614.657 44.8842 610.273 37.221 605.89C31.0175 602.237 29.5579 599.314 28.0982 588.721C27.3684 581.78 25.5438 575.57 23.7193 575.205C20.0702 573.744 13.1368 560.594 13.1368 553.653C12.9016 551.978 12.3272 550.369 11.4487 548.924C10.5702 547.48 9.40621 546.23 8.02806 545.251C4.01403 541.964 2.91929 536.85 1.45965 509.453L0 477.307L6.2035 483.882C12.0421 490.092 13.5017 490.458 18.2456 487.535C19.7317 486.149 21.6877 485.378 23.7193 485.378C25.7508 485.378 27.7068 486.149 29.1929 487.535C33.5719 490.458 34.3017 490.458 34.3017 484.613C34.1762 483.171 34.3373 481.718 34.7757 480.339C35.2142 478.96 35.9212 477.681 36.8561 476.577C38.3157 475.481 39.4105 475.846 39.4105 476.942C39.4105 479.134 51.8175 485.709 55.8315 485.709C59.8455 485.709 57.6561 478.038 53.2771 475.481C48.8982 472.924 49.2631 472.558 52.9122 471.462C58.021 469.271 71.1578 474.019 71.1578 478.038C71.1578 482.056 82.1052 478.038 85.0245 473.654C85.6456 472.632 86.4971 471.769 87.5109 471.134C88.5247 470.5 89.6727 470.112 90.863 470.001C93.0525 470.001 94.5122 468.905 94.5122 467.444C94.5122 465.983 97.0665 464.522 99.9858 463.791C106.554 461.965 107.284 448.449 101.445 437.49C99.2374 433.351 98.3462 428.635 98.8911 423.975C100.351 418.861 98.8911 417.399 92.6876 415.938C86.4841 414.477 85.0245 413.381 85.3894 406.441C86.008 401.508 88.181 396.902 91.5929 393.29C98.5262 387.08 98.5262 385.984 93.0525 378.679C89.4034 372.834 89.4034 372.469 95.6069 369.912C97.6287 369.061 99.4332 367.766 100.886 366.122C102.339 364.477 103.403 362.527 104 360.414C105.46 354.204 104.365 351.647 95.9718 344.341L86.1192 335.209L93.4174 327.538C102.175 317.675 104.365 317.675 105.824 324.981C106.919 328.634 109.474 330.095 115.312 330.095C120.786 330.095 122.975 329.364 121.881 327.172C119.326 323.52 125.895 303.794 132.098 296.853C134.934 293.705 138.421 291.212 142.316 289.548C147.424 287.721 149.249 276.762 144.87 273.84C143.41 273.109 143.045 270.187 143.775 267.63C144.299 266.407 144.439 265.055 144.179 263.75C143.918 262.446 143.269 261.251 142.316 260.324C137.937 257.767 138.666 251.192 143.41 251.192C145.6 251.192 148.884 248.27 150.709 244.617C152.533 240.964 155.088 238.041 156.912 238.041C158.737 238.041 160.561 236.946 160.561 235.484C160.561 234.023 163.116 231.831 166.4 230.005C171.144 227.448 171.509 227.448 170.049 231.101C168.224 236.946 172.603 236.58 176.982 231.101C181.663 226.548 187.095 222.84 193.038 220.142C206.54 213.932 213.109 215.028 218.582 224.891C222.961 233.658 226.245 230.736 224.421 219.777C223.326 212.471 223.691 208.818 225.88 208.818C228.07 208.818 228.435 207.722 227.34 206.261C226.245 204.8 227.34 203.704 230.624 204.8C245.047 208.711 259.852 211.038 274.779 211.74C285.726 211.74 295.579 205.896 293.024 200.782C290.47 195.668 294.484 188.362 300.322 187.266C303.607 186.901 305.796 185.074 305.431 183.248C305.066 181.421 307.256 179.96 310.175 179.96C313.094 179.96 315.284 178.134 315.284 175.577C315.284 170.828 326.231 164.253 332.8 164.253C334.624 164.253 338.273 160.6 340.828 156.947C347.396 147.084 352.505 143.431 360.168 143.066C369.291 143.066 372.21 140.509 374.4 131.011C375.859 123.705 377.684 122.609 385.347 121.148C388.239 120.449 391.251 120.415 394.158 121.047C397.066 121.68 399.792 122.963 402.133 124.801C405.782 127.724 409.796 129.185 410.526 128.454C411.256 127.724 413.445 129.185 415.27 131.376C417.094 133.568 417.824 136.125 416.364 137.221C412.715 139.778 409.796 151.102 412.715 151.102C414.175 151.102 416.364 153.659 418.189 156.947C421.838 164.253 421.473 219.046 417.459 223.795C413.725 226.883 409.369 229.126 404.687 230.37C396.659 232.927 393.74 232.562 388.266 229.274C378.778 222.699 370.021 196.398 370.021 172.654C370.021 165.348 365.642 167.54 361.628 177.038C358.724 182.423 357.218 188.452 357.249 194.572C357.232 196.405 356.617 198.183 355.497 199.635C354.377 201.086 352.814 202.13 351.045 202.608C341.193 205.896 333.529 214.663 333.529 223.43C333.662 227.458 332.512 231.423 330.245 234.754C328.056 236.946 328.056 238.041 330.245 238.041C332.435 238.041 333.894 240.598 333.894 243.156C334.037 244.482 334.602 245.728 335.507 246.708C336.412 247.688 337.609 248.35 338.919 248.596C340.23 248.842 341.584 248.659 342.782 248.074C343.981 247.489 344.959 246.532 345.572 245.347C347.059 242.275 347.808 238.898 347.761 235.484C347.761 231.466 349.586 228.544 352.505 228.179C356.154 227.448 356.884 229.274 356.519 236.215C356.154 254.114 368.196 262.881 373.305 248.27C376.224 240.233 376.224 240.233 390.821 242.06C399.578 243.156 406.877 245.713 409.066 248.27C411.256 250.827 410.891 253.018 409.431 253.384C405.417 255.21 409.431 259.228 415.27 259.228C418.503 259.016 421.568 257.706 423.956 255.514C426.345 253.322 427.915 250.38 428.407 247.174C428.882 245.637 429.788 244.27 431.017 243.234C432.246 242.198 433.747 241.537 435.34 241.329C439.672 240.12 443.506 237.561 446.287 234.023C449.571 230.005 452.856 228.179 455.41 229.274C460.519 231.101 460.519 232.927 457.235 242.06C455.045 247.539 453.585 248.635 451.031 246.443C445.192 241.329 436.435 245.713 435.34 254.48C433.88 264.708 439.719 270.552 448.842 268.361C465.263 264.342 486.792 266.169 493.361 272.014C496.645 275.666 499.564 276.397 500.659 274.936C501.628 274.021 502.779 273.32 504.036 272.879C505.294 272.439 506.63 272.268 507.957 272.379C513.066 272.379 513.066 272.379 508.687 277.493C505.038 281.876 504.673 283.338 507.592 286.99C508.733 288.212 510.187 289.096 511.796 289.547C513.405 289.998 515.106 289.998 516.715 289.548C518.534 289.164 520.425 289.303 522.168 289.95C523.912 290.596 525.437 291.723 526.568 293.2C528.245 294.678 530.224 295.77 532.368 296.401C534.511 297.032 536.766 297.186 538.975 296.853C546.273 296.853 547.003 296.853 545.543 302.698C544.084 308.543 545.178 308.543 550.287 308.177C558.68 307.081 562.694 304.524 562.694 298.314C562.694 288.817 569.992 289.913 579.48 300.141C588.968 310.369 593.347 318.771 590.427 321.328C589.698 322.058 591.522 324.981 594.076 327.903C597.402 331.53 599.783 335.921 601.01 340.688C601.74 345.072 603.929 348.725 605.754 348.725C611.227 348.725 615.606 341.419 613.417 335.574C612.923 333.984 612.798 332.302 613.051 330.657C613.304 329.011 613.928 327.445 614.876 326.077C617.066 323.52 617.431 322.424 614.876 322.424C610.498 322.424 611.592 314.753 617.431 307.447C620.401 303.773 622.295 299.348 622.905 294.662C622.905 289.913 624.364 288.086 628.013 288.086C630.568 288.086 638.961 282.972 645.529 276.397C652.097 269.822 658.301 264.708 658.666 264.708L665.964 267.265C675.087 270.918 674.722 279.319 665.234 291.009C659.396 297.584 657.936 301.967 658.666 307.081C659.115 309.008 659.083 311.015 658.574 312.926C658.065 314.837 657.094 316.593 655.747 318.04C653.872 319.709 652.485 321.855 651.733 324.25C650.39 328.936 648.555 333.467 646.259 337.766C643.239 343.084 641.963 349.217 642.61 355.3C644.069 360.049 643.34 362.606 640.055 363.336C639.504 363.503 638.99 363.778 638.545 364.144C638.099 364.51 637.731 364.96 637.459 365.469C637.188 365.978 637.02 366.536 636.964 367.11C636.909 367.684 636.967 368.264 637.136 368.816C637.866 371.007 636.041 373.564 632.027 375.026C628.013 376.487 625.459 378.679 625.459 380.14C625.459 381.601 621.81 384.523 617.066 386.715C609.038 390.368 608.308 390.368 605.024 386.715C603.199 383.793 601.74 383.062 601.74 384.158C601.74 385.254 599.915 384.889 598.09 383.062C596.266 381.236 593.712 380.87 593.712 382.331C593.712 389.272 597.726 394.021 606.119 397.308C614.512 400.596 615.971 400.596 626.554 395.847C642.245 388.907 652.827 378.679 653.557 370.277C654.287 361.875 657.206 358.953 664.504 360.779C671.803 362.606 675.087 373.564 670.343 378.313C666.694 381.966 666.694 392.925 670.343 392.925C673.49 394.126 676.261 396.143 678.371 398.77L683.845 404.249L682.02 398.039C680.795 394.499 678.655 391.348 675.817 388.907C672.168 385.984 672.168 385.254 676.182 380.87C678.921 377.838 680.588 373.987 680.926 369.912C680.926 362.971 671.073 351.282 665.234 350.916C662.668 350.743 660.174 349.994 657.936 348.725C653.557 346.168 657.936 334.113 665.234 325.711C667.154 323.847 668.59 321.541 669.416 318.994C670.243 316.448 670.436 313.738 669.978 311.1C668.883 301.967 672.533 296.123 678.371 296.123C681.661 295.349 684.684 293.709 687.129 291.374C692.603 286.99 692.603 286.99 688.589 292.105C685.977 296.178 684.352 300.806 683.845 305.62C683.115 312.926 684.21 314.753 689.683 317.31C693.333 319.136 696.617 321.328 696.617 322.789C696.617 324.25 698.441 324.981 700.266 324.981C705.375 324.981 702.82 316.944 696.252 312.196C690.413 308.177 689.683 301.237 695.157 301.237C697.347 301.237 699.171 302.333 699.171 303.794C699.171 305.255 700.996 306.351 703.55 306.351C706.104 306.351 707.199 304.89 706.469 301.602C705.74 298.314 706.469 296.488 710.118 296.853C712.673 296.853 714.132 297.949 713.768 299.045C713.403 300.141 713.768 301.237 716.322 301.237C718.876 301.237 721.066 304.159 722.161 307.812C722.584 309.765 723.516 311.571 724.862 313.046C726.207 314.522 727.919 315.615 729.824 316.214C737.487 318.04 738.217 321.328 730.918 323.154C727.269 323.885 725.81 326.807 725.81 331.556C725.81 336.305 726.904 337.766 728.729 336.67C730.553 335.574 730.189 337.401 727.999 341.054C726.338 343.676 725.452 346.715 725.445 349.821C726.616 354.012 727.47 358.286 727.999 362.606C728.364 365.163 736.392 364.797 736.392 361.875C736.256 361.022 735.921 360.214 735.414 359.516C734.906 358.817 734.241 358.249 733.473 357.857C732.013 356.761 732.013 354.204 733.473 349.455C735.061 344.743 735.922 339.816 736.027 334.844C736.114 330.309 737.106 325.838 738.946 321.693C740.771 318.04 740.771 315.483 738.946 313.657C737.185 311.761 736.151 309.302 736.027 306.716C735.726 304.128 734.414 301.764 732.378 300.141C729.094 297.949 728.729 294.662 729.824 287.721L731.283 277.858L749.529 278.223C762.301 278.589 767.774 279.685 767.774 281.876C767.774 284.068 769.234 284.799 772.883 282.972C776.532 281.146 777.627 277.858 776.897 269.822C776.897 262.516 777.627 258.863 780.546 257.767C783.466 256.671 783.466 255.575 782.371 254.114C780.546 250.827 797.332 243.156 807.185 243.156C811.929 243.156 815.943 241.694 817.038 239.503C818.497 235.119 825.796 234.023 825.796 238.041C825.796 239.503 827.985 240.598 830.539 240.598C836.378 240.598 849.515 234.754 849.515 232.197C849.515 231.101 852.069 230.005 855.353 230.005C860.827 230.005 861.557 228.909 860.462 222.699C859.002 212.836 871.774 199.321 877.613 204.435C880.532 206.626 880.532 207.722 877.613 209.549C874.694 211.375 875.059 212.106 878.343 214.298C880.549 215.695 883.046 216.569 885.641 216.855C887.101 216.855 888.56 219.412 888.56 222.334C888.56 228.544 893.669 229.274 895.859 223.43C898.048 217.585 909.725 219.046 919.578 226.352C926.876 231.831 927.971 233.658 925.052 235.85C922.132 238.041 922.497 238.772 926.146 241.694C932.715 246.808 931.985 250.461 921.767 261.055C916.659 266.534 912.28 272.014 912.28 273.475C912.28 274.936 907.171 281.876 900.602 288.817C894.034 295.757 888.925 302.698 888.925 304.524C888.925 306.351 890.385 305.62 892.574 303.063C893.674 301.792 895.014 300.75 896.517 299.998C898.02 299.246 899.656 298.798 901.332 298.68C902.975 298.67 904.571 298.132 905.885 297.146C907.199 296.159 908.161 294.776 908.63 293.2C909.725 289.548 912.28 288.086 914.104 289.182C915.437 289.405 916.805 289.288 918.081 288.841C919.357 288.394 920.499 287.632 921.402 286.625C926.511 281.511 935.269 281.511 937.094 286.625C937.366 287.581 937.878 288.452 938.58 289.155C939.282 289.859 940.152 290.371 941.108 290.643C942.567 290.643 943.297 289.548 942.567 288.452C940.378 284.799 952.785 277.493 960.813 277.493C964.769 277.438 968.628 278.725 971.76 281.146C976.869 286.26 989.276 286.26 999.129 281.146C1005.7 277.493 1006.43 276.397 1004.24 272.014C1000.22 264.708 1003.14 261.42 1011.54 263.247C1013.41 263.938 1015.45 264.065 1017.39 263.611C1019.34 263.156 1021.11 262.141 1022.48 260.69C1025.4 257.037 1026.5 257.037 1033.43 261.785C1038.17 265.438 1040.73 269.091 1040 271.283C1039.8 271.692 1039.72 272.146 1039.75 272.599C1039.79 273.051 1039.95 273.486 1040.21 273.858C1040.47 274.23 1040.82 274.526 1041.23 274.715C1041.65 274.905 1042.1 274.981 1042.55 274.936C1046.93 274.936 1047.66 278.954 1043.65 281.511C1039.63 284.068 1043.65 288.817 1047.66 286.99C1050.22 285.895 1051.31 286.99 1051.31 290.643C1051.61 292.551 1052.46 294.329 1053.76 295.758C1055.05 297.186 1056.74 298.202 1058.61 298.68C1069.19 303.063 1076.85 302.333 1075.76 297.949C1074.95 293.965 1074.34 289.941 1073.94 285.895C1072.84 278.589 1073.57 277.493 1077.22 279.319C1083.06 282.972 1091.09 280.05 1091.09 274.571C1091.09 268.361 1095.83 266.899 1103.49 270.187C1111.16 273.475 1118.45 267.995 1111.89 263.977C1108.6 261.785 1108.97 261.055 1113.71 259.959C1118.45 258.863 1119.18 257.402 1116.63 251.192C1115.33 248.082 1113.48 245.235 1111.16 242.79C1109.7 241.694 1109.7 238.772 1110.79 236.215C1111.76 234.267 1112.37 232.166 1112.62 230.005C1112.62 229.274 1117.36 225.987 1123.56 222.699C1132.69 217.95 1134.51 217.585 1135.24 220.873C1136.34 225.622 1140.71 226.352 1141.08 221.603C1141.08 219.777 1142.17 221.238 1143.27 224.891C1146.19 235.119 1150.2 232.562 1150.93 220.142C1151.66 211.01 1153.12 208.453 1158.23 206.261C1168.08 202.608 1170.27 203.339 1168.45 208.818C1166.99 213.567 1167.72 213.567 1177.94 211.375C1182.8 210.007 1187.89 209.634 1192.9 210.279C1197.28 212.106 1209.32 202.243 1209.32 197.129C1210.7 192.752 1213.08 188.753 1216.25 185.44C1221.72 178.864 1224.64 177.403 1234.5 177.403C1241.79 177.403 1246.17 178.864 1247.27 181.421C1250.55 189.823 1270.99 183.613 1269.89 174.115C1269.49 170.43 1270.22 166.708 1271.98 163.446C1273.74 160.183 1276.45 157.534 1279.75 155.851C1284.03 153.686 1287.39 150.058 1289.23 145.623C1291.42 140.143 1293.61 138.317 1296.53 138.682C1297.62 139.144 1298.81 139.285 1299.98 139.091C1301.14 138.897 1302.22 138.375 1303.1 137.586C1303.94 136.736 1305 136.146 1306.17 135.887C1307.33 135.628 1308.55 135.71 1309.67 136.125C1311.06 136.379 1312.49 136.277 1313.83 135.83C1315.17 135.383 1316.37 134.605 1317.33 133.568C1321.71 128.454 1315.87 122.244 1306.38 122.244C1296.17 122.244 1295.07 116.034 1303.83 106.537C1307.84 102.153 1310.76 98.5002 1310.03 98.5002C1309.3 98.5002 1311.13 94.8473 1313.68 90.0985C1320.98 77.3133 1331.2 69.2769 1355.28 57.2223C1359.68 54.9642 1363.83 52.272 1367.69 49.1859C1370.24 46.9942 1373.16 45.8983 1374.62 46.9942C1376.08 48.09 1377.91 46.6289 1378.64 44.4371C1378.8 43.8421 1379.08 43.288 1379.48 42.811C1379.87 42.334 1380.35 41.9449 1380.9 41.669C1381.45 41.3932 1382.06 41.2369 1382.67 41.2103C1383.29 41.1838 1383.9 41.2875 1384.48 41.5148C1387.76 42.976 1388.12 42.2454 1387.03 38.9577C1385.57 35.3048 1387.03 34.9395 1401.26 36.0354C1413.67 37.1313 1416.95 36.766 1416.95 33.8437C1416.95 31.6519 1414.4 30.1908 1410.38 30.1908C1403.09 30.1908 1402.36 28.7296 1408.19 22.8849C1409.17 21.9614 1409.92 20.8155 1410.36 19.544C1410.81 18.2725 1410.94 16.9127 1410.75 15.5791C1410.02 13.3874 1411.84 11.1956 1415.13 10.0997C1419.77 8.47758 1424.18 6.2679 1428.26 3.52451C1435.93 -1.95486 1435.56 -1.95486 1436.66 10.0997C1436.95 12.1128 1437.99 13.9404 1439.58 15.2138C1441.04 16.3097 1440.67 18.1362 1438.12 19.5973C1435.56 21.0585 1435.2 22.8849 1435.93 23.2502C1437.02 25.0767 1446.88 26.9031 1453.44 27.6337C1455.27 27.6337 1456 29.0949 1454.9 30.9213C1453.81 32.7478 1454.54 33.4784 1457.46 32.0172C1460.38 30.5561 1461.84 32.0172 1461.84 34.209C1461.84 36.4007 1460.74 38.2272 1459.28 38.2272C1457.82 38.2272 1456.73 38.9577 1457.09 40.0536C1457.46 41.1495 1454.17 45.8983 1449.79 50.2818C1443.59 56.857 1441.04 57.9529 1437.39 55.7611C1433.74 53.5694 1432.28 53.9347 1428.99 57.9529C1426.82 61.2134 1425.56 64.9978 1425.35 68.9116C1425.35 73.6604 1423.52 75.1216 1418.41 75.1216C1416.95 75.198 1415.48 74.9786 1414.1 74.4766C1412.72 73.9746 1411.46 73.2001 1410.38 72.1992C1408.19 68.5463 1404.91 69.2769 1403.09 74.0257C1401.26 78.7745 1408.92 85.715 1415.13 83.8886C1418.41 82.7927 1420.97 85.715 1424.98 93.3861C1430.82 105.075 1429.36 111.651 1419.87 117.13C1416.22 118.591 1415.13 121.148 1416.22 124.071C1417.68 127.723 1418.41 127.723 1420.97 124.071C1422.09 122.739 1423.49 121.661 1425.06 120.905C1426.63 120.15 1428.35 119.735 1430.09 119.687C1433.01 119.687 1435.56 118.226 1435.56 116.765C1435.56 113.477 1446.51 116.399 1449.06 120.418C1450.16 121.879 1451.62 121.879 1452.71 120.052C1454.9 116.399 1473.15 116.765 1475.7 120.783C1478.26 124.801 1468.04 135.395 1462.93 135.395C1458.55 135.395 1458.19 139.778 1462.57 141.239C1464.39 141.97 1466.22 149.276 1466.22 161.33C1466.46 170.686 1467.69 179.991 1469.86 189.092C1471.33 193.651 1472.55 198.285 1473.51 202.973L1477.16 217.585C1479.72 226.717 1479.72 227.448 1473.51 227.448C1465.85 227.448 1459.65 238.407 1458.92 253.384C1458.55 262.516 1457.82 263.612 1454.54 260.69C1451.25 257.767 1450.89 258.863 1451.98 268.726C1453.08 276.762 1452.71 279.685 1450.16 279.685C1444.69 279.685 1443.23 291.009 1448.34 297.949L1459.28 316.214C1465.85 328.268 1474.97 334.113 1474.97 326.077C1474.97 325.517 1475.09 324.963 1475.31 324.45C1475.53 323.937 1475.86 323.476 1476.28 323.098C1476.69 322.72 1477.17 322.432 1477.7 322.253C1478.23 322.074 1478.8 322.007 1479.35 322.058C1482.27 322.058 1483 323.52 1482.27 326.807C1481.54 330.095 1482.27 332.652 1487.75 334.113C1490.71 334.958 1493.79 335.328 1496.87 335.209C1499.35 335.073 1501.83 335.446 1504.17 336.305C1510.01 338.131 1511.1 345.437 1505.26 345.437C1504.68 345.525 1504.13 345.729 1503.63 346.036C1503.13 346.342 1502.7 346.746 1502.36 347.223C1502.02 347.699 1501.78 348.24 1501.65 348.811C1501.52 349.383 1501.51 349.975 1501.61 350.551C1501.61 357.492 1511.46 369.181 1517.3 369.181C1518.62 369.059 1519.94 369.339 1521.1 369.982C1522.25 370.626 1523.19 371.604 1523.78 372.788C1524.37 373.972 1524.59 375.307 1524.41 376.619C1524.23 377.931 1523.66 379.158 1522.78 380.14C1520.57 384.02 1519.55 388.468 1519.86 392.925C1519.46 395.695 1519.83 398.521 1520.92 401.096C1522.02 403.672 1523.79 405.899 1526.06 407.537C1531.9 411.92 1532.26 412.651 1528.98 422.148C1526.06 430.185 1526.06 432.376 1528.62 432.376C1532.99 432.376 1543.21 456.486 1543.21 466.714C1543.21 476.942 1536.64 476.942 1527.16 466.714C1521.69 461.538 1515.55 457.115 1508.91 453.563C1487.02 441.874 1446.15 404.614 1446.15 395.482C1446.15 388.541 1440.67 377.217 1437.39 377.217C1435.93 377.217 1435.93 375.756 1437.75 373.93C1442.5 369.181 1441.77 341.784 1437.02 337.401C1434.92 335.372 1433.62 332.645 1433.37 329.73C1433.4 328.486 1433.16 327.25 1432.65 326.113C1432.15 324.976 1431.4 323.965 1430.45 323.154C1428.26 322.058 1428.26 320.232 1430.45 318.04C1432.64 315.848 1431.91 311.1 1428.63 302.333C1424.98 292.105 1424.62 289.182 1427.54 284.799C1431.18 278.589 1429.72 275.666 1416.59 263.612C1414.45 261.925 1412.67 259.829 1411.36 257.445C1410.04 255.061 1409.21 252.439 1408.92 249.731C1408.92 241.694 1405.28 240.964 1399.8 247.539C1394.33 254.114 1395.42 258.132 1401.63 264.708C1404.81 268.646 1406.6 273.525 1406.74 278.589C1406.74 284.222 1407.23 289.843 1408.19 295.392C1409.29 301.967 1408.92 303.429 1405.28 302.698C1402 301.551 1399.18 299.372 1397.25 296.488C1392.5 289.913 1388.12 289.182 1388.12 294.662C1388.03 295.663 1387.57 296.593 1386.83 297.27C1386.08 297.946 1385.11 298.319 1384.11 298.314C1382.74 298.53 1381.47 299.177 1380.48 300.161C1379.5 301.146 1378.85 302.418 1378.64 303.794C1377.91 306.716 1376.08 308.908 1374.99 308.908C1371.34 308.908 1369.15 324.981 1372.43 328.634C1373.89 330.825 1376.08 339.592 1376.81 347.629C1377.52 355.524 1379.36 363.275 1382.29 370.642C1385.94 377.948 1385.94 377.948 1391.04 373.199C1393.96 370.642 1396.15 369.912 1396.15 371.738C1394.85 375.233 1392.57 378.277 1389.58 380.505C1386.43 382.876 1384.12 386.209 1383.02 390.003C1383.02 392.194 1381.19 392.925 1377.91 392.194C1374.62 391.464 1372.07 391.464 1371.34 392.925C1370.61 394.386 1367.32 394.751 1364.41 394.021C1360.76 392.925 1359.3 394.021 1359.3 396.943C1359.3 399.135 1358.2 400.961 1357.11 400.596C1349.44 399.5 1345.79 402.057 1344.34 408.998C1342.88 417.034 1339.23 421.052 1329.37 426.166C1327.97 426.845 1326.76 427.874 1325.87 429.153C1324.97 430.432 1324.42 431.919 1324.27 433.472C1324.27 436.76 1323.54 437.125 1321.35 435.664C1319.16 434.203 1315.14 435.664 1308.57 441.874C1293.98 455.39 1289.96 462.695 1291.79 472.924C1292.88 477.672 1292.52 482.421 1291.79 483.882C1291.06 485.344 1289.23 491.188 1289.23 498.494C1289.23 505.8 1287.41 513.106 1285.58 515.297C1283.76 517.489 1283.03 526.256 1283.39 535.754C1283.76 545.251 1282.3 555.479 1280.48 558.402C1278.68 562.176 1277.69 566.28 1277.56 570.456C1277.68 571.898 1277.52 573.351 1277.08 574.73C1276.64 576.11 1275.94 577.388 1275 578.493C1274.1 579.393 1273.4 580.481 1272.96 581.68C1272.52 582.879 1272.34 584.16 1272.45 585.433C1272.45 589.086 1274.27 590.547 1280.11 590.547C1283.48 590.918 1286.87 590.005 1289.6 587.99C1290.33 586.529 1293.98 588.356 1297.26 592.374C1302.37 598.218 1303.83 598.949 1303.83 594.931C1303.83 589.451 1309.3 588.721 1309.3 594.566C1309.3 595.583 1309.71 596.558 1310.43 597.278C1311.14 597.997 1312.12 598.401 1313.14 598.401C1314.15 598.401 1315.13 597.997 1315.84 597.278C1316.56 596.558 1316.97 595.583 1316.97 594.566C1316.91 594.024 1316.97 593.476 1317.16 592.962C1317.34 592.449 1317.63 591.982 1318.02 591.597C1318.4 591.212 1318.87 590.917 1319.38 590.736C1319.89 590.554 1320.44 590.49 1320.98 590.547C1325.36 590.547 1326.45 583.607 1322.08 581.05C1316.97 578.128 1325.72 571.552 1333.02 573.013C1348.71 576.301 1356.74 578.858 1356.74 580.319C1359.11 584.698 1362.19 588.65 1365.86 592.009C1372.07 597.853 1374.99 602.967 1373.89 605.524C1371.7 610.638 1377.54 628.538 1382.65 634.748C1387.16 640.551 1391.07 646.792 1394.33 653.377C1401.63 667.259 1401.63 667.624 1400.17 715.112C1399.07 765.522 1398.34 774.289 1395.06 779.403C1393.76 782.398 1393.5 785.742 1394.33 788.9C1396.52 796.937 1387.03 818.124 1377.91 826.525C1372.07 831.64 1369.15 832.37 1359.66 830.909L1348.71 829.448L1346.89 840.407C1345.79 848.808 1344.34 851 1339.96 851C1334.85 851 1334.85 851 1339.23 847.347H1339.59ZM1466.22 716.573C1462.57 712.189 1459.65 706.71 1460.74 704.518C1461.84 702.326 1460.74 700.865 1459.65 700.865C1457.09 700.865 1449.06 686.254 1449.06 681.14C1449.06 679.313 1445.42 675.295 1440.31 672.373C1434.95 668.85 1430.66 663.922 1427.9 658.126C1424.47 651.017 1420.31 644.284 1415.49 638.035C1410.71 631.632 1406.55 624.782 1403.09 617.579C1400.65 611.734 1397.61 608.812 1393.96 608.812C1388.49 608.812 1377.91 600.41 1377.91 596.027C1377.3 593.859 1376.03 591.939 1374.26 590.547C1372.01 588.737 1370.57 586.111 1370.24 583.242C1369.74 579.826 1368.21 576.643 1365.86 574.109C1362.22 570.456 1362.22 568.63 1364.41 566.803C1369.15 564.246 1365.5 550.731 1359.66 549.269C1356.74 548.539 1355.28 546.347 1356.01 544.155C1358.2 538.676 1362.22 539.772 1365.14 547.443C1366.53 551.027 1369.29 553.915 1372.8 555.479C1375.72 556.21 1377.91 558.767 1377.91 560.594C1378.07 561.872 1378.61 563.073 1379.46 564.047C1380.3 565.021 1381.41 565.726 1382.65 566.073C1390.68 568.995 1393.96 572.648 1391.41 575.936C1388.49 579.589 1395.06 587.99 1404.91 592.374C1408.92 594.2 1412.21 596.757 1412.21 598.584C1412.3 599.294 1412.64 599.947 1413.18 600.418C1413.72 600.889 1414.41 601.146 1415.13 601.141C1416.95 601.141 1425.35 607.351 1434.47 615.387C1442.25 622.441 1450.82 628.57 1460.01 633.652L1469.14 637.305L1456.36 637.67C1441.04 638.035 1439.58 640.958 1445.42 658.126C1451.25 675.295 1459.28 688.08 1464.76 688.08C1468.18 688.463 1471.45 689.721 1474.24 691.733C1475.54 692.848 1477.05 693.683 1478.68 694.185C1480.32 694.688 1482.03 694.848 1483.73 694.655C1489.57 692.829 1496.14 706.345 1491.03 709.267C1490.17 709.837 1489.18 710.17 1488.16 710.234C1487.13 710.299 1486.11 710.091 1485.19 709.632C1484.1 708.902 1484.46 707.075 1486.65 705.979C1489.21 704.518 1489.21 703.788 1486.65 703.788C1481.18 703.788 1473.51 713.285 1475.7 717.303C1482.27 727.532 1475.7 727.166 1466.58 716.573H1466.22ZM1454.54 707.806C1454.54 704.884 1454.9 703.422 1456 704.153C1456.45 704.93 1456.68 705.812 1456.68 706.71C1456.68 707.608 1456.45 708.49 1456 709.267C1455.27 711.459 1454.54 711.093 1454.54 707.806ZM1527.89 696.482C1527.89 689.176 1529.35 685.523 1532.26 684.062C1535.91 682.601 1535.91 684.062 1534.82 692.464C1531.9 707.075 1527.89 709.632 1527.89 696.482ZM1537.74 678.217C1534.09 674.564 1535.55 651.551 1539.93 650.09C1541.02 649.549 1541.93 648.716 1542.58 647.684C1543.22 646.653 1543.57 645.462 1543.58 644.245C1543.58 642.053 1545.04 640.592 1546.5 640.592C1550.15 640.592 1549.78 643.515 1545.04 654.473C1543.12 658.575 1542.37 663.123 1542.85 667.624C1544.31 672.373 1540.29 681.14 1537.74 678.583V678.217ZM1551.97 625.615C1551.97 620.867 1552.7 616.118 1554.16 615.387C1557.44 613.561 1557.44 621.232 1554.16 628.538C1552.33 633.286 1551.97 632.556 1551.97 625.615V625.615ZM1560 585.433C1560 581.78 1560.73 579.954 1561.46 581.78C1562.18 583.912 1562.18 586.224 1561.46 588.356C1560.36 590.547 1560 589.086 1560 585.433ZM1297.99 571.918C1296.9 570.456 1297.63 569.36 1299.09 569.36C1299.74 569.438 1300.34 569.732 1300.81 570.196C1301.27 570.66 1301.56 571.266 1301.64 571.918C1301.64 573.379 1301.28 574.84 1300.55 574.84C1299.82 574.84 1298.72 573.744 1297.99 572.283V571.918ZM1550.15 537.58C1547.96 533.927 1549.78 532.466 1553.79 535.023C1556.35 536.484 1556.35 537.945 1554.52 538.676C1553.82 539.053 1553 539.186 1552.21 539.054C1551.42 538.922 1550.69 538.532 1550.15 537.945V537.58ZM1546.5 519.316C1546.57 518.832 1546.77 518.378 1547.09 518.008C1547.41 517.638 1547.83 517.368 1548.3 517.229C1548.77 517.09 1549.27 517.089 1549.74 517.225C1550.2 517.361 1550.63 517.629 1550.95 517.997C1551.27 518.365 1551.48 518.818 1551.55 519.302C1551.62 519.785 1551.56 520.279 1551.36 520.726C1551.16 521.172 1550.83 521.552 1550.42 521.82C1550.02 522.088 1549.54 522.233 1549.05 522.238C1548.37 522.238 1547.72 521.969 1547.24 521.489C1546.77 521.009 1546.5 520.359 1546.5 519.681V519.316ZM1543.58 504.704C1543.4 503.248 1543.4 501.777 1543.58 500.32C1543.49 497.737 1542.74 495.22 1541.39 493.015C1540.61 491.937 1540.22 490.626 1540.29 489.298C1540.35 487.969 1540.87 486.703 1541.75 485.709C1545.4 482.056 1550.15 481.691 1547.59 485.344C1547.19 486.32 1547.08 487.391 1547.28 488.427C1547.47 489.464 1547.96 490.423 1548.69 491.188C1550.51 493.38 1550.15 496.302 1547.59 501.051C1545.4 504.704 1543.94 506.53 1543.58 505.069V504.704ZM1372.8 399.865C1372.8 399.5 1373.89 398.039 1375.35 397.308C1376.81 396.578 1377.91 396.943 1377.91 398.404C1377.91 399.082 1377.64 399.733 1377.16 400.212C1376.68 400.692 1376.03 400.961 1375.35 400.961C1373.89 400.961 1372.8 400.961 1372.8 399.865ZM562.694 280.05C562.694 275.666 563.789 272.379 565.248 272.379C566.708 272.379 567.803 276.032 567.803 280.05C567.803 284.068 566.708 288.086 565.248 288.086C563.789 288.086 562.694 284.433 562.694 280.05ZM927.241 269.822C926.146 268.726 927.241 266.899 929.43 266.169C931.62 265.438 933.445 265.438 933.445 266.899C933.445 270.552 929.066 272.744 927.241 269.822ZM667.789 259.228C665.234 257.402 665.234 256.671 667.789 255.21C671.438 253.018 673.992 254.845 672.533 258.863C671.803 260.324 669.978 260.689 668.154 259.228H667.789ZM551.017 251.192C545.543 244.617 544.448 241.694 547.003 239.137C550.652 234.389 547.733 221.969 542.624 221.969C539.34 221.969 538.975 220.873 541.164 217.22C541.803 215.802 542.924 214.657 544.327 213.988C545.73 213.319 547.325 213.17 548.827 213.567C552.112 214.298 556.855 212.106 561.234 208.088C569.627 200.051 572.547 199.686 579.48 205.165C584.589 208.818 584.589 209.183 573.277 219.046C563.059 228.544 561.599 230.736 560.14 244.617L558.68 259.959L551.017 251.192ZM485.333 249.365C482.413 246.078 483.508 243.521 488.982 240.598C493.361 238.407 494.82 238.407 496.28 242.06C498.105 247.904 489.712 253.749 485.333 249.365ZM1098.38 216.489C1095.47 208.088 1102.76 203.704 1113.35 208.088C1119.55 210.279 1118.45 212.836 1110.79 216.489C1102.03 220.142 1099.84 220.142 1098.38 216.489V216.489ZM586.048 203.704C584.224 200.051 584.224 198.59 586.048 198.59C587.873 198.59 588.603 197.129 588.238 195.302C587.873 193.476 589.333 192.38 591.887 192.745C594.441 193.111 596.631 192.745 596.631 191.284C596.631 189.823 600.28 187.266 604.659 185.44C609.038 183.613 612.322 181.421 612.322 180.325C612.322 179.23 615.606 178.499 619.255 178.134C623.046 177.802 626.75 176.813 630.203 175.211C631.876 174.498 633.675 174.13 635.494 174.13C637.312 174.13 639.112 174.498 640.785 175.211C643.534 176.454 646.627 176.712 649.543 175.942C650.7 175.616 651.924 175.613 653.083 175.935C654.241 176.257 655.288 176.891 656.112 177.768C658.301 179.96 664.504 180.325 674.357 179.23C685.304 178.134 688.954 178.864 690.048 181.787C690.467 182.639 690.685 183.576 690.685 184.526C690.685 185.476 690.467 186.413 690.048 187.266C687.494 189.823 662.68 192.745 659.396 190.919C657.936 189.823 650.638 190.188 642.975 191.284L621.81 194.206C618.512 194.38 615.339 195.524 612.687 197.494C610.261 199.318 607.327 200.339 604.294 200.416C600.677 200.849 597.322 202.528 594.806 205.165C591.157 210.279 589.333 210.279 586.048 203.704ZM1088.9 208.088C1088.9 207.357 1089.99 206.261 1091.45 205.165C1092.91 204.069 1094.01 205.165 1094.01 206.626C1094.01 207.305 1093.74 207.955 1093.26 208.434C1092.78 208.914 1092.13 209.183 1091.45 209.183C1089.99 209.183 1088.9 208.453 1088.9 208.088V208.088ZM71.8876 203.339C70.0725 200.87 68.5995 198.167 67.5087 195.302C66.7896 193.805 65.6431 192.554 64.2141 191.709C62.7851 190.864 61.1379 190.462 59.4806 190.554C57.9811 190.73 56.4614 190.594 55.0171 190.153C53.5727 189.713 52.2349 188.979 51.0877 187.997C49.9929 186.17 51.8175 185.805 56.1964 186.901C61.6701 188.362 63.1297 187.631 63.1297 183.248C63.1297 181.504 63.8218 179.831 65.0536 178.598C66.2854 177.365 67.9561 176.673 69.6982 176.673C71.4402 176.673 73.1109 177.365 74.3427 178.598C75.5745 179.831 76.2666 181.504 76.2666 183.248C76.2666 184.344 78.0911 185.44 79.9157 185.44C83.5648 185.44 84.2946 187.631 83.5648 195.302C82.835 205.531 76.6315 209.914 71.8876 203.339V203.339ZM1065.91 200.051C1059.34 197.129 1053.87 184.709 1056.42 178.864C1057.88 174.115 1060.8 173.75 1068.1 177.768C1074.3 181.421 1077.95 178.864 1073.57 174.115C1068.46 169.367 1069.92 168.271 1081.96 167.906C1094.01 167.54 1101.3 171.558 1098.02 177.403C1095.47 181.787 1086.71 180.691 1083.42 175.577C1081.6 172.289 1080.87 171.924 1081.6 174.846C1083.02 177.909 1085.47 180.368 1088.53 181.787L1094.01 184.709L1086.71 189.458C1083.97 191.703 1080.7 193.212 1077.22 193.841C1076.13 193.476 1075.76 194.937 1076.49 197.129C1078.31 201.878 1072.84 203.339 1065.54 200.051H1065.91ZM854.259 183.978C856.865 179.788 858.833 175.233 860.097 170.463C859.989 170.052 859.972 169.623 860.047 169.206C860.121 168.788 860.286 168.391 860.529 168.044C860.772 167.696 861.088 167.406 861.454 167.193C861.821 166.979 862.229 166.849 862.652 166.81C863.02 166.806 863.385 166.882 863.721 167.033C864.058 167.183 864.358 167.405 864.6 167.683C864.843 167.96 865.023 168.287 865.127 168.641C865.232 168.995 865.259 169.367 865.206 169.732C865.202 170.101 865.278 170.466 865.429 170.803C865.579 171.14 865.801 171.44 866.078 171.683C866.355 171.926 866.682 172.105 867.035 172.21C867.389 172.315 867.761 172.342 868.125 172.289C872.504 172.289 879.073 179.96 877.613 183.613C875.468 186.392 872.327 188.226 868.855 188.727C864.205 189.836 859.582 191.054 854.988 192.38L849.15 193.841L854.259 183.978ZM833.094 173.385C823.971 168.636 823.241 158.773 831.634 152.563C838.932 147.449 842.581 147.449 840.392 152.563C839.297 155.851 840.392 156.216 844.041 155.12C849.88 153.294 853.164 157.677 850.61 163.887C849.42 166.776 848.92 169.903 849.15 173.02C849.88 178.499 842.946 178.864 833.094 173.385ZM1103.49 164.983C1102.03 162.426 1107.14 157.677 1112.62 157.312C1116.07 156.659 1119.48 155.805 1122.83 154.755C1129.4 152.929 1129.4 152.929 1125.39 159.139C1121.37 165.348 1106.05 169.367 1103.49 164.983ZM817.403 154.755C814.118 151.467 815.578 148.545 819.592 150.372C821.781 151.102 823.241 152.929 823.241 154.024C823.241 156.947 819.592 157.312 817.403 154.755ZM822.511 144.527C820.322 139.048 825.066 129.915 829.81 129.915C830.828 129.864 831.811 129.529 832.649 128.948C833.487 128.367 834.147 127.563 834.553 126.628C836.013 122.244 838.203 124.801 840.392 132.838C842.581 140.874 839.662 144.892 830.904 147.449C826.16 148.545 823.606 147.815 822.511 144.527V144.527ZM1286.31 131.742C1286.31 131.011 1288.14 129.915 1290.33 129.185C1292.52 128.454 1293.98 129.185 1293.98 130.281C1293.98 131.376 1292.52 132.838 1290.33 132.838C1288.14 132.838 1286.68 132.472 1286.68 131.742H1286.31ZM698.441 95.5779C697.958 94.795 697.733 93.8797 697.799 92.9619C697.864 92.044 698.217 91.17 698.806 90.4638C702.09 87.5415 709.024 91.925 706.834 95.5779C706.565 96.4826 706.011 97.2761 705.255 97.8403C704.499 98.4045 703.581 98.7092 702.638 98.7092C701.695 98.7092 700.777 98.4045 700.021 97.8403C699.265 97.2761 698.711 96.4826 698.441 95.5779V95.5779ZM713.038 95.9432C713.038 94.482 715.592 93.3861 718.511 93.3861C721.431 93.3861 723.255 94.482 722.161 95.9432C721.483 96.7358 720.644 97.3741 719.7 97.8152C718.756 98.2562 717.729 98.4898 716.687 98.5002C714.862 98.5002 713.038 97.4043 713.038 95.9432ZM690.778 77.6786C689.683 76.2174 690.778 75.8522 693.333 76.5827C697.711 78.4092 698.441 80.2357 694.792 80.2357C693.974 80.1393 693.188 79.8593 692.493 79.4166C691.798 78.9738 691.212 78.3797 690.778 77.6786V77.6786ZM659.031 67.0852C651.003 65.2587 652.462 64.1628 664.869 63.4323C668.518 63.4323 672.168 64.8934 672.897 66.7199C673.992 70.0075 671.073 70.3728 659.031 66.7199V67.0852ZM654.287 57.5876C653.285 56.6107 652.642 55.3234 652.462 53.9347C652.462 51.3776 662.68 53.9347 664.504 56.857C666.329 59.7793 657.206 60.1446 654.287 57.5876ZM1300.18 47.3594C1295.44 37.8619 1296.17 33.4784 1302.01 30.1908C1307.84 26.9031 1308.21 27.6337 1307.48 41.1495C1306.75 52.8388 1303.83 55.7611 1300.18 47.3594Z" fill="#F3F6F8"/>
</mask>
<g mask="url(#mask0_205_17)">
<rect x="1165" y="4" width="555" height="853" fill="#F3F6F8"/>
</g>
</svg>
