<svg width="625" height="1080" viewBox="0 0 625 1080" fill="none" xmlns="http://www.w3.org/2000/svg">
<mask id="mask0_260_499" style="mask-type:alpha" maskUnits="userSpaceOnUse" x="0" y="-31" width="2311" height="1258">
<path d="M1981.94 1221.6C1988.96 1216.2 1988.96 1215.66 1982.48 1196.22C1979.25 1186.3 1974.71 1176.86 1968.99 1168.14C1963.59 1160.58 1963.05 1157.88 1967.37 1149.24C1970.07 1143.84 1974.39 1138.98 1976.54 1138.44L1987.34 1137.9C1996.52 1137.36 2000.84 1123.32 1995.44 1113.06C1994.19 1111.08 1993.62 1108.74 1993.81 1106.4C1994.01 1104.06 1994.96 1101.85 1996.52 1100.1C2001.38 1094.7 2000.84 1093.62 1988.42 1066.62C1984.64 1058.52 1984.1 1054.74 1987.88 1050.42C1991.66 1046.1 1991.12 1043.94 1986.26 1039.62C1982.8 1035.77 1980.87 1030.77 1980.86 1025.58C1980.86 1020.72 1979.24 1016.4 1977.62 1016.4C1974.39 1016.4 1963.05 1032.6 1964.13 1036.38C1964.13 1038 1960.35 1041.24 1954.95 1043.94C1949.44 1047.05 1945.22 1052.03 1943.07 1057.98C1941.99 1063.38 1939.29 1067.16 1937.67 1067.16C1934.35 1068.14 1931.36 1070 1929.03 1072.56C1920.4 1080.66 1908.52 1075.8 1900.42 1061.76C1895.56 1052.58 1890.7 1048.8 1883.68 1048.26L1858.85 1046.1C1850.75 1045.02 1843.19 1046.1 1842.65 1047.72C1839.41 1052.58 1825.37 1048.8 1814.04 1040.7C1806.33 1034.22 1797.56 1029.1 1788.12 1025.58C1780.56 1023.42 1780.56 1022.88 1789.2 1020.18L1798.38 1018.02L1788.12 1007.22C1783.91 1003.09 1780.6 998.122 1778.4 992.642C1778.41 992.097 1778.3 991.557 1778.07 991.059C1777.85 990.561 1777.52 990.117 1777.11 989.758C1776.7 989.399 1776.22 989.133 1775.7 988.978C1775.17 988.824 1774.62 988.784 1774.09 988.862C1768.57 986.74 1763.59 983.421 1759.51 979.142C1749.79 969.962 1747.09 969.422 1720.1 971.042C1677.98 974.282 1673.13 974.822 1673.13 979.142C1673.13 981.302 1667.19 987.242 1659.63 992.102C1643.97 1001.82 1642.35 1008.3 1654.23 1015.32C1662.33 1020.72 1664.49 1039.08 1656.93 1046.64C1654.23 1048.8 1652.07 1062.84 1651.53 1077.42C1651.53 1100.64 1650.45 1104.96 1640.73 1115.22L1629.93 1126.56L1612.66 1120.62C1598.62 1115.22 1594.3 1115.22 1588.9 1119C1583.5 1122.78 1580.26 1123.32 1571.63 1119C1561.91 1113.6 1559.21 1114.14 1546.79 1121.7C1539.76 1125.44 1534.1 1131.29 1530.59 1138.44C1528.97 1144.92 1525.19 1148.16 1516.02 1149.78C1508.53 1151.28 1501.62 1154.83 1496.04 1160.04C1492.26 1164.36 1487.4 1166.52 1485.24 1165.44C1476.55 1163.58 1467.64 1163.04 1458.79 1163.82C1440.43 1164.36 1435.03 1163.28 1428.55 1156.26C1426.75 1153.75 1424.27 1151.8 1421.4 1150.65C1418.53 1149.51 1415.39 1149.2 1412.36 1149.78C1410.06 1150.51 1407.57 1150.37 1405.38 1149.37C1403.18 1148.37 1401.44 1146.59 1400.48 1144.38C1395.62 1135.2 1368.09 1133.58 1351.89 1142.76C1346.17 1145.72 1339.94 1147.55 1333.53 1148.16C1325.43 1148.16 1303.84 1126.56 1303.84 1119C1303.84 1113.6 1284.4 1101.72 1274.69 1101.72C1264.97 1101.72 1239.59 1087.14 1236.89 1079.58C1234.73 1074.18 1234.19 1074.18 1233.65 1081.74C1232.39 1089.52 1229.03 1096.8 1223.94 1102.8C1213.68 1114.68 1210.98 1132.5 1218.54 1139.52C1221.24 1142.76 1219.62 1146.54 1212.6 1153.56C1204.5 1162.2 1200.18 1163.28 1189.92 1161.66C1183.82 1160.56 1177.97 1158.37 1172.65 1155.18C1171.51 1154.3 1170.17 1153.73 1168.74 1153.54C1167.32 1153.35 1165.87 1153.55 1164.55 1154.1C1160.23 1156.26 1150.51 1146 1146.73 1135.74C1145.11 1130.34 1141.33 1128.72 1131.61 1129.8C1124.6 1130.34 1117.04 1128.72 1115.42 1126.56C1112.18 1122.78 1106.24 1123.86 1089.5 1129.8C1079.15 1133.95 1068.23 1136.5 1057.11 1137.36C1049.55 1137.36 1046.31 1138.44 1048.47 1142.76C1050.63 1148.16 1044.69 1151.4 1024.18 1154.64C1018.49 1155.35 1012.88 1156.62 1007.44 1158.42C1005.82 1159.5 1000.42 1156.26 995.561 1150.86C989.595 1144.89 981.803 1141.09 973.425 1140.06C961.548 1138.98 959.388 1136.82 956.149 1126.02C953.989 1119 950.21 1113.6 946.971 1113.6C943.731 1113.6 941.572 1108.74 941.572 1101.72C941.572 1092 939.412 1088.76 928.074 1083.36C918.356 1079.04 913.497 1077.96 910.258 1081.2C903.779 1087.68 891.362 1082.28 885.423 1070.4C879.484 1058.52 868.146 1055.28 868.146 1065C868.15 1065.76 867.995 1066.51 867.69 1067.2C867.386 1067.89 866.939 1068.51 866.379 1069.02C865.819 1069.53 865.158 1069.92 864.44 1070.16C863.721 1070.39 862.961 1070.48 862.208 1070.4C857.349 1070.4 856.269 1065 856.269 1046.1C856.064 1030.98 854.07 1015.94 850.33 1001.28C846.551 989.942 844.931 979.682 846.011 978.602C847.091 977.522 843.311 972.662 838.452 966.722C826.575 954.302 826.575 952.142 837.912 948.362C845.471 946.202 844.391 945.122 830.894 942.962C820.096 940.262 814.697 940.802 810.378 945.122C804.979 950.522 790.402 949.982 776.905 944.582C771.506 941.882 771.506 940.802 775.285 938.102C779.064 935.402 778.524 933.782 772.586 928.922C768.917 926.19 764.668 924.342 760.168 923.522C757.469 923.522 756.389 920.282 757.469 917.042C759.088 912.723 757.468 911.643 749.91 911.643C740.192 911.643 735.873 904.623 742.352 898.143C744.798 893.09 746.089 887.556 746.131 881.943C746.671 871.143 745.591 868.443 739.112 868.443C733.382 867.644 728.072 864.988 723.995 860.883C718.056 854.943 714.277 854.403 705.099 856.563C692.142 860.343 657.049 854.403 617.097 841.443C607.606 838.114 597.854 835.586 587.942 833.883C583.235 833.053 578.898 830.79 575.525 827.403C571.746 824.163 566.887 822.003 564.727 823.623C559.328 827.403 556.629 846.843 561.488 852.783C565.267 858.183 565.267 858.183 559.328 853.863C549.07 845.763 535.033 849.543 536.113 859.803C537.193 870.063 526.395 872.223 517.756 863.583C513.437 859.803 512.897 861.963 515.057 874.383C519.376 908.403 519.376 909.482 512.897 910.562C509.118 911.642 502.1 907.862 497.78 902.463C493.461 897.063 486.983 893.283 484.283 894.363C478.344 897.063 471.866 888.963 470.246 876.543C470 874.021 468.989 871.635 467.348 869.705C465.708 867.774 463.516 866.392 461.068 865.743C455.843 864.221 451.28 860.988 448.11 856.563C447.053 854.69 445.46 853.175 443.536 852.213C441.613 851.251 439.445 850.885 437.313 851.163C432.355 852.443 427.153 852.443 422.196 851.163C415.177 849.543 412.478 846.303 412.478 838.203C412.478 824.703 407.079 819.843 401.68 829.563C398.44 834.963 397.9 831.723 398.98 817.683C400.06 802.563 398.98 798.243 392.501 795.003C388.722 792.844 385.483 789.603 386.023 786.364C387.103 775.564 384.943 771.784 376.845 772.864C370.366 773.944 367.666 771.784 366.587 765.304C365.507 757.744 363.887 757.204 350.39 758.824C341.212 760.444 334.733 759.364 334.733 757.204C334.733 755.044 327.714 753.964 318.536 754.504C305.039 754.504 301.8 756.664 300.72 763.144C300.358 765.329 299.485 767.398 298.172 769.181C296.858 770.964 295.141 772.411 293.161 773.404C287.223 776.104 282.364 766.924 285.063 758.824C288.842 749.104 282.364 745.324 265.627 747.484C253.209 749.104 249.43 751.264 247.271 758.284C245.111 766.924 229.454 774.484 229.454 766.384C229.454 764.224 226.755 766.384 223.515 771.244C218.656 777.724 218.116 780.964 221.896 785.284C225.675 789.604 224.595 791.223 219.196 794.463C212.717 798.243 212.717 798.783 221.356 806.883C227.295 812.283 229.454 817.683 227.834 823.623C226.677 827.859 225.954 832.201 225.675 836.583C225.675 838.015 225.106 839.389 224.094 840.401C223.081 841.414 221.708 841.983 220.276 841.983C212.717 841.983 212.178 855.483 218.656 859.803C229.454 866.283 203.539 867.363 188.422 860.883C173.845 854.943 170.606 854.943 161.428 859.263C157.441 861.775 153.061 863.601 148.47 864.663C136.053 862.503 132.274 865.743 132.813 876.543C133.331 882.381 132.01 888.234 129.034 893.283C124.715 898.683 125.255 900.303 131.734 903.543C135.513 905.703 140.372 906.243 141.452 905.163C142.531 904.083 144.151 904.623 144.151 907.323C144.151 910.023 137.672 911.643 128.494 911.643C112.298 911.643 113.377 910.023 106.899 947.822C104.739 958.622 102.579 962.402 96.1008 962.402C79.904 962.402 73.9652 954.842 73.9652 937.022C73.9652 927.842 71.8056 918.662 69.6461 917.582C68.2159 915.777 67.1872 913.687 66.6286 911.452C66.07 909.217 65.9944 906.889 66.4067 904.623C68.0264 877.623 66.4067 871.143 55.069 864.663C45.8908 859.263 43.7313 854.943 41.5717 839.283C40.4919 829.023 37.7924 819.843 35.093 819.303C29.6941 817.143 19.4361 797.703 19.4361 787.444C19.0881 784.968 18.2382 782.589 16.9385 780.453C15.6388 778.318 13.9166 776.47 11.8776 775.024C5.93881 770.164 4.31914 762.604 2.15957 722.104L0 674.584L9.17816 684.304C17.8164 693.484 19.976 694.024 26.9946 689.704C29.1933 687.655 32.0873 686.515 35.093 686.515C38.0987 686.515 40.9926 687.655 43.1914 689.704C49.6701 694.024 50.7498 694.024 50.7498 685.384C50.5641 683.253 50.8025 681.105 51.4512 679.066C52.0998 677.027 53.1459 675.137 54.5291 673.504C56.6887 671.884 58.3083 672.424 58.3083 674.044C58.3083 677.284 76.6647 687.004 82.6035 687.004C88.5423 687.004 85.3029 675.664 78.8242 671.884C72.3455 668.104 72.8854 667.565 78.2843 665.945C85.8428 662.705 105.279 669.724 105.279 675.664C105.279 681.604 121.476 675.664 125.795 669.184C126.714 667.673 127.974 666.397 129.473 665.46C130.973 664.522 132.672 663.948 134.433 663.784C137.672 663.784 139.832 662.165 139.832 660.005C139.832 657.845 143.611 655.685 147.93 654.605C157.648 651.905 158.728 631.925 150.09 615.725C146.823 609.606 145.504 602.635 146.311 595.745C148.47 588.185 146.311 586.025 137.133 583.865C127.954 581.705 125.795 580.085 126.335 569.825C127.25 562.534 130.465 555.725 135.513 550.385C145.771 541.206 145.771 539.586 137.672 528.786C132.274 520.146 132.274 519.606 141.452 515.826C144.443 514.569 147.113 512.654 149.263 510.223C151.412 507.793 152.987 504.909 153.869 501.786C156.029 492.606 154.409 488.826 141.992 478.026L127.415 464.526L138.212 453.186C151.17 438.606 154.409 438.606 156.569 449.406C158.188 454.806 161.968 456.966 170.606 456.966C178.704 456.966 181.944 455.886 180.324 452.646C176.545 447.246 186.263 418.087 195.441 407.827C199.637 403.173 204.795 399.487 210.558 397.027C218.116 394.327 220.816 378.127 214.337 373.807C212.178 372.727 211.638 368.407 212.717 364.627C213.492 362.82 213.7 360.82 213.315 358.892C212.929 356.963 211.968 355.197 210.558 353.827C204.079 350.047 205.159 340.327 212.178 340.327C215.417 340.327 220.276 336.007 222.975 330.607C225.675 325.207 229.454 320.887 232.154 320.887C234.853 320.887 237.552 319.267 237.552 317.107C237.552 314.947 241.332 311.707 246.191 309.007C253.209 305.227 253.749 305.227 251.59 310.627C248.89 319.267 255.369 318.727 261.848 310.627C268.772 303.897 276.809 298.416 285.603 294.428C305.579 285.248 315.297 286.868 323.395 301.447C329.874 314.407 334.733 310.087 332.034 293.888C330.414 283.088 330.954 277.688 334.193 277.688C337.433 277.688 337.972 276.068 336.353 273.908C334.733 271.748 336.353 270.128 341.212 271.748C362.55 277.53 384.455 280.97 406.539 282.008C422.735 282.008 437.313 273.368 433.533 265.808C429.754 258.248 435.693 247.448 444.331 245.828C449.19 245.288 452.429 242.588 451.89 239.888C451.35 237.188 454.589 235.028 458.908 235.028C463.227 235.028 466.467 232.328 466.467 228.548C466.467 221.528 482.663 211.808 492.382 211.808C495.081 211.808 500.48 206.408 504.259 201.008C513.977 186.428 521.536 181.028 532.873 180.488C546.371 180.488 550.69 176.708 553.929 162.669C556.089 151.869 558.788 150.249 570.126 148.089C574.405 147.055 578.862 147.004 583.163 147.939C587.464 148.875 591.497 150.772 594.961 153.489C600.36 157.809 606.299 159.969 607.378 158.889C608.458 157.809 611.698 159.969 614.397 163.209C617.097 166.449 618.176 170.229 616.017 171.849C610.618 175.628 606.299 192.368 610.618 192.368C612.777 192.368 616.017 196.148 618.716 201.008C624.115 211.808 623.575 292.808 617.636 299.827C612.112 304.393 605.666 307.709 598.74 309.547C586.863 313.327 582.543 312.787 574.445 307.927C560.408 298.208 547.451 259.328 547.451 224.228C547.451 213.428 540.972 216.668 535.033 230.708C530.737 238.669 528.509 247.582 528.554 256.628C528.53 259.339 527.62 261.967 525.963 264.112C524.306 266.257 521.993 267.801 519.376 268.508C504.799 273.368 493.461 286.328 493.461 299.288C493.658 305.242 491.956 311.104 488.602 316.027C485.363 319.267 485.363 320.887 488.602 320.887C491.842 320.887 494.001 324.667 494.001 328.447C494.212 330.409 495.049 332.25 496.388 333.699C497.727 335.148 499.497 336.126 501.435 336.49C503.374 336.853 505.378 336.583 507.151 335.718C508.924 334.853 510.371 333.439 511.278 331.687C513.478 327.146 514.587 322.153 514.517 317.107C514.517 311.167 517.217 306.847 521.536 306.307C526.935 305.227 528.014 307.927 527.474 318.187C526.935 344.647 544.751 357.607 552.31 336.007C556.629 324.127 556.629 324.127 578.224 326.827C591.182 328.447 601.98 332.227 605.219 336.007C608.458 339.787 607.918 343.027 605.759 343.567C599.82 346.267 605.759 352.207 614.397 352.207C619.181 351.894 623.715 349.957 627.249 346.717C630.783 343.476 633.106 339.127 633.833 334.387C634.537 332.116 635.877 330.095 637.696 328.563C639.514 327.032 641.734 326.054 644.091 325.747C650.5 323.96 656.173 320.177 660.288 314.947C665.147 309.007 670.006 306.307 673.785 307.927C681.344 310.627 681.344 313.327 676.485 326.827C673.245 334.927 671.086 336.547 667.307 333.307C658.668 325.747 645.711 332.227 644.091 345.187C641.932 360.307 650.57 368.947 664.067 365.707C688.362 359.767 720.216 362.467 729.934 371.107C734.793 376.507 739.112 377.587 740.732 375.427C742.165 374.074 743.868 373.038 745.728 372.387C747.589 371.736 749.565 371.483 751.53 371.647C759.088 371.647 759.088 371.647 752.609 379.207C747.211 385.687 746.671 387.847 750.99 393.247C752.678 395.052 754.829 396.36 757.209 397.026C759.59 397.693 762.107 397.693 764.487 397.027C767.179 396.46 769.976 396.666 772.555 397.621C775.135 398.577 777.391 400.243 779.064 402.427C781.546 404.61 784.474 406.225 787.645 407.158C790.816 408.091 794.152 408.319 797.42 407.827C808.218 407.827 809.298 407.827 807.139 416.467C804.979 425.107 806.599 425.107 814.157 424.566C826.575 422.947 832.513 419.167 832.513 409.987C832.513 395.947 843.311 397.567 857.349 412.687C871.386 427.806 877.864 440.226 873.545 444.006C872.466 445.086 875.165 449.406 878.944 453.726C883.864 459.087 887.388 465.579 889.202 472.626C890.282 479.106 893.521 484.506 896.221 484.506C904.319 484.506 910.798 473.706 907.558 465.066C906.828 462.716 906.643 460.23 907.018 457.797C907.392 455.364 908.315 453.049 909.718 451.026C912.957 447.246 913.497 445.626 909.718 445.626C903.239 445.626 904.859 434.286 913.497 423.487C917.891 418.056 920.694 411.514 921.596 404.587C921.596 397.567 923.755 394.867 929.154 394.867C932.933 394.867 945.351 387.307 955.069 377.587C964.787 367.867 973.965 360.307 974.505 360.307L985.303 364.087C998.8 369.487 998.26 381.907 984.223 399.187C975.585 408.907 973.425 415.387 974.505 422.947C975.169 425.794 975.123 428.761 974.369 431.586C973.616 434.411 972.179 437.008 970.186 439.146C967.413 441.613 965.36 444.785 964.247 448.326C962.261 455.254 959.546 461.951 956.149 468.306C951.681 476.168 949.793 485.234 950.75 494.226C952.909 501.246 951.83 505.026 946.971 506.106C946.154 506.353 945.395 506.758 944.736 507.299C944.077 507.841 943.531 508.506 943.13 509.259C942.728 510.011 942.48 510.836 942.398 511.685C942.315 512.534 942.402 513.39 942.651 514.206C943.731 517.446 941.032 521.226 935.093 523.386C929.154 525.546 925.375 528.786 925.375 530.946C925.375 533.106 919.976 537.426 912.957 540.666C901.08 546.066 900 546.066 895.141 540.666C892.442 536.346 890.282 535.266 890.282 536.886C890.282 538.506 887.582 537.966 884.883 535.266C882.184 532.566 878.404 532.026 878.404 534.186C878.404 544.445 884.343 551.466 896.761 556.325C909.178 561.185 911.338 561.185 926.995 554.165C950.21 543.906 965.867 528.786 966.947 516.366C968.026 503.946 972.346 499.626 983.143 502.326C993.941 505.026 998.8 521.226 991.782 528.246C986.383 533.646 986.383 549.845 991.782 549.845C996.437 551.62 1000.54 554.602 1003.66 558.485L1011.76 566.585L1009.06 557.405C1007.25 552.173 1004.08 547.515 999.88 543.906C994.481 539.586 994.481 538.506 1000.42 532.026C1004.47 527.542 1006.94 521.85 1007.44 515.826C1007.44 505.566 992.861 488.286 984.223 487.746C980.427 487.489 976.736 486.382 973.425 484.506C966.947 480.726 973.425 462.906 984.223 450.486C987.063 447.73 989.188 444.321 990.411 440.557C991.634 436.793 991.919 432.786 991.242 428.886C989.622 415.387 995.021 406.747 1003.66 406.747C1008.53 405.602 1013 403.179 1016.62 399.727C1024.72 393.247 1024.71 393.247 1018.78 400.807C1014.91 406.828 1012.51 413.67 1011.76 420.787C1010.68 431.586 1012.3 434.286 1020.4 438.066C1025.79 440.766 1030.65 444.006 1030.65 446.166C1030.65 448.326 1033.35 449.406 1036.05 449.406C1043.61 449.406 1039.83 437.526 1030.11 430.506C1021.48 424.566 1020.4 414.307 1028.49 414.307C1031.73 414.307 1034.43 415.927 1034.43 418.087C1034.43 420.247 1037.13 421.867 1040.91 421.867C1044.69 421.867 1046.31 419.707 1045.23 414.847C1044.15 409.987 1045.23 407.287 1050.63 407.827C1054.41 407.827 1056.57 409.447 1056.03 411.067C1055.49 412.687 1056.03 414.307 1059.81 414.307C1063.59 414.307 1066.83 418.627 1068.45 424.027C1069.07 426.913 1070.45 429.583 1072.44 431.764C1074.43 433.945 1076.97 435.561 1079.78 436.446C1091.12 439.146 1092.2 444.006 1081.4 446.706C1076 447.786 1073.85 452.106 1073.85 459.126C1073.85 466.146 1075.46 468.306 1078.16 466.686C1080.86 465.066 1080.32 467.766 1077.08 473.166C1074.63 477.042 1073.32 481.536 1073.31 486.126C1075.04 492.322 1076.3 498.64 1077.08 505.026C1077.62 508.806 1089.5 508.266 1089.5 503.946C1089.3 502.685 1088.8 501.49 1088.05 500.458C1087.3 499.426 1086.32 498.586 1085.18 498.006C1083.02 496.386 1083.02 492.606 1085.18 485.586C1087.53 478.62 1088.81 471.336 1088.96 463.986C1089.09 457.283 1090.56 450.673 1093.28 444.546C1095.98 439.146 1095.98 435.366 1093.28 432.666C1090.68 429.864 1089.14 426.229 1088.96 422.407C1088.52 418.58 1086.58 415.086 1083.56 412.687C1078.7 409.447 1078.16 404.587 1079.78 394.327L1081.94 379.747L1108.94 380.287C1127.83 380.827 1135.93 382.447 1135.93 385.687C1135.93 388.927 1138.09 390.007 1143.49 387.307C1148.89 384.607 1150.51 379.747 1149.43 367.867C1149.43 357.067 1150.51 351.667 1154.83 350.047C1159.15 348.427 1159.15 346.807 1157.53 344.647C1154.83 339.787 1179.66 328.447 1194.24 328.447C1201.26 328.447 1207.2 326.287 1208.82 323.047C1210.98 316.567 1221.78 314.947 1221.78 320.887C1221.78 323.047 1225.02 324.667 1228.79 324.667C1237.43 324.667 1256.87 316.027 1256.87 312.247C1256.87 310.627 1260.65 309.007 1265.51 309.007C1273.61 309.007 1274.69 307.387 1273.07 298.208C1270.91 283.628 1289.8 263.648 1298.44 271.208C1302.76 274.448 1302.76 276.068 1298.44 278.768C1294.12 281.468 1294.66 282.548 1299.52 285.788C1302.78 287.853 1306.48 289.146 1310.32 289.568C1312.48 289.568 1314.64 293.348 1314.64 297.668C1314.64 306.847 1322.2 307.927 1325.43 299.288C1328.67 290.648 1345.95 292.808 1360.53 303.607C1371.33 311.707 1372.95 314.407 1368.63 317.647C1364.31 320.887 1364.85 321.967 1370.25 326.287C1379.96 333.847 1378.88 339.247 1363.77 354.907C1356.21 363.007 1349.73 371.107 1349.73 373.267C1349.73 375.427 1342.17 385.687 1332.45 395.947C1322.74 406.207 1315.18 416.467 1315.18 419.167C1315.18 421.867 1317.34 420.787 1320.58 417.007C1322.2 415.127 1324.19 413.587 1326.41 412.475C1328.63 411.363 1331.05 410.701 1333.53 410.527C1335.96 410.512 1338.32 409.717 1340.27 408.259C1342.21 406.8 1343.64 404.756 1344.33 402.427C1345.95 397.027 1349.73 394.867 1352.43 396.487C1354.4 396.817 1356.43 396.643 1358.31 395.983C1360.2 395.322 1361.89 394.195 1363.23 392.707C1370.79 385.147 1383.74 385.147 1386.44 392.707C1386.85 394.12 1387.6 395.408 1388.64 396.447C1389.68 397.487 1390.97 398.244 1392.38 398.647C1394.54 398.647 1395.62 397.027 1394.54 395.407C1391.3 390.007 1409.66 379.207 1421.54 379.207C1427.39 379.125 1433.1 381.029 1437.73 384.607C1445.29 392.167 1463.65 392.167 1478.22 384.607C1487.94 379.207 1489.02 377.587 1485.78 371.107C1479.84 360.307 1484.16 355.447 1496.58 358.147C1499.35 359.17 1502.37 359.357 1505.25 358.685C1508.12 358.013 1510.74 356.512 1512.78 354.367C1517.1 348.967 1518.72 348.967 1528.97 355.987C1535.99 361.387 1539.77 366.787 1538.69 370.027C1538.4 370.632 1538.28 371.303 1538.33 371.972C1538.39 372.641 1538.62 373.283 1539 373.833C1539.39 374.383 1539.91 374.82 1540.52 375.1C1541.13 375.381 1541.8 375.493 1542.47 375.427C1548.95 375.427 1550.03 381.367 1544.09 385.147C1538.15 388.927 1544.09 395.947 1550.03 393.247C1553.81 391.627 1555.43 393.247 1555.43 398.647C1555.87 401.467 1557.13 404.095 1559.05 406.207C1560.96 408.319 1563.46 409.821 1566.23 410.527C1581.88 417.007 1593.22 415.927 1591.6 409.447C1590.4 403.557 1589.5 397.609 1588.9 391.627C1587.28 380.827 1588.36 379.207 1593.76 381.907C1602.4 387.307 1614.28 382.987 1614.28 374.887C1614.28 365.707 1621.3 363.547 1632.63 368.407C1643.97 373.267 1654.77 365.167 1645.05 359.227C1640.19 355.987 1640.73 354.907 1647.75 353.287C1654.77 351.667 1655.85 349.507 1652.07 340.327C1650.15 335.73 1647.4 331.521 1643.97 327.907C1641.81 326.287 1641.81 321.967 1643.43 318.187C1644.86 315.308 1645.77 312.202 1646.13 309.007C1646.13 307.927 1653.15 303.067 1662.33 298.208C1675.82 291.188 1678.52 290.648 1679.6 295.508C1681.22 302.527 1687.7 303.607 1688.24 296.588C1688.24 293.888 1689.86 296.048 1691.48 301.447C1695.8 316.567 1701.74 312.787 1702.82 294.428C1703.9 280.928 1706.06 277.148 1713.62 273.908C1728.19 268.508 1731.43 269.588 1728.73 277.688C1726.57 284.708 1727.65 284.708 1742.77 281.468C1749.97 279.445 1757.49 278.894 1764.91 279.848C1771.39 282.548 1789.2 267.968 1789.2 260.408C1791.25 253.938 1794.76 248.025 1799.46 243.128C1807.56 233.408 1811.88 231.248 1826.45 231.248C1837.25 231.248 1843.73 233.408 1845.35 237.188C1850.21 249.608 1880.44 240.428 1878.82 226.388C1878.23 220.94 1879.3 215.439 1881.91 210.616C1884.51 205.793 1888.52 201.877 1893.4 199.388C1899.74 196.188 1904.72 190.824 1907.44 184.268C1910.68 176.169 1913.92 173.469 1918.24 174.009C1919.84 174.69 1921.61 174.9 1923.33 174.613C1925.05 174.326 1926.66 173.555 1927.95 172.389C1929.19 171.132 1930.77 170.259 1932.5 169.876C1934.22 169.493 1936.02 169.615 1937.67 170.229C1939.73 170.603 1941.84 170.453 1943.83 169.792C1945.81 169.132 1947.59 167.982 1949.01 166.449C1955.49 158.889 1946.85 149.709 1932.81 149.709C1917.7 149.709 1916.08 140.529 1929.03 126.489C1934.97 120.009 1939.29 114.609 1938.21 114.609C1937.13 114.609 1939.83 109.209 1943.61 102.189C1954.41 83.2893 1969.53 71.4093 2005.16 53.5895C2011.66 50.2514 2017.81 46.2716 2023.52 41.7096C2027.29 38.4696 2031.61 36.8496 2033.77 38.4696C2035.93 40.0896 2038.63 37.9296 2039.71 34.6897C2039.95 33.81 2040.37 32.9909 2040.95 32.2858C2041.53 31.5807 2042.25 31.0054 2043.07 30.5977C2043.88 30.19 2044.77 29.9589 2045.68 29.9196C2046.59 29.8803 2047.5 30.0337 2048.35 30.3697C2053.21 32.5297 2053.75 31.4497 2052.13 26.5897C2049.97 21.1898 2052.13 20.6498 2073.19 22.2697C2091.54 23.8897 2096.4 23.3497 2096.4 19.0298C2096.4 15.7898 2092.62 13.6298 2086.68 13.6298C2075.88 13.6298 2074.8 11.4698 2083.44 2.82991C2084.89 1.46464 2085.99 -0.229216 2086.65 -2.10882C2087.31 -3.98842 2087.5 -5.99866 2087.22 -7.97C2086.14 -11.21 2088.84 -14.45 2093.7 -16.0699C2100.57 -18.4679 2107.1 -21.7344 2113.14 -25.7899C2124.48 -33.8898 2123.94 -33.8898 2125.55 -16.0699C2125.99 -13.094 2127.53 -10.3924 2129.87 -8.51C2132.03 -6.89001 2131.49 -4.19003 2127.71 -2.03005C2123.94 0.12993 2123.4 2.82991 2124.48 3.3699C2126.09 6.06988 2140.67 8.76986 2150.39 9.84985C2153.09 9.84985 2154.17 12.0098 2152.55 14.7098C2150.93 17.4098 2152.01 18.4898 2156.33 16.3298C2160.65 14.1698 2162.81 16.3298 2162.81 19.5698C2162.81 22.8097 2161.19 25.5097 2159.03 25.5097C2156.87 25.5097 2155.25 26.5897 2155.79 28.2097C2156.33 29.8297 2151.47 36.8496 2144.99 43.3296C2135.81 53.0495 2132.03 54.6695 2126.63 51.4295C2121.24 48.1895 2119.08 48.7295 2114.22 54.6695C2111 59.4894 2109.14 65.0837 2108.82 70.8694C2108.82 77.8893 2106.12 80.0493 2098.56 80.0493C2096.39 80.1622 2094.22 79.838 2092.18 79.0959C2090.14 78.3538 2088.27 77.2089 2086.68 75.7293C2083.44 70.3294 2078.58 71.4094 2075.88 78.4293C2073.19 85.4492 2084.52 95.7092 2093.7 93.0092C2098.56 91.3892 2102.34 95.7092 2108.28 107.049C2116.92 124.329 2114.76 134.049 2100.72 142.149C2095.32 144.309 2093.7 148.089 2095.32 152.409C2097.48 157.809 2098.56 157.809 2102.34 152.409C2104.01 150.441 2106.07 148.846 2108.4 147.73C2110.72 146.613 2113.26 146 2115.84 145.929C2120.16 145.929 2123.94 143.769 2123.94 141.609C2123.94 136.749 2140.13 141.069 2143.91 147.009C2145.53 149.169 2147.69 149.169 2149.31 146.469C2152.55 141.069 2179.54 141.609 2183.32 147.549C2187.1 153.489 2171.99 169.149 2164.43 169.149C2157.95 169.149 2157.41 175.629 2163.89 177.788C2166.59 178.868 2169.29 189.668 2169.29 207.488C2169.65 221.319 2171.46 235.073 2174.68 248.528C2176.85 255.267 2178.65 262.116 2180.08 269.048L2185.48 290.648C2189.26 304.147 2189.26 305.227 2180.08 305.227C2168.75 305.227 2159.57 321.427 2158.49 343.567C2157.95 357.067 2156.87 358.687 2152.01 354.367C2147.15 350.047 2146.61 351.667 2148.23 366.247C2149.85 378.127 2149.31 382.447 2145.53 382.447C2137.43 382.447 2135.27 399.187 2142.83 409.447L2159.03 436.446C2168.75 454.266 2182.24 462.906 2182.24 451.026C2182.24 450.199 2182.41 449.379 2182.74 448.621C2183.07 447.863 2183.56 447.182 2184.17 446.623C2184.78 446.064 2185.5 445.638 2186.28 445.374C2187.07 445.109 2187.9 445.011 2188.72 445.086C2193.04 445.086 2194.12 447.246 2193.04 452.106C2191.96 456.966 2193.04 460.746 2201.14 462.906C2205.53 464.155 2210.08 464.702 2214.64 464.526C2218.31 464.325 2221.98 464.876 2225.43 466.146C2234.07 468.846 2235.69 479.646 2227.05 479.646C2226.2 479.777 2225.38 480.077 2224.64 480.531C2223.9 480.984 2223.26 481.581 2222.76 482.286C2222.26 482.99 2221.9 483.789 2221.71 484.634C2221.52 485.479 2221.5 486.354 2221.66 487.206C2221.66 497.466 2236.23 514.746 2244.87 514.746C2246.82 514.566 2248.78 514.979 2250.49 515.93C2252.2 516.882 2253.58 518.327 2254.45 520.078C2255.33 521.828 2255.66 523.802 2255.39 525.741C2255.13 527.68 2254.28 529.494 2252.97 530.946C2249.7 536.682 2248.19 543.257 2248.65 549.845C2248.06 553.941 2248.61 558.118 2250.23 561.925C2251.85 565.732 2254.47 569.025 2257.83 571.445C2266.47 577.925 2267.01 579.005 2262.15 593.045C2257.83 604.925 2257.83 608.165 2261.61 608.165C2268.09 608.165 2283.2 643.805 2283.2 658.925C2283.2 674.044 2273.49 674.044 2259.45 658.925C2251.35 651.273 2242.28 644.736 2232.45 639.485C2200.06 622.205 2139.59 567.125 2139.59 553.625C2139.59 543.366 2131.49 526.626 2126.63 526.626C2124.48 526.626 2124.48 524.466 2127.17 521.766C2134.19 514.746 2133.11 474.246 2126.09 467.766C2122.98 464.767 2121.06 460.736 2120.7 456.426C2120.74 454.587 2120.38 452.761 2119.63 451.08C2118.88 449.399 2117.77 447.905 2116.38 446.706C2113.14 445.086 2113.14 442.386 2116.38 439.146C2119.62 435.906 2118.54 428.886 2113.68 415.927C2108.28 400.807 2107.74 396.487 2112.06 390.007C2117.46 380.827 2115.3 376.507 2095.86 358.687C2092.7 356.194 2090.07 353.094 2088.12 349.571C2086.18 346.047 2084.95 342.17 2084.52 338.167C2084.52 326.287 2079.12 325.207 2071.03 334.927C2062.93 344.647 2064.55 350.587 2073.73 360.307C2078.43 366.129 2081.09 373.341 2081.28 380.827C2081.29 389.154 2082.01 397.464 2083.44 405.667C2085.06 415.387 2084.52 417.547 2079.12 416.467C2074.28 414.771 2070.11 411.55 2067.25 407.287C2060.23 397.567 2053.75 396.487 2053.75 404.587C2053.61 406.067 2052.93 407.442 2051.83 408.442C2050.73 409.442 2049.3 409.993 2047.81 409.987C2045.78 410.305 2043.9 411.261 2042.44 412.717C2040.99 414.172 2040.03 416.053 2039.71 418.087C2038.63 422.406 2035.93 425.646 2034.31 425.646C2028.91 425.646 2025.67 449.406 2030.53 454.806C2032.69 458.046 2035.93 471.006 2037.01 482.886C2038.06 494.557 2040.79 506.016 2045.11 516.906C2050.51 527.706 2050.51 527.706 2058.07 520.686C2062.39 516.906 2065.63 515.826 2065.63 518.526C2063.7 523.692 2060.33 528.192 2055.91 531.486C2051.24 534.991 2047.83 539.917 2046.19 545.526C2046.19 548.766 2043.49 549.846 2038.63 548.766C2033.77 547.685 2029.99 547.685 2028.91 549.845C2027.83 552.005 2022.98 552.545 2018.66 551.465C2013.26 549.846 2011.1 551.465 2011.1 555.785C2011.1 559.025 2009.48 561.725 2007.86 561.185C1996.52 559.565 1991.12 563.345 1988.96 573.605C1986.8 585.485 1981.4 591.425 1966.83 598.985C1964.75 599.989 1962.96 601.509 1961.64 603.4C1960.32 605.29 1959.5 607.489 1959.27 609.785C1959.27 614.645 1958.19 615.185 1954.95 613.025C1951.71 610.865 1945.77 613.025 1936.05 622.205C1914.46 642.185 1908.52 652.985 1911.22 668.104C1912.84 675.124 1912.3 682.144 1911.22 684.304C1910.14 686.464 1907.44 695.104 1907.44 705.904C1907.44 716.704 1904.74 727.504 1902.04 730.744C1899.34 733.984 1898.26 746.944 1898.8 760.984C1899.34 775.024 1897.18 790.143 1894.48 794.463C1891.83 800.042 1890.36 806.109 1890.16 812.283C1890.35 814.415 1890.11 816.562 1889.46 818.601C1888.81 820.64 1887.77 822.531 1886.38 824.163C1885.04 825.495 1884.01 827.103 1883.36 828.875C1882.71 830.647 1882.45 832.541 1882.6 834.423C1882.6 839.823 1885.3 841.983 1893.94 841.983C1898.93 842.531 1903.94 841.182 1907.98 838.203C1909.06 836.043 1914.46 838.743 1919.32 844.683C1926.87 853.323 1929.03 854.403 1929.03 848.463C1929.03 840.363 1937.13 839.283 1937.13 847.923C1937.13 849.427 1937.73 850.869 1938.79 851.932C1939.86 852.996 1941.3 853.593 1942.8 853.593C1944.3 853.593 1945.75 852.996 1946.81 851.932C1947.87 850.869 1948.47 849.427 1948.47 847.923C1948.39 847.122 1948.48 846.312 1948.75 845.553C1949.02 844.794 1949.45 844.104 1950.02 843.534C1950.59 842.965 1951.28 842.53 1952.04 842.262C1952.8 841.993 1953.61 841.898 1954.41 841.983C1960.89 841.983 1962.51 831.723 1956.03 827.943C1948.47 823.623 1961.43 813.903 1972.23 816.063C1995.44 820.923 2007.32 824.703 2007.32 826.863C2010.82 833.337 2015.38 839.178 2020.82 844.143C2029.99 852.783 2034.31 860.343 2032.69 864.123C2029.45 871.683 2038.09 898.143 2045.65 907.323C2052.32 915.902 2058.1 925.128 2062.93 934.862C2073.73 955.382 2073.73 955.922 2071.57 1026.12C2069.95 1100.64 2068.87 1113.6 2064.01 1121.16C2062.09 1125.59 2061.71 1130.53 2062.93 1135.2C2066.17 1147.08 2052.13 1178.4 2038.63 1190.82C2029.99 1198.38 2025.67 1199.46 2011.64 1197.3L1995.44 1195.14L1992.74 1211.34C1991.12 1223.76 1988.96 1227 1982.48 1227C1974.93 1227 1974.92 1227 1981.4 1221.6H1981.94ZM2169.29 1028.28C2163.89 1021.8 2159.57 1013.7 2161.19 1010.46C2162.81 1007.22 2161.19 1005.06 2159.57 1005.06C2155.79 1005.06 2143.91 983.462 2143.91 975.902C2143.91 973.202 2138.51 967.262 2130.95 962.942C2123.02 957.735 2116.67 950.45 2112.6 941.882C2107.52 931.373 2101.37 921.42 2094.24 912.182C2087.16 902.717 2081.02 892.59 2075.88 881.943C2072.29 873.303 2067.79 868.983 2062.39 868.983C2054.29 868.983 2038.63 856.563 2038.63 850.083C2037.74 846.878 2035.85 844.041 2033.23 841.983C2029.91 839.306 2027.77 835.425 2027.29 831.183C2026.54 826.134 2024.28 821.429 2020.82 817.683C2015.42 812.283 2015.42 809.583 2018.66 806.883C2025.67 803.103 2020.28 783.124 2011.64 780.964C2007.32 779.884 2005.16 776.644 2006.24 773.404C2009.48 765.304 2015.42 766.924 2019.74 778.264C2021.8 783.562 2025.88 787.831 2031.07 790.144C2035.39 791.224 2038.63 795.003 2038.63 797.703C2038.88 799.593 2039.68 801.368 2040.92 802.808C2042.17 804.249 2043.82 805.29 2045.65 805.803C2057.53 810.123 2062.39 815.523 2058.61 820.383C2054.29 825.783 2064.01 838.203 2078.58 844.683C2084.52 847.383 2089.38 851.163 2089.38 853.863C2089.51 854.913 2090.03 855.878 2090.82 856.574C2091.62 857.271 2092.64 857.651 2093.7 857.643C2096.4 857.643 2108.82 866.823 2122.32 878.703C2133.83 889.13 2146.51 898.191 2160.11 905.703L2173.61 911.103L2154.71 911.643C2132.03 912.183 2129.87 916.502 2138.51 941.882C2147.15 967.262 2159.03 986.162 2167.13 986.162C2172.19 986.727 2177.03 988.587 2181.16 991.562C2183.08 993.21 2185.32 994.444 2187.73 995.187C2190.15 995.931 2192.69 996.167 2195.2 995.882C2203.84 993.182 2213.56 1013.16 2206 1017.48C2204.73 1018.32 2203.27 1018.82 2201.75 1018.91C2200.24 1019.01 2198.72 1018.7 2197.36 1018.02C2195.74 1016.94 2196.28 1014.24 2199.52 1012.62C2203.3 1010.46 2203.3 1009.38 2199.52 1009.38C2191.42 1009.38 2180.08 1023.42 2183.32 1029.36C2193.04 1044.48 2183.32 1043.94 2169.83 1028.28H2169.29ZM2152.01 1015.32C2152.01 1011 2152.55 1008.84 2154.17 1009.92C2154.83 1011.07 2155.18 1012.37 2155.18 1013.7C2155.18 1015.03 2154.83 1016.33 2154.17 1017.48C2153.09 1020.72 2152.01 1020.18 2152.01 1015.32ZM2260.53 998.582C2260.53 987.782 2262.69 982.382 2267.01 980.222C2272.41 978.062 2272.41 980.222 2270.79 992.642C2266.47 1014.24 2260.53 1018.02 2260.53 998.582ZM2275.1 971.582C2269.71 966.182 2271.87 932.162 2278.34 930.002C2279.96 929.203 2281.31 927.972 2282.27 926.447C2283.22 924.921 2283.73 923.161 2283.74 921.362C2283.74 918.122 2285.9 915.962 2288.06 915.962C2293.46 915.962 2292.92 920.282 2285.9 936.482C2283.07 942.546 2281.95 949.268 2282.66 955.922C2284.82 962.942 2278.88 975.902 2275.1 972.122V971.582ZM2296.16 893.823C2296.16 886.803 2297.24 879.783 2299.4 878.703C2304.26 876.003 2304.26 887.343 2299.4 898.143C2296.7 905.163 2296.16 904.083 2296.16 893.823ZM2308.04 834.423C2308.04 829.023 2309.12 826.323 2310.2 829.023C2311.27 832.175 2311.27 835.591 2310.2 838.743C2308.58 841.983 2308.04 839.823 2308.04 834.423ZM1920.4 814.443C1918.78 812.283 1919.86 810.663 1922.02 810.663C1922.98 810.778 1923.87 811.213 1924.56 811.898C1925.25 812.584 1925.68 813.48 1925.79 814.443C1925.79 816.603 1925.25 818.763 1924.18 818.763C1923.1 818.763 1921.48 817.143 1920.4 814.983V814.443ZM2293.46 763.684C2290.22 758.284 2292.92 756.124 2298.86 759.904C2302.64 762.064 2302.64 764.224 2299.94 765.304C2298.89 765.861 2297.69 766.058 2296.52 765.862C2295.35 765.667 2294.27 765.091 2293.46 764.224V763.684ZM2288.06 736.684C2288.17 735.968 2288.47 735.298 2288.94 734.751C2289.42 734.204 2290.04 733.805 2290.73 733.6C2291.42 733.394 2292.16 733.392 2292.85 733.594C2293.55 733.795 2294.17 734.191 2294.65 734.735C2295.12 735.279 2295.43 735.948 2295.54 736.663C2295.65 737.378 2295.55 738.109 2295.25 738.768C2294.96 739.428 2294.48 739.989 2293.87 740.386C2293.27 740.782 2292.56 740.996 2291.84 741.004C2290.84 741.004 2289.88 740.606 2289.17 739.897C2288.46 739.188 2288.06 738.226 2288.06 737.224V736.684ZM2283.74 715.084C2283.49 712.932 2283.49 710.757 2283.74 708.604C2283.61 704.785 2282.5 701.064 2280.5 697.804C2279.35 696.211 2278.78 694.273 2278.88 692.309C2278.97 690.346 2279.74 688.474 2281.04 687.004C2286.44 681.604 2293.46 681.064 2289.68 686.464C2289.09 687.908 2288.93 689.491 2289.22 691.023C2289.51 692.556 2290.23 693.973 2291.3 695.104C2294 698.344 2293.46 702.664 2289.68 709.684C2286.44 715.084 2284.28 717.784 2283.74 715.624V715.084ZM2031.07 560.105C2031.07 559.565 2032.69 557.405 2034.85 556.325C2037.01 555.245 2038.63 555.785 2038.63 557.945C2038.63 558.948 2038.23 559.909 2037.53 560.618C2036.82 561.327 2035.86 561.725 2034.85 561.725C2032.69 561.725 2031.07 561.725 2031.07 560.105ZM832.513 382.987C832.513 376.507 834.133 371.647 836.293 371.647C838.452 371.647 840.072 377.047 840.072 382.987C840.072 388.927 838.452 394.867 836.293 394.867C834.133 394.867 832.513 389.467 832.513 382.987ZM1371.87 367.867C1370.25 366.247 1371.87 363.547 1375.1 362.467C1378.34 361.387 1381.04 361.387 1381.04 363.547C1381.04 368.947 1374.57 372.187 1371.87 367.867ZM988.002 352.207C984.223 349.507 984.223 348.427 988.002 346.267C993.401 343.027 997.181 345.727 995.021 351.667C993.941 353.827 991.242 354.367 988.542 352.207H988.002ZM815.237 340.327C807.139 330.607 805.519 326.287 809.298 322.507C814.697 315.487 810.378 297.128 802.819 297.128C797.96 297.128 797.421 295.508 800.66 290.108C801.606 288.012 803.264 286.319 805.34 285.33C807.415 284.341 809.774 284.121 811.998 284.708C816.857 285.788 823.875 282.548 830.354 276.608C842.771 264.728 847.091 264.188 857.349 272.288C864.907 277.688 864.907 278.228 848.17 292.808C833.053 306.847 830.894 310.087 828.734 330.607L826.575 353.287L815.237 340.327ZM718.056 337.627C713.737 332.767 715.357 328.987 723.455 324.667C729.934 321.427 732.094 321.427 734.253 326.827C736.953 335.467 724.535 344.107 718.056 337.627ZM1625.07 289.028C1620.76 276.608 1631.55 270.128 1647.21 276.608C1656.39 279.848 1654.77 283.628 1643.43 289.028C1630.47 294.428 1627.23 294.428 1625.07 289.028ZM867.067 270.128C864.367 264.728 864.367 262.568 867.067 262.568C869.766 262.568 870.846 260.408 870.306 257.708C869.766 255.008 871.926 253.388 875.705 253.928C879.484 254.468 882.723 253.928 882.723 251.768C882.723 249.608 888.122 245.828 894.601 243.128C901.08 240.428 905.939 237.188 905.939 235.568C905.939 233.948 910.798 232.868 916.197 232.328C921.805 231.837 927.286 230.376 932.393 228.008C934.869 226.954 937.531 226.41 940.222 226.41C942.912 226.41 945.575 226.954 948.05 228.008C952.117 229.845 956.693 230.227 961.008 229.088C962.72 228.606 964.531 228.602 966.244 229.078C967.958 229.554 969.508 230.492 970.726 231.788C973.965 235.028 983.143 235.568 997.72 233.948C1013.92 232.328 1019.32 233.408 1020.94 237.728C1021.56 238.988 1021.88 240.374 1021.88 241.778C1021.88 243.182 1021.56 244.568 1020.94 245.828C1017.16 249.608 980.444 253.928 975.585 251.228C973.425 249.608 962.627 250.148 951.29 251.768L919.976 256.088C915.097 256.345 910.402 258.035 906.479 260.948C902.889 263.644 898.549 265.154 894.061 265.268C888.709 265.907 883.746 268.389 880.024 272.288C874.625 279.848 871.926 279.848 867.067 270.128ZM1611.04 276.608C1611.04 275.528 1612.66 273.908 1614.82 272.288C1616.98 270.668 1618.6 272.288 1618.6 274.448C1618.6 275.45 1618.2 276.412 1617.49 277.121C1616.78 277.829 1615.82 278.228 1614.82 278.228C1612.66 278.228 1611.04 277.148 1611.04 276.608ZM106.359 269.588C103.673 265.938 101.494 261.942 99.88 257.708C98.8161 255.494 97.1198 253.646 95.0056 252.396C92.8914 251.147 90.4543 250.552 88.0024 250.688C85.7839 250.948 83.5355 250.747 81.3985 250.096C79.2615 249.446 77.2822 248.36 75.5849 246.908C73.9652 244.208 76.6647 243.668 83.1434 245.288C91.2417 247.448 93.4013 246.368 93.4013 239.888C93.4013 237.31 94.4252 234.838 96.2477 233.015C98.0702 231.192 100.542 230.168 103.119 230.168C105.697 230.168 108.169 231.192 109.991 233.015C111.814 234.838 112.837 237.31 112.837 239.888C112.837 241.508 115.537 243.128 118.236 243.128C123.635 243.128 124.715 246.368 123.635 257.708C122.555 272.828 113.377 279.308 106.359 269.588ZM1577.02 264.728C1567.31 260.408 1559.21 242.048 1562.99 233.408C1565.15 226.388 1569.47 225.848 1580.26 231.788C1589.44 237.188 1594.84 233.408 1588.36 226.388C1580.8 219.368 1582.96 217.748 1600.78 217.208C1618.6 216.668 1629.39 222.608 1624.54 231.248C1620.76 237.728 1607.8 236.108 1602.94 228.548C1600.24 223.688 1599.16 223.148 1600.24 227.468C1602.34 231.995 1605.97 235.631 1610.5 237.728L1618.6 242.048L1607.8 249.068C1603.75 252.387 1598.92 254.618 1593.76 255.548C1592.14 255.008 1591.6 257.168 1592.68 260.408C1595.38 267.428 1587.28 269.588 1576.48 264.728H1577.02ZM1263.89 240.968C1267.74 234.774 1270.65 228.04 1272.53 220.988C1272.37 220.381 1272.34 219.747 1272.45 219.13C1272.56 218.512 1272.8 217.926 1273.16 217.412C1273.52 216.899 1273.99 216.469 1274.53 216.154C1275.08 215.839 1275.68 215.646 1276.3 215.588C1276.85 215.583 1277.39 215.695 1277.89 215.918C1278.39 216.141 1278.83 216.468 1279.19 216.879C1279.55 217.289 1279.81 217.772 1279.97 218.295C1280.12 218.818 1280.16 219.368 1280.08 219.908C1280.08 220.453 1280.19 220.993 1280.41 221.491C1280.64 221.989 1280.96 222.433 1281.37 222.792C1281.78 223.151 1282.27 223.417 1282.79 223.572C1283.31 223.726 1283.86 223.766 1284.4 223.688C1290.88 223.688 1300.6 235.028 1298.44 240.428C1295.27 244.536 1290.62 247.247 1285.48 247.988C1278.6 249.628 1271.76 251.428 1264.97 253.388L1256.33 255.548L1263.89 240.968ZM1232.57 225.308C1219.08 218.288 1218 203.708 1230.41 194.528C1241.21 186.968 1246.61 186.968 1243.37 194.528C1241.75 199.388 1243.37 199.928 1248.77 198.308C1257.41 195.608 1262.27 202.088 1258.49 211.268C1256.73 215.539 1255.99 220.161 1256.33 224.768C1257.41 232.868 1247.15 233.408 1232.57 225.308ZM1632.63 212.888C1630.47 209.108 1638.03 202.088 1646.13 201.548C1651.24 200.583 1656.29 199.321 1661.25 197.768C1670.97 195.068 1670.97 195.068 1665.03 204.248C1659.09 213.428 1636.41 219.368 1632.63 212.888ZM1209.36 197.768C1204.5 192.908 1206.66 188.588 1212.6 191.288C1215.84 192.368 1218 195.068 1218 196.688C1218 201.008 1212.6 201.548 1209.36 197.768ZM1216.92 182.648C1213.68 174.549 1220.7 161.049 1227.71 161.049C1229.22 160.973 1230.68 160.477 1231.92 159.619C1233.16 158.76 1234.13 157.572 1234.73 156.189C1236.89 149.709 1240.13 153.489 1243.37 165.369C1246.61 177.249 1242.29 183.188 1229.33 186.968C1222.32 188.588 1218.54 187.508 1216.92 182.648ZM1903.12 163.749C1903.12 162.669 1905.82 161.049 1909.06 159.969C1912.3 158.889 1914.46 159.969 1914.46 161.589C1914.46 163.209 1912.3 165.369 1909.06 165.369C1905.82 165.369 1903.66 164.829 1903.66 163.749H1903.12ZM1033.35 110.289C1032.64 109.132 1032.31 107.779 1032.4 106.422C1032.5 105.065 1033.02 103.773 1033.89 102.729C1038.75 98.4091 1049.01 104.889 1045.77 110.289C1045.37 111.626 1044.55 112.799 1043.43 113.633C1042.32 114.467 1040.96 114.918 1039.56 114.918C1038.17 114.918 1036.81 114.467 1035.69 113.633C1034.57 112.799 1033.75 111.626 1033.35 110.289ZM1054.95 110.829C1054.95 108.669 1058.73 107.049 1063.05 107.049C1067.37 107.049 1070.07 108.669 1068.45 110.829C1067.44 112.001 1066.2 112.944 1064.81 113.596C1063.41 114.248 1061.89 114.594 1060.35 114.609C1057.65 114.609 1054.95 112.989 1054.95 110.829ZM1022.02 83.8293C1020.4 81.6693 1022.02 81.1293 1025.79 82.2093C1032.27 84.9092 1033.35 87.6092 1027.95 87.6092C1026.74 87.4668 1025.58 87.0529 1024.55 86.3984C1023.52 85.7439 1022.66 84.8657 1022.02 83.8293ZM975.045 68.1694C963.167 65.4694 965.327 63.8494 983.683 62.7694C989.082 62.7694 994.481 64.9294 995.561 67.6294C997.18 72.4893 992.861 73.0293 975.045 67.6294V68.1694ZM968.026 54.1295C966.544 52.6854 965.592 50.7825 965.327 48.7295C965.327 44.9496 980.444 48.7295 983.143 53.0495C985.843 57.3695 972.346 57.9095 968.026 54.1295ZM1923.64 39.0096C1916.62 24.9697 1917.7 18.4898 1926.33 13.6298C1934.97 8.76986 1935.51 9.84985 1934.43 29.8297C1933.35 47.1096 1929.03 51.4295 1923.64 39.0096Z" fill="#2C4776"/>
</mask>
<g mask="url(#mask0_260_499)">
<rect x="-75.4766" y="-166.135" width="701" height="1214" fill="#365385"/>
</g>
</svg>
