<svg width="746" height="421" viewBox="0 0 746 421" fill="none" xmlns="http://www.w3.org/2000/svg">
<g opacity="0.05">
<path fill-rule="evenodd" clip-rule="evenodd" d="M131.34 264.482H88.9869L43.9302 125.257H82.9043L109.938 221.228L137.197 125.257H176.171L131.34 264.482ZM194.419 388.838C278.225 388.838 349.414 335.897 376.899 261.779C370.591 263.581 363.832 264.482 356.623 264.482H299.852V125.257H356.623C364.058 125.257 370.816 126.158 377.349 128.186C350.315 53.3921 278.675 0 194.419 0C86.9593 0 0 86.9592 0 194.419C0 301.654 86.9593 388.838 194.419 388.838ZM388.613 203.881C387.262 210.414 384.558 216.046 380.278 220.552C373.97 226.86 366.085 230.014 356.623 230.014H336.573V159.5H356.623C366.31 159.5 374.195 162.654 380.278 169.188C384.558 173.693 387.487 179.1 388.613 185.858C388.839 188.562 388.839 191.491 388.839 194.194C388.839 197.573 388.839 200.727 388.613 203.881ZM225.959 210.64V231.14H279.802V264.482H190.364V125.257H278.901V158.599H225.959V177.974H273.944V210.865H225.959V210.64Z" fill="#415373"/>
<path fill-rule="evenodd" clip-rule="evenodd" d="M356.85 125.257H412.044H500.58V158.599H447.639V177.974H495.624V210.865H447.639V231.366H501.482V264.482H426.462H361.806V264.257C378.702 263.131 392.895 256.597 404.61 244.432C417.676 231.14 424.21 214.469 424.21 194.645C424.21 175.045 417.676 158.599 404.61 145.082C391.769 132.016 375.999 125.257 356.85 125.257ZM344.685 230.014H356.625C366.086 230.014 373.971 226.86 380.279 220.552C386.362 214.019 389.516 205.458 389.516 194.87C389.516 184.056 386.362 175.721 380.279 169.413C374.197 162.88 366.312 159.726 356.625 159.726H341.531C339.728 161.753 337.926 164.006 336.574 166.259V220.552C338.827 223.931 341.531 227.085 344.685 230.014ZM580.781 213.794L616.827 264.482H579.43L562.083 239.926L544.736 264.482H507.564L543.61 213.794L508.916 165.132H546.088L562.083 187.661L578.078 165.132H615.475L580.781 213.794Z" fill="#415373"/>
<path fill-rule="evenodd" clip-rule="evenodd" d="M458.609 312.675C468.983 312.675 477.574 316.471 484.869 324.234C492.163 331.826 495.729 341.315 495.729 352.356C495.729 363.571 492.163 373.06 484.869 380.651C477.736 388.242 468.983 392.038 458.609 392.038C451.801 392.038 445.803 390.312 440.292 386.862C434.942 383.411 430.728 378.753 427.81 372.542V420.677H420.677V314.055H427.81V331.653C430.728 325.615 434.942 320.784 440.292 317.333C445.641 314.4 451.801 312.675 458.609 312.675ZM436.563 375.475C442.561 381.858 449.693 384.964 458.122 384.964C466.552 384.964 473.684 381.858 479.682 375.475C485.679 369.091 488.597 361.5 488.597 352.529C488.597 343.557 485.679 335.794 479.682 329.583C473.684 323.199 466.552 320.094 458.122 320.094C449.693 320.094 442.399 323.199 436.563 329.583C430.728 335.794 427.81 343.385 427.81 352.529C427.81 361.5 430.728 369.264 436.563 375.475ZM520.044 314.228V329.238C524.421 318.541 532.364 313.193 544.035 313.193V320.439C536.903 320.439 531.229 322.854 526.852 327.685C522.476 332.516 520.206 339.244 520.206 348.043V390.485H513.074V314.228H520.044ZM586.343 312.675C596.879 312.675 605.308 316.643 611.792 324.579C618.439 332.516 621.68 341.832 621.68 352.701C621.68 352.874 621.68 353.564 621.68 354.599C621.68 355.634 621.68 356.152 621.68 356.497H556.841C557.651 364.951 560.893 372.024 566.405 377.2C571.916 382.376 578.886 384.964 587.153 384.964C592.827 384.964 597.69 383.756 602.066 381.168C606.281 378.753 609.685 375.302 611.955 370.989L618.276 374.957C615.359 380.306 611.144 384.446 605.633 387.552C600.121 390.657 593.962 392.21 587.153 392.21C576.131 392.21 567.053 388.587 560.083 381.168C552.95 373.577 549.546 364.088 549.546 352.529C549.546 341.142 552.95 331.653 559.921 324.234C566.729 316.471 575.644 312.675 586.343 312.675ZM586.343 319.921C578.4 319.921 571.592 322.682 566.08 328.03C560.569 333.378 557.489 340.452 556.841 348.906H614.386C613.576 339.934 610.496 332.861 605.146 327.685C599.797 322.509 593.637 319.921 586.343 319.921ZM640.484 334.241C640.484 340.624 645.671 345.283 655.883 348.043C658.801 348.733 661.071 349.251 662.367 349.596C663.826 349.941 665.771 350.631 668.527 351.494C671.283 352.356 673.228 353.219 674.687 354.254C676.146 355.289 677.605 356.497 679.226 358.05C680.847 359.602 682.143 361.328 682.792 363.398C683.44 365.468 683.927 367.884 683.927 370.472C683.927 376.855 681.495 382.031 676.794 386.172C672.093 390.14 665.934 392.21 658.315 392.21C651.507 392.21 645.833 390.657 640.97 387.552C636.269 384.446 632.865 380.306 631.082 375.13L637.242 371.334C638.539 375.647 641.132 378.926 644.699 381.168C648.427 383.584 652.803 384.619 658.153 384.619C663.664 384.619 668.203 383.411 671.607 380.823C675.011 378.235 676.632 374.785 676.632 370.299C676.632 363.398 671.445 358.74 661.233 356.497C651.669 354.082 645.347 351.839 642.105 349.768C636.107 346.145 633.19 340.797 633.19 334.068C633.19 328.03 635.459 322.854 639.998 318.713C644.699 314.573 650.534 312.502 657.667 312.502C663.34 312.502 668.203 313.883 672.58 316.643C676.794 319.404 680.036 323.027 681.981 327.685L675.984 331.308C674.525 327.685 672.255 324.752 668.851 322.854C665.609 320.784 661.881 319.749 657.667 319.749C652.641 319.749 648.589 321.129 645.347 323.717C642.105 326.477 640.484 329.928 640.484 334.241ZM701.757 334.241C701.757 340.624 706.945 345.283 717.157 348.043C720.075 348.733 722.344 349.251 723.641 349.596C725.1 349.941 727.045 350.631 729.801 351.494C732.556 352.356 734.501 353.219 735.96 354.254C737.419 355.289 738.878 356.497 740.499 358.05C742.12 359.602 743.417 361.328 744.065 363.398C744.714 365.468 745.2 367.884 745.2 370.472C745.2 376.855 742.769 382.031 738.068 386.172C733.367 390.14 727.207 392.21 719.588 392.21C712.78 392.21 707.107 390.657 702.244 387.552C697.543 384.446 694.139 380.306 692.356 375.13L698.516 371.334C699.812 375.647 702.406 378.926 705.972 381.168C709.7 383.584 714.077 384.619 719.426 384.619C724.938 384.619 729.476 383.411 732.881 380.823C736.285 378.235 737.906 374.785 737.906 370.299C737.906 363.398 732.718 358.74 722.506 356.497C712.942 354.082 706.62 351.839 703.378 349.768C697.381 346.145 694.463 340.797 694.463 334.068C694.463 328.03 696.732 322.854 701.271 318.713C705.972 314.573 711.808 312.502 718.94 312.502C724.613 312.502 729.476 313.883 733.853 316.643C738.068 319.404 741.31 323.027 743.255 327.685L737.257 331.308C735.798 327.685 733.529 324.752 730.125 322.854C726.883 320.784 723.155 319.749 718.94 319.749C713.915 319.749 709.862 321.129 706.62 323.717C703.378 326.477 701.757 329.928 701.757 334.241Z" fill="black"/>
<path fill-rule="evenodd" clip-rule="evenodd" d="M131.341 264.482H88.9874L43.9308 125.257H82.9048L109.939 221.228L137.198 125.257H176.172L131.341 264.482ZM225.96 210.64V231.14H279.802V264.482H190.365V125.257H278.901V158.599H225.96V177.974H273.945V210.865H225.96V210.64ZM299.853 125.257H356.624C375.773 125.257 391.768 132.016 404.835 145.308C417.901 158.599 424.434 175.27 424.434 194.87C424.434 214.695 417.901 231.14 404.835 244.657C391.993 257.949 375.998 264.482 356.624 264.482H299.853V125.257ZM336.574 230.014H356.624C366.086 230.014 373.971 226.86 380.279 220.552C386.361 214.019 389.515 205.458 389.515 194.87C389.515 184.056 386.361 175.721 380.279 169.413C374.196 162.88 366.311 159.726 356.624 159.726H336.574V230.014Z" fill="white"/>
</g>
</svg>
