<svg width="12" height="14" viewBox="0 0 12 14" fill="none" xmlns="http://www.w3.org/2000/svg">
<path d="M5.81276 0.731772C5.49518 0.782085 5.20255 0.949429 5.012 1.19115C4.93147 1.29396 4.8362 1.48318 4.80103 1.61333C4.77495 1.7074 4.77154 1.74568 4.77041 1.89224C4.76928 2.08365 4.78402 2.16787 4.8464 2.32974C4.91559 2.50693 5.03695 2.67318 5.19121 2.80115L5.26266 2.86021V3.26162V3.66412H5.30803H5.3534V3.91568V4.16724H5.30803C5.2672 4.16724 5.26266 4.16943 5.26266 4.19458V4.22193H4.2793H3.2948L3.24376 4.15958C3.00784 3.87302 2.54508 3.90365 2.34773 4.21865C2.1481 4.53584 2.34886 4.94709 2.73563 5.00943C2.9205 5.04005 3.14281 4.95584 3.24602 4.81693L3.28119 4.7688H4.27249C5.24451 4.7688 5.26266 4.7688 5.26266 4.78959C5.26266 4.80709 5.27173 4.81146 5.30576 4.81474L5.34773 4.81802L5.35113 7.02193C5.3534 8.55318 5.35113 9.27615 5.34206 9.3899C5.31937 9.69177 5.2706 9.91052 5.04149 10.7461C5.00746 10.8719 4.96776 11.0426 4.95415 11.1235C4.94054 11.2044 4.9292 11.2722 4.92807 11.2733C4.92807 11.2744 4.89064 11.2613 4.8464 11.2438C4.80103 11.2263 4.71257 11.2001 4.64792 11.1847C4.28043 11.0972 3.73033 10.8719 3.35604 10.6543C3.04073 10.4727 2.80481 10.2933 2.55756 10.0494C2.37835 9.87334 2.28308 9.76177 2.16058 9.58677C1.92807 9.25099 1.79536 8.94146 1.70689 8.52474C1.70236 8.50396 1.70916 8.50177 1.86455 8.48974C1.95415 8.48318 2.04489 8.47115 2.06644 8.4624C2.14357 8.43177 2.17532 8.33771 2.15377 8.20427C2.12769 8.03255 1.98591 7.70771 1.80897 7.40912C1.66379 7.16521 1.42221 6.83599 1.38931 6.83599C1.36663 6.83599 1.26795 6.94755 1.18062 7.07115C0.95264 7.3949 0.777971 7.75474 0.661146 8.14302C0.604436 8.33333 0.616912 8.40005 0.716723 8.45037C0.762092 8.47334 0.899332 8.49849 0.978727 8.49849C1.01729 8.49849 1.05585 8.50287 1.06379 8.50834C1.07287 8.5138 1.08875 8.57068 1.10122 8.64177C1.28383 9.69177 1.9292 10.7604 2.82977 11.5052C3.48194 12.0444 4.2362 12.4458 5.17646 12.7532C5.48043 12.8516 5.56209 12.8855 5.67098 12.9555C5.75945 13.0124 5.82523 13.0791 5.87627 13.1644C5.92051 13.241 5.9602 13.2705 6.00444 13.2629C6.04981 13.2541 6.05888 13.2443 6.11105 13.1601C6.18932 13.0332 6.32429 12.9282 6.50349 12.8549C6.54092 12.8396 6.68043 12.7926 6.81087 12.751C8.13109 12.3277 9.15302 11.6813 9.87552 10.8096C10.4199 10.1522 10.7874 9.33849 10.894 8.55318L10.9008 8.50287L11.0653 8.49084C11.308 8.47224 11.3511 8.4438 11.3625 8.30271C11.3693 8.20318 11.3466 8.1124 11.2661 7.91334C11.1606 7.65521 11.0267 7.41349 10.8373 7.13677C10.725 6.9749 10.6354 6.86224 10.6014 6.84255C10.5833 6.83271 10.5731 6.83818 10.5356 6.87974C10.2861 7.15099 9.99461 7.69787 9.86871 8.13099C9.81427 8.31802 9.82561 8.40552 9.91181 8.44927C9.95831 8.47224 10.0944 8.49849 10.167 8.49849C10.201 8.49849 10.2441 8.50177 10.2646 8.50505L10.3008 8.51271L10.294 8.56959C10.2838 8.65927 10.2158 8.90755 10.1681 9.02896C10.0672 9.29146 9.87552 9.61412 9.6861 9.83834C9.58289 9.96193 9.35945 10.1807 9.23242 10.2835C8.97155 10.4946 8.69593 10.6663 8.3534 10.8282C8.08799 10.954 7.8793 11.0349 7.60822 11.1191C7.36663 11.1924 7.08988 11.281 7.0638 11.2919C7.04565 11.2996 7.04338 11.2941 7.04338 11.2547C7.04338 11.1377 7.00368 10.9354 6.88346 10.4497C6.75869 9.94115 6.71446 9.70818 6.69177 9.44349C6.68497 9.36365 6.68043 8.44052 6.68043 7.0624V4.81255H6.70879C6.7292 4.81255 6.73714 4.80709 6.73714 4.79068C6.73714 4.7688 6.74508 4.7688 7.69669 4.7688H8.65623L8.72769 4.84318C9.02372 5.15052 9.53185 5.0324 9.65661 4.62771C9.74395 4.34224 9.53752 4.02505 9.22675 3.96927C9.0362 3.93427 8.81729 4.01521 8.69934 4.16177L8.6517 4.22193H7.69442H6.73714V4.19458C6.73714 4.17271 6.73147 4.16724 6.70879 4.16724H6.68043V3.91568V3.66412H6.70879H6.73714V3.25615V2.84927L6.812 2.78474C7.46758 2.21927 7.30538 1.19224 6.50349 0.83021C6.35151 0.76021 6.2154 0.731772 6.02826 0.727398C5.94092 0.72521 5.84451 0.727398 5.81276 0.731772ZM6.19385 1.18677C6.40028 1.23818 6.59196 1.39021 6.68383 1.57615C6.75075 1.71177 6.7655 1.77412 6.76436 1.91959C6.76096 2.12412 6.6895 2.28818 6.53865 2.43365C6.45018 2.51896 6.36739 2.57037 6.2517 2.61193C6.14962 2.64912 5.91937 2.65896 5.80708 2.63052C5.58478 2.57584 5.40217 2.43365 5.30236 2.23677C5.24451 2.12412 5.2241 2.03662 5.2241 1.90318C5.2241 1.69755 5.29669 1.5313 5.44981 1.38255C5.52693 1.30818 5.55983 1.28521 5.64943 1.24365C5.70841 1.2163 5.7844 1.18896 5.81843 1.1824C5.85245 1.17583 5.89102 1.16818 5.90349 1.16599C5.94659 1.15615 6.12013 1.16927 6.19385 1.18677Z" fill="white"/>
</svg>
