<svg width="18" height="21" viewBox="0 0 18 21" fill="none" xmlns="http://www.w3.org/2000/svg">
<path d="M9.20373 0.20211C8.7009 0.284767 8.23757 0.559689 7.93587 0.956799C7.80836 1.1257 7.65751 1.43656 7.60184 1.65039C7.56054 1.80492 7.55515 1.86781 7.55335 2.10859C7.55156 2.42305 7.5749 2.56141 7.67368 2.82734C7.78322 3.11844 7.97538 3.39156 8.21961 3.6018L8.33275 3.69883V4.35828V5.01953H8.40458H8.47642V5.43281V5.8461H8.40458C8.33993 5.8461 8.33275 5.84969 8.33275 5.89102V5.93594H6.77575H5.21696L5.13615 5.83352C4.76262 5.36274 4.02991 5.41305 3.71744 5.93055C3.40137 6.45164 3.71923 7.12727 4.33161 7.22969C4.62434 7.28 4.97632 7.14164 5.13974 6.91344L5.19541 6.83438H6.76498C8.30402 6.83438 8.33275 6.83438 8.33275 6.86852C8.33275 6.89727 8.34712 6.90445 8.40099 6.90984L8.46744 6.91524L8.47283 10.5359C8.47642 13.0516 8.47283 14.2393 8.45846 14.4262C8.42254 14.9221 8.34532 15.2815 7.98256 16.6543C7.92868 16.8609 7.86583 17.1413 7.84428 17.2742C7.82273 17.4072 7.80477 17.5186 7.80298 17.5204C7.80298 17.5222 7.74371 17.5006 7.67368 17.4719C7.60184 17.4431 7.46177 17.4 7.3594 17.3748C6.77755 17.2311 5.90657 16.8609 5.31394 16.5034C4.81469 16.2051 4.44116 15.9104 4.04967 15.5097C3.76592 15.2204 3.61507 15.0371 3.42112 14.7496C3.05297 14.198 2.84286 13.6895 2.70278 13.0048C2.6956 12.9707 2.70638 12.9671 2.95241 12.9473C3.09428 12.9366 3.23795 12.9168 3.27207 12.9024C3.39418 12.8521 3.44447 12.6976 3.41035 12.4784C3.36904 12.1963 3.14456 11.6626 2.86441 11.172C2.63454 10.7713 2.25203 10.2305 2.19995 10.2305C2.16403 10.2305 2.00779 10.4138 1.86951 10.6168C1.50855 11.1487 1.23199 11.7398 1.04702 12.3777C0.957227 12.6904 0.976981 12.8 1.13501 12.8827C1.20685 12.9204 1.42415 12.9617 1.54985 12.9617C1.61091 12.9617 1.67197 12.9689 1.68454 12.9779C1.69891 12.9869 1.72405 13.0803 1.74381 13.1971C2.03294 14.9221 3.05477 16.6777 4.48067 17.9013C5.51328 18.7872 6.70751 19.4466 8.19626 19.9516C8.67755 20.1133 8.80685 20.169 8.97925 20.284C9.11933 20.3774 9.22349 20.487 9.3043 20.6272C9.37434 20.753 9.43719 20.8015 9.50723 20.7889C9.57906 20.7745 9.59343 20.7584 9.67604 20.62C9.79995 20.4116 10.0137 20.2391 10.2974 20.1187C10.3567 20.0935 10.5776 20.0163 10.7841 19.948C12.8744 19.2526 14.4925 18.1906 15.6364 16.7585C16.4984 15.6786 17.0803 14.3417 17.2491 13.0516L17.2599 12.9689L17.5203 12.9491C17.9046 12.9186 17.9728 12.8719 17.9908 12.6401C18.0016 12.4766 17.9656 12.3274 17.8381 12.0004C17.6711 11.5763 17.4592 11.1792 17.1593 10.7246C16.9815 10.4587 16.8397 10.2736 16.7858 10.2413C16.757 10.2251 16.7409 10.2341 16.6816 10.3023C16.2865 10.748 15.825 11.6464 15.6257 12.358C15.5395 12.6652 15.5574 12.809 15.6939 12.8809C15.7675 12.9186 15.983 12.9617 16.098 12.9617C16.1518 12.9617 16.2201 12.9671 16.2524 12.9725L16.3099 12.9851L16.2991 13.0785C16.2829 13.2259 16.1752 13.6338 16.0998 13.8332C15.9399 14.2645 15.6364 14.7945 15.3365 15.1629C15.1731 15.3659 14.8193 15.7253 14.6182 15.8942C14.2052 16.241 13.7688 16.5231 13.2264 16.7891C12.8062 16.9957 12.4758 17.1287 12.0466 17.267C11.664 17.3874 11.2259 17.533 11.1845 17.5509C11.1558 17.5635 11.1522 17.5545 11.1522 17.4898C11.1522 17.2976 11.0894 16.9652 10.899 16.1673C10.7015 15.3318 10.6314 14.9491 10.5955 14.5142C10.5847 14.383 10.5776 12.8665 10.5776 10.6024V6.90625H10.6224C10.6548 6.90625 10.6673 6.89727 10.6673 6.87031C10.6673 6.83438 10.6799 6.83438 12.1866 6.83438H13.7059L13.819 6.95656C14.2878 7.46149 15.0923 7.26742 15.2898 6.60258C15.4281 6.13359 15.1013 5.6125 14.6092 5.52086C14.3075 5.46336 13.9609 5.59633 13.7741 5.83711L13.6987 5.93594H12.183H10.6673V5.89102C10.6673 5.85508 10.6584 5.8461 10.6224 5.8461H10.5776V5.43281V5.01953H10.6224H10.6673V4.3493V3.68086L10.7859 3.57484C11.8239 2.64586 11.5671 0.958595 10.2974 0.363829C10.0568 0.248829 9.84126 0.20211 9.54494 0.194923C9.40666 0.19133 9.25402 0.194923 9.20373 0.20211ZM9.80714 0.94961C10.134 1.03406 10.4375 1.28383 10.5829 1.5893C10.6889 1.81211 10.7122 1.91453 10.7104 2.15352C10.7051 2.48953 10.5919 2.75906 10.3531 2.99805C10.213 3.1382 10.0819 3.22266 9.89872 3.29094C9.7371 3.35203 9.37254 3.3682 9.19475 3.32149C8.84277 3.23164 8.55364 2.99805 8.3956 2.67461C8.30402 2.48953 8.27169 2.34578 8.27169 2.12656C8.27169 1.78875 8.38662 1.51562 8.62906 1.27125C8.75118 1.14906 8.80326 1.11133 8.94513 1.04305C9.03852 0.998125 9.15884 0.953203 9.21271 0.942423C9.26659 0.931641 9.32765 0.919064 9.3474 0.91547C9.41564 0.899298 9.69041 0.92086 9.80714 0.94961Z" fill="white"/>
</svg>
